<?xml version="1.0" encoding="UTF-8" standalone="no"?>
<!DOCTYPE svg PUBLIC "-//W3C//DTD SVG 1.1//EN"
 "http://www.w3.org/Graphics/SVG/1.1/DTD/svg11.dtd">
<!-- Generated by graphviz version 2.38.0 (20140413.2041)
 -->
<!-- Title: structs Pages: 1 -->
<svg width="916pt" height="1012pt"
 viewBox="0.00 0.00 915.91 1012.00" xmlns="http://www.w3.org/2000/svg" xmlns:xlink="http://www.w3.org/1999/xlink">
<g id="graph0" class="graph" transform="scale(1 1) rotate(0) translate(4 1008)">
<title>structs</title>
<polygon fill="white" stroke="none" points="-4,4 -4,-1008 911.906,-1008 911.906,4 -4,4"/>
<!-- antswarpsubjectsource -->
<g id="node1" class="node"><title>antswarpsubjectsource</title>
<polygon fill="none" stroke="black" points="297.338,-929.1 297.338,-1003.5 493.84,-1003.5 493.84,-929.1 297.338,-929.1"/>
<text text-anchor="middle" x="312.722" y="-962.4" font-family="Times,serif" font-size="14.00">IN</text>
<polyline fill="none" stroke="black" points="328.105,-929.1 328.105,-1003.5 "/>
<text text-anchor="middle" x="374.2" y="-986.9" font-family="Times,serif" font-size="14.00">subjectsource</text>
<polyline fill="none" stroke="black" points="328.105,-978.7 420.295,-978.7 "/>
<text text-anchor="middle" x="374.2" y="-962.1" font-family="Times,serif" font-size="14.00">utility</text>
<polyline fill="none" stroke="black" points="328.105,-953.9 420.295,-953.9 "/>
<text text-anchor="middle" x="374.2" y="-937.3" font-family="Times,serif" font-size="14.00"> </text>
<polyline fill="none" stroke="black" points="420.295,-929.1 420.295,-1003.5 "/>
<text text-anchor="middle" x="457.067" y="-980.9" font-family="Times,serif" font-size="14.00">OUT</text>
<polyline fill="none" stroke="black" points="420.295,-966.7 493.84,-966.7 "/>
<text text-anchor="middle" x="457.067" y="-944.1" font-family="Times,serif" font-size="14.00">subject_id</text>
</g>
<!-- antswarpdatasource -->
<g id="node2" class="node"><title>antswarpdatasource</title>
<polygon fill="none" stroke="black" points="142.506,-817.7 142.506,-892.1 336.672,-892.1 336.672,-817.7 142.506,-817.7"/>
<text text-anchor="middle" x="179.279" y="-869.5" font-family="Times,serif" font-size="14.00">IN</text>
<polyline fill="none" stroke="black" points="142.506,-855.3 216.052,-855.3 "/>
<text text-anchor="middle" x="179.279" y="-832.7" font-family="Times,serif" font-size="14.00">subject_id</text>
<polyline fill="none" stroke="black" points="216.052,-817.7 216.052,-892.1 "/>
<text text-anchor="middle" x="253.979" y="-875.5" font-family="Times,serif" font-size="14.00">datasource</text>
<polyline fill="none" stroke="black" points="216.052,-867.3 291.906,-867.3 "/>
<text text-anchor="middle" x="253.979" y="-850.7" font-family="Times,serif" font-size="14.00">io</text>
<polyline fill="none" stroke="black" points="216.052,-842.5 291.906,-842.5 "/>
<text text-anchor="middle" x="253.979" y="-825.9" font-family="Times,serif" font-size="14.00"> </text>
<polyline fill="none" stroke="black" points="291.906,-817.7 291.906,-892.1 "/>
<text text-anchor="middle" x="314.289" y="-875.5" font-family="Times,serif" font-size="14.00">OUT</text>
<polyline fill="none" stroke="black" points="291.906,-867.3 336.672,-867.3 "/>
<text text-anchor="middle" x="314.289" y="-850.7" font-family="Times,serif" font-size="14.00">aseg</text>
<polyline fill="none" stroke="black" points="291.906,-842.5 336.672,-842.5 "/>
<text text-anchor="middle" x="314.289" y="-825.9" font-family="Times,serif" font-size="14.00">head</text>
</g>
<!-- antswarpsubjectsource&#45;&gt;antswarpdatasource -->
<g id="edge13" class="edge"><title>antswarpsubjectsource:outsubjectid:e&#45;&gt;antswarpdatasource:insubjectid:w</title>
<path fill="none" stroke="black" d="M494.589,-948.3C503.356,-948.3 499.626,-934.957 493.589,-928.6 439.591,-871.748 195.648,-950.329 142.589,-892.6 128.714,-877.504 120.154,-849.212 131.683,-839.933"/>
<polygon fill="black" stroke="black" points="133.052,-843.174 141.589,-836.9 131.002,-836.481 133.052,-843.174"/>
</g>
<!-- antswarpdatasink -->
<g id="node9" class="node"><title>antswarpdatasink</title>
<polygon fill="none" stroke="black" points="589.272,-0.5 589.272,-174.1 907.906,-174.1 907.906,-0.5 589.272,-0.5"/>
<text text-anchor="middle" x="694.879" y="-157.5" font-family="Times,serif" font-size="14.00">IN</text>
<polyline fill="none" stroke="black" points="589.272,-149.3 800.485,-149.3 "/>
<text text-anchor="middle" x="694.879" y="-132.7" font-family="Times,serif" font-size="14.00">container</text>
<polyline fill="none" stroke="black" points="589.272,-124.5 800.485,-124.5 "/>
<text text-anchor="middle" x="694.879" y="-107.9" font-family="Times,serif" font-size="14.00">normalization.@affine</text>
<polyline fill="none" stroke="black" points="589.272,-99.7 800.485,-99.7 "/>
<text text-anchor="middle" x="694.879" y="-83.1" font-family="Times,serif" font-size="14.00">normalization.@brain</text>
<polyline fill="none" stroke="black" points="589.272,-74.9 800.485,-74.9 "/>
<text text-anchor="middle" x="694.879" y="-58.3" font-family="Times,serif" font-size="14.00">normalization.@inverse_warpfield</text>
<polyline fill="none" stroke="black" points="589.272,-50.1 800.485,-50.1 "/>
<text text-anchor="middle" x="694.879" y="-33.5" font-family="Times,serif" font-size="14.00">normalization.@report</text>
<polyline fill="none" stroke="black" points="589.272,-25.3 800.485,-25.3 "/>
<text text-anchor="middle" x="694.879" y="-8.7" font-family="Times,serif" font-size="14.00">normalization.@warpfield</text>
<polyline fill="none" stroke="black" points="800.485,-0.5 800.485,-174.1 "/>
<text text-anchor="middle" x="831.813" y="-141" font-family="Times,serif" font-size="14.00">datasink</text>
<polyline fill="none" stroke="black" points="800.485,-116.3 863.14,-116.3 "/>
<text text-anchor="middle" x="831.813" y="-83.2" font-family="Times,serif" font-size="14.00">io</text>
<polyline fill="none" stroke="black" points="800.485,-58.5 863.14,-58.5 "/>
<text text-anchor="middle" x="831.813" y="-25.4" font-family="Times,serif" font-size="14.00"> </text>
<polyline fill="none" stroke="black" points="863.14,-0.5 863.14,-174.1 "/>
<text text-anchor="middle" x="885.523" y="-83.5" font-family="Times,serif" font-size="14.00">OUT</text>
</g>
<!-- antswarpsubjectsource&#45;&gt;antswarpdatasink -->
<g id="edge12" class="edge"><title>antswarpsubjectsource:outsubjectid:e&#45;&gt;antswarpdatasink:incontainer:w</title>
<path fill="none" stroke="black" d="M494.589,-948.3C618.424,-948.3 684.589,-868.335 684.589,-744.5 684.589,-744.5 684.589,-744.5 684.589,-383.5 684.589,-302.447 669.738,-279.213 626.589,-210.6 614.375,-191.178 598.797,-195.615 589.589,-174.6 585.014,-164.157 578.418,-150.443 580.132,-142.892"/>
<polygon fill="black" stroke="black" points="582.178,-145.735 588.589,-137.3 578.317,-139.896 582.178,-145.735"/>
</g>
<!-- antswarpconvertaseg -->
<g id="node3" class="node"><title>antswarpconvertaseg</title>
<polygon fill="none" stroke="black" points="16.1149,-706.3 16.1149,-780.7 211.063,-780.7 211.063,-706.3 16.1149,-706.3"/>
<text text-anchor="middle" x="42.3884" y="-758.1" font-family="Times,serif" font-size="14.00">IN</text>
<polyline fill="none" stroke="black" points="16.1149,-743.9 68.6619,-743.9 "/>
<text text-anchor="middle" x="42.3884" y="-721.3" font-family="Times,serif" font-size="14.00">in_file</text>
<polyline fill="none" stroke="black" points="68.6619,-706.3 68.6619,-780.7 "/>
<text text-anchor="middle" x="110.089" y="-764.1" font-family="Times,serif" font-size="14.00">convertaseg</text>
<polyline fill="none" stroke="black" points="68.6619,-755.9 151.516,-755.9 "/>
<text text-anchor="middle" x="110.089" y="-739.3" font-family="Times,serif" font-size="14.00">freesurfer</text>
<polyline fill="none" stroke="black" points="68.6619,-731.1 151.516,-731.1 "/>
<text text-anchor="middle" x="110.089" y="-714.5" font-family="Times,serif" font-size="14.00"> </text>
<polyline fill="none" stroke="black" points="151.516,-706.3 151.516,-780.7 "/>
<text text-anchor="middle" x="181.29" y="-758.1" font-family="Times,serif" font-size="14.00">OUT</text>
<polyline fill="none" stroke="black" points="151.516,-743.9 211.063,-743.9 "/>
<text text-anchor="middle" x="181.29" y="-721.3" font-family="Times,serif" font-size="14.00">out_file</text>
</g>
<!-- antswarpdatasource&#45;&gt;antswarpconvertaseg -->
<g id="edge8" class="edge"><title>antswarpdatasource:outaseg:e&#45;&gt;antswarpconvertaseg:ininfile:w</title>
<path fill="none" stroke="black" d="M337.589,-854.9C354.35,-854.9 347.924,-829.548 336.589,-817.2 239.806,-711.766 112.919,-887.047 16.589,-781.2 2.78829,-766.036 -5.82064,-737.789 5.68918,-728.527"/>
<polygon fill="black" stroke="black" points="7.04936,-731.771 15.589,-725.5 5.00264,-725.077 7.04936,-731.771"/>
</g>
<!-- antswarpconvertbrain -->
<g id="node5" class="node"><title>antswarpconvertbrain</title>
<polygon fill="none" stroke="black" points="336.169,-594.9 336.169,-669.3 535.009,-669.3 535.009,-594.9 336.169,-594.9"/>
<text text-anchor="middle" x="362.442" y="-646.7" font-family="Times,serif" font-size="14.00">IN</text>
<polyline fill="none" stroke="black" points="336.169,-632.5 388.716,-632.5 "/>
<text text-anchor="middle" x="362.442" y="-609.9" font-family="Times,serif" font-size="14.00">in_file</text>
<polyline fill="none" stroke="black" points="388.716,-594.9 388.716,-669.3 "/>
<text text-anchor="middle" x="432.089" y="-652.7" font-family="Times,serif" font-size="14.00">convertbrain</text>
<polyline fill="none" stroke="black" points="388.716,-644.5 475.462,-644.5 "/>
<text text-anchor="middle" x="432.089" y="-627.9" font-family="Times,serif" font-size="14.00">freesurfer</text>
<polyline fill="none" stroke="black" points="388.716,-619.7 475.462,-619.7 "/>
<text text-anchor="middle" x="432.089" y="-603.1" font-family="Times,serif" font-size="14.00"> </text>
<polyline fill="none" stroke="black" points="475.462,-594.9 475.462,-669.3 "/>
<text text-anchor="middle" x="505.236" y="-646.7" font-family="Times,serif" font-size="14.00">OUT</text>
<polyline fill="none" stroke="black" points="475.462,-632.5 535.009,-632.5 "/>
<text text-anchor="middle" x="505.236" y="-609.9" font-family="Times,serif" font-size="14.00">out_file</text>
</g>
<!-- antswarpdatasource&#45;&gt;antswarpconvertbrain -->
<g id="edge9" class="edge"><title>antswarpdatasource:outhead:e&#45;&gt;antswarpconvertbrain:ininfile:w</title>
<path fill="none" stroke="black" d="M337.589,-829.9C358.711,-829.9 322.465,-662.458 329.917,-622.56"/>
<polygon fill="black" stroke="black" points="332.927,-624.355 335.589,-614.1 327.113,-620.457 332.927,-624.355"/>
</g>
<!-- antswarpmakemask -->
<g id="node4" class="node"><title>antswarpmakemask</title>
<polygon fill="none" stroke="black" points="112.67,-594.9 112.67,-669.3 318.508,-669.3 318.508,-594.9 112.67,-594.9"/>
<text text-anchor="middle" x="138.943" y="-646.7" font-family="Times,serif" font-size="14.00">IN</text>
<polyline fill="none" stroke="black" points="112.67,-632.5 165.217,-632.5 "/>
<text text-anchor="middle" x="138.943" y="-609.9" font-family="Times,serif" font-size="14.00">in_file</text>
<polyline fill="none" stroke="black" points="165.217,-594.9 165.217,-669.3 "/>
<text text-anchor="middle" x="203.151" y="-652.7" font-family="Times,serif" font-size="14.00">makemask</text>
<polyline fill="none" stroke="black" points="165.217,-644.5 241.086,-644.5 "/>
<text text-anchor="middle" x="203.151" y="-627.9" font-family="Times,serif" font-size="14.00">freesurfer</text>
<polyline fill="none" stroke="black" points="165.217,-619.7 241.086,-619.7 "/>
<text text-anchor="middle" x="203.151" y="-603.1" font-family="Times,serif" font-size="14.00"> </text>
<polyline fill="none" stroke="black" points="241.086,-594.9 241.086,-669.3 "/>
<text text-anchor="middle" x="279.797" y="-646.7" font-family="Times,serif" font-size="14.00">OUT</text>
<polyline fill="none" stroke="black" points="241.086,-632.5 318.508,-632.5 "/>
<text text-anchor="middle" x="279.797" y="-609.9" font-family="Times,serif" font-size="14.00">binary_file</text>
</g>
<!-- antswarpconvertaseg&#45;&gt;antswarpmakemask -->
<g id="edge6" class="edge"><title>antswarpconvertaseg:outoutfile:e&#45;&gt;antswarpmakemask:ininfile:w</title>
<path fill="none" stroke="black" d="M211.589,-725.5C220.356,-725.5 215.787,-712.859 210.589,-705.8 183.075,-668.436 139.488,-707.609 112.589,-669.8 100.703,-653.093 90.8375,-625.858 101.859,-616.99"/>
<polygon fill="black" stroke="black" points="102.999,-620.302 111.589,-614.1 101.006,-613.592 102.999,-620.302"/>
</g>
<!-- antswarpskullstrip -->
<g id="node6" class="node"><title>antswarpskullstrip</title>
<polygon fill="none" stroke="black" points="318.156,-483.5 318.156,-557.9 517.022,-557.9 517.022,-483.5 318.156,-483.5"/>
<text text-anchor="middle" x="353.759" y="-541.3" font-family="Times,serif" font-size="14.00">IN</text>
<polyline fill="none" stroke="black" points="318.156,-533.1 389.363,-533.1 "/>
<text text-anchor="middle" x="353.759" y="-516.5" font-family="Times,serif" font-size="14.00">in_file</text>
<polyline fill="none" stroke="black" points="318.156,-508.3 389.363,-508.3 "/>
<text text-anchor="middle" x="353.759" y="-491.7" font-family="Times,serif" font-size="14.00">mask_file</text>
<polyline fill="none" stroke="black" points="389.363,-483.5 389.363,-557.9 "/>
<text text-anchor="middle" x="423.419" y="-541.3" font-family="Times,serif" font-size="14.00">skullstrip</text>
<polyline fill="none" stroke="black" points="389.363,-533.1 457.475,-533.1 "/>
<text text-anchor="middle" x="423.419" y="-516.5" font-family="Times,serif" font-size="14.00">fsl</text>
<polyline fill="none" stroke="black" points="389.363,-508.3 457.475,-508.3 "/>
<text text-anchor="middle" x="423.419" y="-491.7" font-family="Times,serif" font-size="14.00"> </text>
<polyline fill="none" stroke="black" points="457.475,-483.5 457.475,-557.9 "/>
<text text-anchor="middle" x="487.248" y="-535.3" font-family="Times,serif" font-size="14.00">OUT</text>
<polyline fill="none" stroke="black" points="457.475,-521.1 517.022,-521.1 "/>
<text text-anchor="middle" x="487.248" y="-498.5" font-family="Times,serif" font-size="14.00">out_file</text>
</g>
<!-- antswarpmakemask&#45;&gt;antswarpskullstrip -->
<g id="edge10" class="edge"><title>antswarpmakemask:outbinaryfile:e&#45;&gt;antswarpskullstrip:inmaskfile:w</title>
<path fill="none" stroke="black" d="M319.589,-614.1C331.969,-614.1 318.799,-570.778 318.589,-558.4 318.198,-535.323 298.656,-507.468 307.778,-498.575"/>
<polygon fill="black" stroke="black" points="308.977,-501.871 317.589,-495.7 307.008,-495.153 308.977,-501.871"/>
</g>
<!-- antswarpconvertbrain&#45;&gt;antswarpskullstrip -->
<g id="edge7" class="edge"><title>antswarpconvertbrain:outoutfile:e&#45;&gt;antswarpskullstrip:ininfile:w</title>
<path fill="none" stroke="black" d="M535.589,-614.1C544.356,-614.1 540.423,-600.943 534.589,-594.4 469.818,-521.759 382.476,-631.82 318.589,-558.4 310.595,-549.213 304.841,-533.474 308.721,-525.554"/>
<polygon fill="black" stroke="black" points="310.498,-528.572 317.589,-520.7 307.137,-522.431 310.498,-528.572"/>
</g>
<!-- antswarpantswarp -->
<g id="node7" class="node"><title>antswarpantswarp</title>
<polygon fill="none" stroke="black" points="375.4,-322.5 375.4,-446.5 589.778,-446.5 589.778,-322.5 375.4,-322.5"/>
<text text-anchor="middle" x="401.674" y="-411.4" font-family="Times,serif" font-size="14.00">IN</text>
<polyline fill="none" stroke="black" points="375.4,-384.7 427.947,-384.7 "/>
<text text-anchor="middle" x="401.674" y="-349.6" font-family="Times,serif" font-size="14.00">in_file</text>
<polyline fill="none" stroke="black" points="427.947,-322.5 427.947,-446.5 "/>
<text text-anchor="middle" x="461.598" y="-421.9" font-family="Times,serif" font-size="14.00">antswarp</text>
<polyline fill="none" stroke="black" points="427.947,-405.7 495.249,-405.7 "/>
<text text-anchor="middle" x="461.598" y="-380.6" font-family="Times,serif" font-size="14.00">anatwarp</text>
<polyline fill="none" stroke="black" points="427.947,-363.9 495.249,-363.9 "/>
<text text-anchor="middle" x="461.598" y="-339.3" font-family="Times,serif" font-size="14.00"> </text>
<polyline fill="none" stroke="black" points="495.249,-322.5 495.249,-446.5 "/>
<text text-anchor="middle" x="542.513" y="-429.9" font-family="Times,serif" font-size="14.00">OUT</text>
<polyline fill="none" stroke="black" points="495.249,-421.7 589.778,-421.7 "/>
<text text-anchor="middle" x="542.513" y="-405.1" font-family="Times,serif" font-size="14.00">affine_file</text>
<polyline fill="none" stroke="black" points="495.249,-396.9 589.778,-396.9 "/>
<text text-anchor="middle" x="542.513" y="-380.3" font-family="Times,serif" font-size="14.00">brain_file</text>
<polyline fill="none" stroke="black" points="495.249,-372.1 589.778,-372.1 "/>
<text text-anchor="middle" x="542.513" y="-355.5" font-family="Times,serif" font-size="14.00">inv_warp_file</text>
<polyline fill="none" stroke="black" points="495.249,-347.3 589.778,-347.3 "/>
<text text-anchor="middle" x="542.513" y="-330.7" font-family="Times,serif" font-size="14.00">warp_file</text>
</g>
<!-- antswarpskullstrip&#45;&gt;antswarpantswarp -->
<g id="edge11" class="edge"><title>antswarpskullstrip:outoutfile:e&#45;&gt;antswarpantswarp:ininfile:w</title>
<path fill="none" stroke="black" d="M517.589,-502.7C526.356,-502.7 522.141,-489.785 516.589,-483 475.631,-432.944 415.537,-497.865 375.589,-447 352.327,-417.381 336.275,-364.656 364.401,-355.03"/>
<polygon fill="black" stroke="black" points="365.22,-358.447 374.589,-353.5 364.18,-351.524 365.22,-358.447"/>
</g>
<!-- antswarpwarpreport -->
<g id="node8" class="node"><title>antswarpwarpreport</title>
<polygon fill="none" stroke="black" points="314.838,-211.1 314.838,-285.5 504.34,-285.5 504.34,-211.1 314.838,-211.1"/>
<text text-anchor="middle" x="341.111" y="-262.9" font-family="Times,serif" font-size="14.00">IN</text>
<polyline fill="none" stroke="black" points="314.838,-248.7 367.385,-248.7 "/>
<text text-anchor="middle" x="341.111" y="-226.1" font-family="Times,serif" font-size="14.00">in_file</text>
<polyline fill="none" stroke="black" points="367.385,-211.1 367.385,-285.5 "/>
<text text-anchor="middle" x="406.089" y="-268.9" font-family="Times,serif" font-size="14.00">warpreport</text>
<polyline fill="none" stroke="black" points="367.385,-260.7 444.793,-260.7 "/>
<text text-anchor="middle" x="406.089" y="-244.1" font-family="Times,serif" font-size="14.00">anatwarp</text>
<polyline fill="none" stroke="black" points="367.385,-235.9 444.793,-235.9 "/>
<text text-anchor="middle" x="406.089" y="-219.3" font-family="Times,serif" font-size="14.00"> </text>
<polyline fill="none" stroke="black" points="444.793,-211.1 444.793,-285.5 "/>
<text text-anchor="middle" x="474.567" y="-262.9" font-family="Times,serif" font-size="14.00">OUT</text>
<polyline fill="none" stroke="black" points="444.793,-248.7 504.34,-248.7 "/>
<text text-anchor="middle" x="474.567" y="-226.1" font-family="Times,serif" font-size="14.00">out_file</text>
</g>
<!-- antswarpantswarp&#45;&gt;antswarpwarpreport -->
<g id="edge3" class="edge"><title>antswarpantswarp:outbrainfile:e&#45;&gt;antswarpwarpreport:ininfile:w</title>
<path fill="none" stroke="black" d="M590.589,-384.5C618.37,-384.5 608.081,-342.733 589.589,-322 507.542,-230.008 396.725,-377.912 314.589,-286 300.926,-270.711 292.227,-242.546 303.701,-233.316"/>
<polygon fill="black" stroke="black" points="305.045,-236.565 313.589,-230.3 303.003,-229.87 305.045,-236.565"/>
</g>
<!-- antswarpantswarp&#45;&gt;antswarpdatasink -->
<g id="edge1" class="edge"><title>antswarpantswarp:outaffinefile:e&#45;&gt;antswarpdatasink:innormalizationaffine:w</title>
<path fill="none" stroke="black" d="M590.589,-409.5C715.323,-409.5 556.805,-286.555 556.589,-286 529.41,-216.127 511.732,-121.278 578.587,-112.897"/>
<polygon fill="black" stroke="black" points="578.815,-116.39 588.589,-112.3 578.398,-109.402 578.815,-116.39"/>
</g>
<!-- antswarpantswarp&#45;&gt;antswarpdatasink -->
<g id="edge2" class="edge"><title>antswarpantswarp:outbrainfile:e&#45;&gt;antswarpdatasink:innormalizationbrain:w</title>
<path fill="none" stroke="black" d="M590.589,-384.5C605.327,-384.5 579.007,-147.722 584.924,-96.8518"/>
<polygon fill="black" stroke="black" points="588.275,-97.8902 588.589,-87.3 581.739,-95.3826 588.275,-97.8902"/>
</g>
<!-- antswarpantswarp&#45;&gt;antswarpdatasink -->
<g id="edge4" class="edge"><title>antswarpantswarp:outinvwarpfile:e&#45;&gt;antswarpdatasink:innormalizationinversewarpfield:w</title>
<path fill="none" stroke="black" d="M590.589,-359.5C623.304,-359.5 593.7,-318.703 594.589,-286 595.5,-252.501 596.9,-244.031 594.589,-210.6 593.475,-194.485 590.775,-190.71 589.589,-174.6 586.212,-128.71 545.793,-71.9912 578.603,-63.4089"/>
<polygon fill="black" stroke="black" points="579.036,-66.8824 588.589,-62.3 578.264,-59.9251 579.036,-66.8824"/>
</g>
<!-- antswarpantswarp&#45;&gt;antswarpdatasink -->
<g id="edge5" class="edge"><title>antswarpantswarp:outwarpfile:e&#45;&gt;antswarpdatasink:innormalizationwarpfield:w</title>
<path fill="none" stroke="black" d="M590.589,-334.5C613.74,-334.5 605.292,-308.748 609.589,-286 615.809,-253.071 617.995,-243.04 609.589,-210.6 604.998,-192.882 594.235,-192.304 589.589,-174.6 572.351,-108.915 522.545,-22.9358 578.276,-14.0504"/>
<polygon fill="black" stroke="black" points="578.869,-17.5166 588.589,-13.3 578.361,-10.535 578.869,-17.5166"/>
</g>
<!-- antswarpwarpreport&#45;&gt;antswarpdatasink -->
<g id="edge14" class="edge"><title>antswarpwarpreport:outoutfile:e&#45;&gt;antswarpdatasink:innormalizationreport:w</title>
<path fill="none" stroke="black" d="M505.589,-230.3C515.802,-230.3 562.753,-82.5344 582.15,-45.593"/>
<polygon fill="black" stroke="black" points="585.221,-47.3452 588.589,-37.3 579.692,-43.0523 585.221,-47.3452"/>
</g>
</g>
</svg>
