<?xml version="1.0" encoding="UTF-8" standalone="no"?>
<!DOCTYPE svg PUBLIC "-//W3C//DTD SVG 1.1//EN"
 "http://www.w3.org/Graphics/SVG/1.1/DTD/svg11.dtd">
<!-- Generated by graphviz version 2.38.0 (20140413.2041)
 -->
<!-- Pages: 1 -->
<svg width="496pt" height="548pt"
 viewBox="0.00 0.00 495.71 548.00" xmlns="http://www.w3.org/2000/svg" xmlns:xlink="http://www.w3.org/1999/xlink">
<g id="graph0" class="graph" transform="scale(1 1) rotate(0) translate(4 544)">
<polygon fill="white" stroke="none" points="-4,4 -4,-544 491.708,-544 491.708,4 -4,4"/>
<!-- makemask (freesurfer) -->
<g id="node1" class="node"><title>makemask (freesurfer)</title>
<ellipse fill="none" stroke="black" cx="158.51" cy="-306" rx="98.8914" ry="18"/>
<text text-anchor="middle" x="158.51" y="-301.8" font-family="Times,serif" font-size="14.00">makemask (freesurfer)</text>
</g>
<!-- skullstrip (fsl) -->
<g id="node7" class="node"><title>skullstrip (fsl)</title>
<ellipse fill="none" stroke="black" cx="176.51" cy="-234" rx="65.4609" ry="18"/>
<text text-anchor="middle" x="176.51" y="-229.8" font-family="Times,serif" font-size="14.00">skullstrip (fsl)</text>
</g>
<!-- makemask (freesurfer)&#45;&gt;skullstrip (fsl) -->
<g id="edge1" class="edge"><title>makemask (freesurfer)&#45;&gt;skullstrip (fsl)</title>
<path fill="none" stroke="black" d="M162.959,-287.697C164.964,-279.898 167.379,-270.509 169.611,-261.829"/>
<polygon fill="black" stroke="black" points="173.011,-262.661 172.111,-252.104 166.231,-260.918 173.011,-262.661"/>
</g>
<!-- subjectsource (utility) -->
<g id="node2" class="node"><title>subjectsource (utility)</title>
<ellipse fill="none" stroke="black" cx="95.5097" cy="-522" rx="95.5193" ry="18"/>
<text text-anchor="middle" x="95.5097" y="-517.8" font-family="Times,serif" font-size="14.00">subjectsource (utility)</text>
</g>
<!-- datasink (io) -->
<g id="node3" class="node"><title>datasink (io)</title>
<ellipse fill="none" stroke="black" cx="67.5097" cy="-18" rx="59.6486" ry="18"/>
<text text-anchor="middle" x="67.5097" y="-13.8" font-family="Times,serif" font-size="14.00">datasink (io)</text>
</g>
<!-- subjectsource (utility)&#45;&gt;datasink (io) -->
<g id="edge3" class="edge"><title>subjectsource (utility)&#45;&gt;datasink (io)</title>
<path fill="none" stroke="black" d="M81.5128,-503.824C62.1391,-478.257 29.5097,-427.934 29.5097,-379 29.5097,-379 29.5097,-379 29.5097,-161 29.5097,-119.633 44.7444,-73.7216 55.9213,-45.6051"/>
<polygon fill="black" stroke="black" points="59.2661,-46.6733 59.8198,-36.0929 52.7889,-44.0187 59.2661,-46.6733"/>
</g>
<!-- datasource (io) -->
<g id="node9" class="node"><title>datasource (io)</title>
<ellipse fill="none" stroke="black" cx="161.51" cy="-450" rx="68.8581" ry="18"/>
<text text-anchor="middle" x="161.51" y="-445.8" font-family="Times,serif" font-size="14.00">datasource (io)</text>
</g>
<!-- subjectsource (utility)&#45;&gt;datasource (io) -->
<g id="edge2" class="edge"><title>subjectsource (utility)&#45;&gt;datasource (io)</title>
<path fill="none" stroke="black" d="M111.486,-504.055C119.674,-495.371 129.788,-484.644 138.774,-475.114"/>
<polygon fill="black" stroke="black" points="141.366,-477.466 145.68,-467.789 136.273,-472.664 141.366,-477.466"/>
</g>
<!-- warpreport (anatwarp) -->
<g id="node4" class="node"><title>warpreport (anatwarp)</title>
<ellipse fill="none" stroke="black" cx="193.51" cy="-90" rx="97.7512" ry="18"/>
<text text-anchor="middle" x="193.51" y="-85.8" font-family="Times,serif" font-size="14.00">warpreport (anatwarp)</text>
</g>
<!-- warpreport (anatwarp)&#45;&gt;datasink (io) -->
<g id="edge4" class="edge"><title>warpreport (anatwarp)&#45;&gt;datasink (io)</title>
<path fill="none" stroke="black" d="M164.286,-72.7646C146.211,-62.7232 122.87,-49.756 103.64,-39.0724"/>
<polygon fill="black" stroke="black" points="105.291,-35.9859 94.8498,-34.189 101.892,-42.105 105.291,-35.9859"/>
</g>
<!-- convertaseg (freesurfer) -->
<g id="node5" class="node"><title>convertaseg (freesurfer)</title>
<ellipse fill="none" stroke="black" cx="161.51" cy="-378" rx="103.527" ry="18"/>
<text text-anchor="middle" x="161.51" y="-373.8" font-family="Times,serif" font-size="14.00">convertaseg (freesurfer)</text>
</g>
<!-- convertaseg (freesurfer)&#45;&gt;makemask (freesurfer) -->
<g id="edge5" class="edge"><title>convertaseg (freesurfer)&#45;&gt;makemask (freesurfer)</title>
<path fill="none" stroke="black" d="M160.768,-359.697C160.437,-351.983 160.04,-342.712 159.672,-334.112"/>
<polygon fill="black" stroke="black" points="163.168,-333.945 159.243,-324.104 156.174,-334.245 163.168,-333.945"/>
</g>
<!-- convertbrain (freesurfer) -->
<g id="node6" class="node"><title>convertbrain (freesurfer)</title>
<ellipse fill="none" stroke="black" cx="381.51" cy="-306" rx="106.396" ry="18"/>
<text text-anchor="middle" x="381.51" y="-301.8" font-family="Times,serif" font-size="14.00">convertbrain (freesurfer)</text>
</g>
<!-- convertbrain (freesurfer)&#45;&gt;skullstrip (fsl) -->
<g id="edge6" class="edge"><title>convertbrain (freesurfer)&#45;&gt;skullstrip (fsl)</title>
<path fill="none" stroke="black" d="M336.522,-289.638C303.696,-278.43 259.236,-263.248 225.511,-251.732"/>
<polygon fill="black" stroke="black" points="226.454,-248.356 215.859,-248.437 224.192,-254.98 226.454,-248.356"/>
</g>
<!-- antswarp (anatwarp) -->
<g id="node8" class="node"><title>antswarp (anatwarp)</title>
<ellipse fill="none" stroke="black" cx="176.51" cy="-162" rx="90.2462" ry="18"/>
<text text-anchor="middle" x="176.51" y="-157.8" font-family="Times,serif" font-size="14.00">antswarp (anatwarp)</text>
</g>
<!-- skullstrip (fsl)&#45;&gt;antswarp (anatwarp) -->
<g id="edge7" class="edge"><title>skullstrip (fsl)&#45;&gt;antswarp (anatwarp)</title>
<path fill="none" stroke="black" d="M176.51,-215.697C176.51,-207.983 176.51,-198.712 176.51,-190.112"/>
<polygon fill="black" stroke="black" points="180.01,-190.104 176.51,-180.104 173.01,-190.104 180.01,-190.104"/>
</g>
<!-- antswarp (anatwarp)&#45;&gt;datasink (io) -->
<g id="edge9" class="edge"><title>antswarp (anatwarp)&#45;&gt;datasink (io)</title>
<path fill="none" stroke="black" d="M135.773,-145.873C118.101,-137.331 98.7015,-124.918 86.5097,-108 73.554,-90.0224 69.0913,-65.0294 67.7042,-46.1041"/>
<polygon fill="black" stroke="black" points="71.1959,-45.8458 67.2087,-36.0298 64.2043,-46.1897 71.1959,-45.8458"/>
</g>
<!-- antswarp (anatwarp)&#45;&gt;warpreport (anatwarp) -->
<g id="edge8" class="edge"><title>antswarp (anatwarp)&#45;&gt;warpreport (anatwarp)</title>
<path fill="none" stroke="black" d="M180.712,-143.697C182.606,-135.898 184.886,-126.509 186.994,-117.829"/>
<polygon fill="black" stroke="black" points="190.397,-118.648 189.356,-108.104 183.595,-116.996 190.397,-118.648"/>
</g>
<!-- datasource (io)&#45;&gt;convertaseg (freesurfer) -->
<g id="edge11" class="edge"><title>datasource (io)&#45;&gt;convertaseg (freesurfer)</title>
<path fill="none" stroke="black" d="M161.51,-431.697C161.51,-423.983 161.51,-414.712 161.51,-406.112"/>
<polygon fill="black" stroke="black" points="165.01,-406.104 161.51,-396.104 158.01,-406.104 165.01,-406.104"/>
</g>
<!-- datasource (io)&#45;&gt;convertbrain (freesurfer) -->
<g id="edge10" class="edge"><title>datasource (io)&#45;&gt;convertbrain (freesurfer)</title>
<path fill="none" stroke="black" d="M198.114,-434.65C220.86,-425.058 250.279,-411.401 274.51,-396 304.707,-376.807 335.771,-350.039 356.596,-330.881"/>
<polygon fill="black" stroke="black" points="359.115,-333.317 364.052,-323.943 354.347,-328.192 359.115,-333.317"/>
</g>
</g>
</svg>
