<?xml version="1.0" encoding="UTF-8" standalone="no"?>
<!DOCTYPE svg PUBLIC "-//W3C//DTD SVG 1.1//EN"
 "http://www.w3.org/Graphics/SVG/1.1/DTD/svg11.dtd">
<!-- Generated by graphviz version 2.38.0 (20140413.2041)
 -->
<!-- Title: structs Pages: 1 -->
<svg width="939pt" height="1260pt"
 viewBox="0.00 0.00 938.97 1259.60" xmlns="http://www.w3.org/2000/svg" xmlns:xlink="http://www.w3.org/1999/xlink">
<g id="graph0" class="graph" transform="scale(1 1) rotate(0) translate(4 1255.6)">
<title>structs</title>
<polygon fill="white" stroke="none" points="-4,4 -4,-1255.6 934.966,-1255.6 934.966,4 -4,4"/>
<!-- fslwarpsubjectsource -->
<g id="node1" class="node"><title>fslwarpsubjectsource</title>
<polygon fill="none" stroke="black" points="0,-1176.7 0,-1251.1 196.502,-1251.1 196.502,-1176.7 0,-1176.7"/>
<text text-anchor="middle" x="15.3836" y="-1210" font-family="Times,serif" font-size="14.00">IN</text>
<polyline fill="none" stroke="black" points="30.7672,-1176.7 30.7672,-1251.1 "/>
<text text-anchor="middle" x="76.8619" y="-1234.5" font-family="Times,serif" font-size="14.00">subjectsource</text>
<polyline fill="none" stroke="black" points="30.7672,-1226.3 122.957,-1226.3 "/>
<text text-anchor="middle" x="76.8619" y="-1209.7" font-family="Times,serif" font-size="14.00">utility</text>
<polyline fill="none" stroke="black" points="30.7672,-1201.5 122.957,-1201.5 "/>
<text text-anchor="middle" x="76.8619" y="-1184.9" font-family="Times,serif" font-size="14.00"> </text>
<polyline fill="none" stroke="black" points="122.957,-1176.7 122.957,-1251.1 "/>
<text text-anchor="middle" x="159.729" y="-1228.5" font-family="Times,serif" font-size="14.00">OUT</text>
<polyline fill="none" stroke="black" points="122.957,-1214.3 196.502,-1214.3 "/>
<text text-anchor="middle" x="159.729" y="-1191.7" font-family="Times,serif" font-size="14.00">subject_id</text>
</g>
<!-- fslwarpdatasource -->
<g id="node2" class="node"><title>fslwarpdatasource</title>
<polygon fill="none" stroke="black" points="210.168,-1065.3 210.168,-1139.7 404.334,-1139.7 404.334,-1065.3 210.168,-1065.3"/>
<text text-anchor="middle" x="246.941" y="-1117.1" font-family="Times,serif" font-size="14.00">IN</text>
<polyline fill="none" stroke="black" points="210.168,-1102.9 283.714,-1102.9 "/>
<text text-anchor="middle" x="246.941" y="-1080.3" font-family="Times,serif" font-size="14.00">subject_id</text>
<polyline fill="none" stroke="black" points="283.714,-1065.3 283.714,-1139.7 "/>
<text text-anchor="middle" x="321.641" y="-1123.1" font-family="Times,serif" font-size="14.00">datasource</text>
<polyline fill="none" stroke="black" points="283.714,-1114.9 359.568,-1114.9 "/>
<text text-anchor="middle" x="321.641" y="-1098.3" font-family="Times,serif" font-size="14.00">io</text>
<polyline fill="none" stroke="black" points="283.714,-1090.1 359.568,-1090.1 "/>
<text text-anchor="middle" x="321.641" y="-1073.5" font-family="Times,serif" font-size="14.00"> </text>
<polyline fill="none" stroke="black" points="359.568,-1065.3 359.568,-1139.7 "/>
<text text-anchor="middle" x="381.951" y="-1123.1" font-family="Times,serif" font-size="14.00">OUT</text>
<polyline fill="none" stroke="black" points="359.568,-1114.9 404.334,-1114.9 "/>
<text text-anchor="middle" x="381.951" y="-1098.3" font-family="Times,serif" font-size="14.00">aseg</text>
<polyline fill="none" stroke="black" points="359.568,-1090.1 404.334,-1090.1 "/>
<text text-anchor="middle" x="381.951" y="-1073.5" font-family="Times,serif" font-size="14.00">head</text>
</g>
<!-- fslwarpsubjectsource&#45;&gt;fslwarpdatasource -->
<g id="edge19" class="edge"><title>fslwarpsubjectsource:outsubjectid:e&#45;&gt;fslwarpdatasource:insubjectid:w</title>
<path fill="none" stroke="black" d="M197.251,-1195.9C218.357,-1195.9 194.414,-1115.86 201.794,-1091.47"/>
<polygon fill="black" stroke="black" points="204.334,-1093.88 209.251,-1084.5 199.555,-1088.77 204.334,-1093.88"/>
</g>
<!-- fslwarpdatasink -->
<g id="node12" class="node"><title>fslwarpdatasink</title>
<polygon fill="none" stroke="black" points="602.985,-0.5 602.985,-248.5 897.518,-248.5 897.518,-0.5 602.985,-0.5"/>
<text text-anchor="middle" x="696.541" y="-231.9" font-family="Times,serif" font-size="14.00">IN</text>
<polyline fill="none" stroke="black" points="602.985,-223.7 790.097,-223.7 "/>
<text text-anchor="middle" x="696.541" y="-207.1" font-family="Times,serif" font-size="14.00">container</text>
<polyline fill="none" stroke="black" points="602.985,-198.9 790.097,-198.9 "/>
<text text-anchor="middle" x="696.541" y="-182.3" font-family="Times,serif" font-size="14.00">normalization.@affine</text>
<polyline fill="none" stroke="black" points="602.985,-174.1 790.097,-174.1 "/>
<text text-anchor="middle" x="696.541" y="-157.5" font-family="Times,serif" font-size="14.00">normalization.@brain</text>
<polyline fill="none" stroke="black" points="602.985,-149.3 790.097,-149.3 "/>
<text text-anchor="middle" x="696.541" y="-132.7" font-family="Times,serif" font-size="14.00">normalization.@brain_flirted</text>
<polyline fill="none" stroke="black" points="602.985,-124.5 790.097,-124.5 "/>
<text text-anchor="middle" x="696.541" y="-107.9" font-family="Times,serif" font-size="14.00">normalization.@brain_hires</text>
<polyline fill="none" stroke="black" points="602.985,-99.7 790.097,-99.7 "/>
<text text-anchor="middle" x="696.541" y="-83.1" font-family="Times,serif" font-size="14.00">normalization.@brain_warped</text>
<polyline fill="none" stroke="black" points="602.985,-74.9 790.097,-74.9 "/>
<text text-anchor="middle" x="696.541" y="-58.3" font-family="Times,serif" font-size="14.00">normalization.@report</text>
<polyline fill="none" stroke="black" points="602.985,-50.1 790.097,-50.1 "/>
<text text-anchor="middle" x="696.541" y="-33.5" font-family="Times,serif" font-size="14.00">normalization.@t1</text>
<polyline fill="none" stroke="black" points="602.985,-25.3 790.097,-25.3 "/>
<text text-anchor="middle" x="696.541" y="-8.7" font-family="Times,serif" font-size="14.00">normalization.@warpfield</text>
<polyline fill="none" stroke="black" points="790.097,-0.5 790.097,-248.5 "/>
<text text-anchor="middle" x="821.424" y="-203.4" font-family="Times,serif" font-size="14.00">datasink</text>
<polyline fill="none" stroke="black" points="790.097,-166.7 852.752,-166.7 "/>
<text text-anchor="middle" x="821.424" y="-121.1" font-family="Times,serif" font-size="14.00">io</text>
<polyline fill="none" stroke="black" points="790.097,-83.9 852.752,-83.9 "/>
<text text-anchor="middle" x="821.424" y="-38.3" font-family="Times,serif" font-size="14.00"> </text>
<polyline fill="none" stroke="black" points="852.752,-0.5 852.752,-248.5 "/>
<text text-anchor="middle" x="875.135" y="-120.4" font-family="Times,serif" font-size="14.00">OUT</text>
</g>
<!-- fslwarpsubjectsource&#45;&gt;fslwarpdatasink -->
<g id="edge18" class="edge"><title>fslwarpsubjectsource:outsubjectid:e&#45;&gt;fslwarpdatasink:incontainer:w</title>
<path fill="none" stroke="black" d="M197.251,-1195.9C208.604,-1195.9 182.251,-1003.45 182.251,-992.1 182.251,-992.1 182.251,-992.1 182.251,-433.1 182.251,-364.434 175.429,-331.175 226.251,-285 286.926,-229.873 500.43,-212.762 592.199,-211.568"/>
<polygon fill="black" stroke="black" points="592.275,-215.068 602.251,-211.5 592.227,-208.068 592.275,-215.068"/>
</g>
<!-- fslwarpconverthead -->
<g id="node3" class="node"><title>fslwarpconverthead</title>
<polygon fill="none" stroke="black" points="542.999,-842.5 542.999,-916.9 739.503,-916.9 739.503,-842.5 542.999,-842.5"/>
<text text-anchor="middle" x="569.273" y="-894.3" font-family="Times,serif" font-size="14.00">IN</text>
<polyline fill="none" stroke="black" points="542.999,-880.1 595.546,-880.1 "/>
<text text-anchor="middle" x="569.273" y="-857.5" font-family="Times,serif" font-size="14.00">in_file</text>
<polyline fill="none" stroke="black" points="595.546,-842.5 595.546,-916.9 "/>
<text text-anchor="middle" x="637.751" y="-900.3" font-family="Times,serif" font-size="14.00">converthead</text>
<polyline fill="none" stroke="black" points="595.546,-892.1 679.956,-892.1 "/>
<text text-anchor="middle" x="637.751" y="-875.5" font-family="Times,serif" font-size="14.00">freesurfer</text>
<polyline fill="none" stroke="black" points="595.546,-867.3 679.956,-867.3 "/>
<text text-anchor="middle" x="637.751" y="-850.7" font-family="Times,serif" font-size="14.00"> </text>
<polyline fill="none" stroke="black" points="679.956,-842.5 679.956,-916.9 "/>
<text text-anchor="middle" x="709.729" y="-894.3" font-family="Times,serif" font-size="14.00">OUT</text>
<polyline fill="none" stroke="black" points="679.956,-880.1 739.503,-880.1 "/>
<text text-anchor="middle" x="709.729" y="-857.5" font-family="Times,serif" font-size="14.00">out_file</text>
</g>
<!-- fslwarpdatasource&#45;&gt;fslwarpconverthead -->
<g id="edge6" class="edge"><title>fslwarpdatasource:outhead:e&#45;&gt;fslwarpconverthead:ininfile:w</title>
<path fill="none" stroke="black" d="M405.251,-1077.5C515.307,-1077.5 434.084,-874.977 532.185,-862.319"/>
<polygon fill="black" stroke="black" points="532.485,-865.807 542.251,-861.7 532.055,-858.821 532.485,-865.807"/>
</g>
<!-- fslwarpconvertaseg -->
<g id="node4" class="node"><title>fslwarpconvertaseg</title>
<polygon fill="none" stroke="black" points="254.777,-953.9 254.777,-1028.3 449.725,-1028.3 449.725,-953.9 254.777,-953.9"/>
<text text-anchor="middle" x="281.05" y="-1005.7" font-family="Times,serif" font-size="14.00">IN</text>
<polyline fill="none" stroke="black" points="254.777,-991.5 307.324,-991.5 "/>
<text text-anchor="middle" x="281.05" y="-968.9" font-family="Times,serif" font-size="14.00">in_file</text>
<polyline fill="none" stroke="black" points="307.324,-953.9 307.324,-1028.3 "/>
<text text-anchor="middle" x="348.751" y="-1011.7" font-family="Times,serif" font-size="14.00">convertaseg</text>
<polyline fill="none" stroke="black" points="307.324,-1003.5 390.178,-1003.5 "/>
<text text-anchor="middle" x="348.751" y="-986.9" font-family="Times,serif" font-size="14.00">freesurfer</text>
<polyline fill="none" stroke="black" points="307.324,-978.7 390.178,-978.7 "/>
<text text-anchor="middle" x="348.751" y="-962.1" font-family="Times,serif" font-size="14.00"> </text>
<polyline fill="none" stroke="black" points="390.178,-953.9 390.178,-1028.3 "/>
<text text-anchor="middle" x="419.952" y="-1005.7" font-family="Times,serif" font-size="14.00">OUT</text>
<polyline fill="none" stroke="black" points="390.178,-991.5 449.725,-991.5 "/>
<text text-anchor="middle" x="419.952" y="-968.9" font-family="Times,serif" font-size="14.00">out_file</text>
</g>
<!-- fslwarpdatasource&#45;&gt;fslwarpconvertaseg -->
<g id="edge5" class="edge"><title>fslwarpdatasource:outaseg:e&#45;&gt;fslwarpconvertaseg:ininfile:w</title>
<path fill="none" stroke="black" d="M405.251,-1102.5C422.013,-1102.5 414.792,-1077.83 404.251,-1064.8 361.406,-1011.83 297.869,-1081.95 255.251,-1028.8 242.425,-1012.8 233.176,-985.103 244.438,-976.053"/>
<polygon fill="black" stroke="black" points="245.684,-979.333 254.251,-973.1 243.667,-972.63 245.684,-979.333"/>
</g>
<!-- fslwarpskullstrip -->
<g id="node6" class="node"><title>fslwarpskullstrip</title>
<polygon fill="none" stroke="black" points="456.818,-731.1 456.818,-805.5 655.684,-805.5 655.684,-731.1 456.818,-731.1"/>
<text text-anchor="middle" x="492.421" y="-788.9" font-family="Times,serif" font-size="14.00">IN</text>
<polyline fill="none" stroke="black" points="456.818,-780.7 528.025,-780.7 "/>
<text text-anchor="middle" x="492.421" y="-764.1" font-family="Times,serif" font-size="14.00">in_file</text>
<polyline fill="none" stroke="black" points="456.818,-755.9 528.025,-755.9 "/>
<text text-anchor="middle" x="492.421" y="-739.3" font-family="Times,serif" font-size="14.00">mask_file</text>
<polyline fill="none" stroke="black" points="528.025,-731.1 528.025,-805.5 "/>
<text text-anchor="middle" x="562.081" y="-788.9" font-family="Times,serif" font-size="14.00">skullstrip</text>
<polyline fill="none" stroke="black" points="528.025,-780.7 596.137,-780.7 "/>
<text text-anchor="middle" x="562.081" y="-764.1" font-family="Times,serif" font-size="14.00">fsl</text>
<polyline fill="none" stroke="black" points="528.025,-755.9 596.137,-755.9 "/>
<text text-anchor="middle" x="562.081" y="-739.3" font-family="Times,serif" font-size="14.00"> </text>
<polyline fill="none" stroke="black" points="596.137,-731.1 596.137,-805.5 "/>
<text text-anchor="middle" x="625.91" y="-782.9" font-family="Times,serif" font-size="14.00">OUT</text>
<polyline fill="none" stroke="black" points="596.137,-768.7 655.684,-768.7 "/>
<text text-anchor="middle" x="625.91" y="-746.1" font-family="Times,serif" font-size="14.00">out_file</text>
</g>
<!-- fslwarpconverthead&#45;&gt;fslwarpskullstrip -->
<g id="edge4" class="edge"><title>fslwarpconverthead:outoutfile:e&#45;&gt;fslwarpskullstrip:ininfile:w</title>
<path fill="none" stroke="black" d="M740.251,-861.7C749.018,-861.7 745.209,-848.431 739.251,-842 653.378,-749.316 541.996,-899.716 457.251,-806 449.083,-796.967 443.408,-781.159 447.344,-773.189"/>
<polygon fill="black" stroke="black" points="449.169,-776.18 456.251,-768.3 445.801,-770.043 449.169,-776.18"/>
</g>
<!-- fslwarpfnirt -->
<g id="node8" class="node"><title>fslwarpfnirt</title>
<polygon fill="none" stroke="black" points="468.02,-508.3 468.02,-582.7 678.483,-582.7 678.483,-508.3 468.02,-508.3"/>
<text text-anchor="middle" x="505.168" y="-566.1" font-family="Times,serif" font-size="14.00">IN</text>
<polyline fill="none" stroke="black" points="468.02,-557.9 542.317,-557.9 "/>
<text text-anchor="middle" x="505.168" y="-541.3" font-family="Times,serif" font-size="14.00">affine_file</text>
<polyline fill="none" stroke="black" points="468.02,-533.1 542.317,-533.1 "/>
<text text-anchor="middle" x="505.168" y="-516.5" font-family="Times,serif" font-size="14.00">in_file</text>
<polyline fill="none" stroke="black" points="542.317,-508.3 542.317,-582.7 "/>
<text text-anchor="middle" x="562.368" y="-566.1" font-family="Times,serif" font-size="14.00">fnirt</text>
<polyline fill="none" stroke="black" points="542.317,-557.9 582.419,-557.9 "/>
<text text-anchor="middle" x="562.368" y="-541.3" font-family="Times,serif" font-size="14.00">fsl</text>
<polyline fill="none" stroke="black" points="542.317,-533.1 582.419,-533.1 "/>
<text text-anchor="middle" x="562.368" y="-516.5" font-family="Times,serif" font-size="14.00"> </text>
<polyline fill="none" stroke="black" points="582.419,-508.3 582.419,-582.7 "/>
<text text-anchor="middle" x="630.451" y="-560.1" font-family="Times,serif" font-size="14.00">OUT</text>
<polyline fill="none" stroke="black" points="582.419,-545.9 678.483,-545.9 "/>
<text text-anchor="middle" x="630.451" y="-523.3" font-family="Times,serif" font-size="14.00">fieldcoeff_file</text>
</g>
<!-- fslwarpconverthead&#45;&gt;fslwarpfnirt -->
<g id="edge3" class="edge"><title>fslwarpconverthead:outoutfile:e&#45;&gt;fslwarpfnirt:ininfile:w</title>
<path fill="none" stroke="black" d="M740.251,-861.7C754.641,-861.7 743.419,-837.814 664.251,-730.6 626.442,-679.396 626.446,-655.628 574.251,-619.2 533.451,-590.725 497.55,-623.412 468.251,-583.2 465.206,-579.021 462.292,-546.507 463.841,-530.02"/>
<polygon fill="black" stroke="black" points="467.173,-531.095 467.251,-520.5 460.584,-528.734 467.173,-531.095"/>
</g>
<!-- fslwarpconverthead&#45;&gt;fslwarpdatasink -->
<g id="edge2" class="edge"><title>fslwarpconverthead:outoutfile:e&#45;&gt;fslwarpdatasink:innormalizationt1:w</title>
<path fill="none" stroke="black" d="M740.251,-861.7C862.582,-861.7 925.251,-780.231 925.251,-657.9 925.251,-657.9 925.251,-657.9 925.251,-433.1 925.251,-366.347 948.54,-331.089 900.251,-285 804.065,-193.195 691.669,-348.309 603.251,-249 543.185,-181.536 510.834,-48.4301 591.809,-38.1341"/>
<polygon fill="black" stroke="black" points="592.482,-41.5998 602.251,-37.5 592.057,-34.6127 592.482,-41.5998"/>
</g>
<!-- fslwarpmakemask -->
<g id="node5" class="node"><title>fslwarpmakemask</title>
<polygon fill="none" stroke="black" points="262.332,-842.5 262.332,-916.9 468.171,-916.9 468.171,-842.5 262.332,-842.5"/>
<text text-anchor="middle" x="288.605" y="-894.3" font-family="Times,serif" font-size="14.00">IN</text>
<polyline fill="none" stroke="black" points="262.332,-880.1 314.879,-880.1 "/>
<text text-anchor="middle" x="288.605" y="-857.5" font-family="Times,serif" font-size="14.00">in_file</text>
<polyline fill="none" stroke="black" points="314.879,-842.5 314.879,-916.9 "/>
<text text-anchor="middle" x="352.813" y="-900.3" font-family="Times,serif" font-size="14.00">makemask</text>
<polyline fill="none" stroke="black" points="314.879,-892.1 390.748,-892.1 "/>
<text text-anchor="middle" x="352.813" y="-875.5" font-family="Times,serif" font-size="14.00">freesurfer</text>
<polyline fill="none" stroke="black" points="314.879,-867.3 390.748,-867.3 "/>
<text text-anchor="middle" x="352.813" y="-850.7" font-family="Times,serif" font-size="14.00"> </text>
<polyline fill="none" stroke="black" points="390.748,-842.5 390.748,-916.9 "/>
<text text-anchor="middle" x="429.459" y="-894.3" font-family="Times,serif" font-size="14.00">OUT</text>
<polyline fill="none" stroke="black" points="390.748,-880.1 468.171,-880.1 "/>
<text text-anchor="middle" x="429.459" y="-857.5" font-family="Times,serif" font-size="14.00">binary_file</text>
</g>
<!-- fslwarpconvertaseg&#45;&gt;fslwarpmakemask -->
<g id="edge1" class="edge"><title>fslwarpconvertaseg:outoutfile:e&#45;&gt;fslwarpmakemask:ininfile:w</title>
<path fill="none" stroke="black" d="M450.251,-973.1C459.018,-973.1 455.003,-960.016 449.251,-953.4 393.719,-889.528 316.729,-982.173 262.251,-917.4 249.053,-901.708 240.049,-873.807 251.405,-864.68"/>
<polygon fill="black" stroke="black" points="252.694,-867.947 261.251,-861.7 250.666,-861.247 252.694,-867.947"/>
</g>
<!-- fslwarpmakemask&#45;&gt;fslwarpskullstrip -->
<g id="edge13" class="edge"><title>fslwarpmakemask:outbinaryfile:e&#45;&gt;fslwarpskullstrip:inmaskfile:w</title>
<path fill="none" stroke="black" d="M469.251,-861.7C478.018,-861.7 469.766,-850.635 468.251,-842 461.333,-802.555 420.806,-753.543 446.158,-744.7"/>
<polygon fill="black" stroke="black" points="446.827,-748.141 456.251,-743.3 445.865,-741.207 446.827,-748.141"/>
</g>
<!-- fslwarpflirt -->
<g id="node7" class="node"><title>fslwarpflirt</title>
<polygon fill="none" stroke="black" points="247.934,-619.7 247.934,-694.1 440.568,-694.1 440.568,-619.7 247.934,-619.7"/>
<text text-anchor="middle" x="274.208" y="-671.5" font-family="Times,serif" font-size="14.00">IN</text>
<polyline fill="none" stroke="black" points="247.934,-657.3 300.481,-657.3 "/>
<text text-anchor="middle" x="274.208" y="-634.7" font-family="Times,serif" font-size="14.00">in_file</text>
<polyline fill="none" stroke="black" points="300.481,-619.7 300.481,-694.1 "/>
<text text-anchor="middle" x="318.978" y="-677.5" font-family="Times,serif" font-size="14.00">flirt</text>
<polyline fill="none" stroke="black" points="300.481,-669.3 337.474,-669.3 "/>
<text text-anchor="middle" x="318.978" y="-652.7" font-family="Times,serif" font-size="14.00">fsl</text>
<polyline fill="none" stroke="black" points="300.481,-644.5 337.474,-644.5 "/>
<text text-anchor="middle" x="318.978" y="-627.9" font-family="Times,serif" font-size="14.00"> </text>
<polyline fill="none" stroke="black" points="337.474,-619.7 337.474,-694.1 "/>
<text text-anchor="middle" x="389.021" y="-677.5" font-family="Times,serif" font-size="14.00">OUT</text>
<polyline fill="none" stroke="black" points="337.474,-669.3 440.568,-669.3 "/>
<text text-anchor="middle" x="389.021" y="-652.7" font-family="Times,serif" font-size="14.00">out_file</text>
<polyline fill="none" stroke="black" points="337.474,-644.5 440.568,-644.5 "/>
<text text-anchor="middle" x="389.021" y="-627.9" font-family="Times,serif" font-size="14.00">out_matrix_file</text>
</g>
<!-- fslwarpskullstrip&#45;&gt;fslwarpflirt -->
<g id="edge15" class="edge"><title>fslwarpskullstrip:outoutfile:e&#45;&gt;fslwarpflirt:ininfile:w</title>
<path fill="none" stroke="black" d="M656.251,-750.3C665.018,-750.3 661.333,-736.914 655.251,-730.6 592.263,-665.204 310.16,-761.019 248.251,-694.6 241.986,-687.879 237.651,-660.452 240.893,-646.758"/>
<polygon fill="black" stroke="black" points="243.681,-648.875 247.251,-638.9 238.24,-644.472 243.681,-648.875"/>
</g>
<!-- fslwarpwarpbrainhr -->
<g id="node9" class="node"><title>fslwarpwarpbrainhr</title>
<polygon fill="none" stroke="black" points="430.617,-396.9 430.617,-471.3 641.885,-471.3 641.885,-396.9 430.617,-396.9"/>
<text text-anchor="middle" x="464.273" y="-454.7" font-family="Times,serif" font-size="14.00">IN</text>
<polyline fill="none" stroke="black" points="430.617,-446.5 497.93,-446.5 "/>
<text text-anchor="middle" x="464.273" y="-429.9" font-family="Times,serif" font-size="14.00">field_file</text>
<polyline fill="none" stroke="black" points="430.617,-421.7 497.93,-421.7 "/>
<text text-anchor="middle" x="464.273" y="-405.1" font-family="Times,serif" font-size="14.00">in_file</text>
<polyline fill="none" stroke="black" points="497.93,-396.9 497.93,-471.3 "/>
<text text-anchor="middle" x="540.134" y="-454.7" font-family="Times,serif" font-size="14.00">warpbrainhr</text>
<polyline fill="none" stroke="black" points="497.93,-446.5 582.338,-446.5 "/>
<text text-anchor="middle" x="540.134" y="-429.9" font-family="Times,serif" font-size="14.00">fsl</text>
<polyline fill="none" stroke="black" points="497.93,-421.7 582.338,-421.7 "/>
<text text-anchor="middle" x="540.134" y="-405.1" font-family="Times,serif" font-size="14.00"> </text>
<polyline fill="none" stroke="black" points="582.338,-396.9 582.338,-471.3 "/>
<text text-anchor="middle" x="612.112" y="-448.7" font-family="Times,serif" font-size="14.00">OUT</text>
<polyline fill="none" stroke="black" points="582.338,-434.5 641.885,-434.5 "/>
<text text-anchor="middle" x="612.112" y="-411.9" font-family="Times,serif" font-size="14.00">out_file</text>
</g>
<!-- fslwarpskullstrip&#45;&gt;fslwarpwarpbrainhr -->
<g id="edge17" class="edge"><title>fslwarpskullstrip:outoutfile:e&#45;&gt;fslwarpwarpbrainhr:ininfile:w</title>
<path fill="none" stroke="black" d="M656.251,-750.3C665.018,-750.3 659.364,-738.342 655.251,-730.6 604.113,-634.345 519.922,-673.749 459.251,-583.2 449.904,-569.25 420.229,-451.756 424.135,-418.085"/>
<polygon fill="black" stroke="black" points="427.345,-419.522 429.251,-409.1 421.262,-416.058 427.345,-419.522"/>
</g>
<!-- fslwarpwarpbrain -->
<g id="node10" class="node"><title>fslwarpwarpbrain</title>
<polygon fill="none" stroke="black" points="659.447,-396.9 659.447,-471.3 859.055,-471.3 859.055,-396.9 659.447,-396.9"/>
<text text-anchor="middle" x="693.104" y="-454.7" font-family="Times,serif" font-size="14.00">IN</text>
<polyline fill="none" stroke="black" points="659.447,-446.5 726.76,-446.5 "/>
<text text-anchor="middle" x="693.104" y="-429.9" font-family="Times,serif" font-size="14.00">field_file</text>
<polyline fill="none" stroke="black" points="659.447,-421.7 726.76,-421.7 "/>
<text text-anchor="middle" x="693.104" y="-405.1" font-family="Times,serif" font-size="14.00">in_file</text>
<polyline fill="none" stroke="black" points="726.76,-396.9 726.76,-471.3 "/>
<text text-anchor="middle" x="763.134" y="-454.7" font-family="Times,serif" font-size="14.00">warpbrain</text>
<polyline fill="none" stroke="black" points="726.76,-446.5 799.508,-446.5 "/>
<text text-anchor="middle" x="763.134" y="-429.9" font-family="Times,serif" font-size="14.00">fsl</text>
<polyline fill="none" stroke="black" points="726.76,-421.7 799.508,-421.7 "/>
<text text-anchor="middle" x="763.134" y="-405.1" font-family="Times,serif" font-size="14.00"> </text>
<polyline fill="none" stroke="black" points="799.508,-396.9 799.508,-471.3 "/>
<text text-anchor="middle" x="829.281" y="-448.7" font-family="Times,serif" font-size="14.00">OUT</text>
<polyline fill="none" stroke="black" points="799.508,-434.5 859.055,-434.5 "/>
<text text-anchor="middle" x="829.281" y="-411.9" font-family="Times,serif" font-size="14.00">out_file</text>
</g>
<!-- fslwarpskullstrip&#45;&gt;fslwarpwarpbrain -->
<g id="edge16" class="edge"><title>fslwarpskullstrip:outoutfile:e&#45;&gt;fslwarpwarpbrain:ininfile:w</title>
<path fill="none" stroke="black" d="M656.251,-750.3C764.906,-750.3 722.514,-610.574 687.251,-507.8 680.673,-488.627 665.982,-490.92 659.251,-471.8 657.543,-466.948 654.014,-435.085 655.088,-418.739"/>
<polygon fill="black" stroke="black" points="658.459,-419.693 658.251,-409.1 651.808,-417.51 658.459,-419.693"/>
</g>
<!-- fslwarpskullstrip&#45;&gt;fslwarpdatasink -->
<g id="edge14" class="edge"><title>fslwarpskullstrip:outoutfile:e&#45;&gt;fslwarpdatasink:innormalizationbrain:w</title>
<path fill="none" stroke="black" d="M656.251,-750.3C660.635,-750.3 658.295,-733.754 655.251,-730.6 590.817,-663.83 306.203,-758.845 239.251,-694.6 191.368,-648.653 220.251,-612.862 220.251,-546.5 220.251,-546.5 220.251,-546.5 220.251,-433.1 220.251,-228.14 388.383,-163.577 592.209,-161.55"/>
<polygon fill="black" stroke="black" points="592.269,-165.049 602.251,-161.5 592.234,-158.05 592.269,-165.049"/>
</g>
<!-- fslwarpflirt&#45;&gt;fslwarpfnirt -->
<g id="edge9" class="edge"><title>fslwarpflirt:outoutmatrixfile:e&#45;&gt;fslwarpfnirt:inaffinefile:w</title>
<path fill="none" stroke="black" d="M441.251,-631.9C477.123,-631.9 437.534,-562.764 457.489,-548.181"/>
<polygon fill="black" stroke="black" points="458.535,-551.523 467.251,-545.5 456.681,-544.773 458.535,-551.523"/>
</g>
<!-- fslwarpflirt&#45;&gt;fslwarpdatasink -->
<g id="edge7" class="edge"><title>fslwarpflirt:outoutfile:e&#45;&gt;fslwarpdatasink:innormalizationbrainflirted:w</title>
<path fill="none" stroke="black" d="M441.251,-656.9C454.243,-656.9 432.381,-584.013 432.251,-583.2 419.121,-501.077 396.344,-475.749 421.251,-396.4 462.379,-265.377 461.556,-142.638 592.194,-136.723"/>
<polygon fill="black" stroke="black" points="592.331,-140.221 602.251,-136.5 592.176,-133.223 592.331,-140.221"/>
</g>
<!-- fslwarpflirt&#45;&gt;fslwarpdatasink -->
<g id="edge8" class="edge"><title>fslwarpflirt:outoutmatrixfile:e&#45;&gt;fslwarpdatasink:innormalizationaffine:w</title>
<path fill="none" stroke="black" d="M441.251,-631.9C446.913,-631.9 442.298,-624.479 440.251,-619.2 432.925,-600.301 419.428,-602.157 412.251,-583.2 365.26,-459.073 350.096,-392.273 428.251,-285 478.536,-215.982 510.794,-188.653 592.089,-186.623"/>
<polygon fill="black" stroke="black" points="592.294,-190.121 602.251,-186.5 592.209,-183.122 592.294,-190.121"/>
</g>
<!-- fslwarpfnirt&#45;&gt;fslwarpwarpbrainhr -->
<g id="edge12" class="edge"><title>fslwarpfnirt:outfieldcoefffile:e&#45;&gt;fslwarpwarpbrainhr:infieldfile:w</title>
<path fill="none" stroke="black" d="M679.251,-527.5C688.018,-527.5 684.154,-514.282 678.251,-507.8 603.259,-425.452 504.241,-555.049 430.251,-471.8 422.161,-462.697 416.451,-446.92 420.362,-438.973"/>
<polygon fill="black" stroke="black" points="422.165,-441.976 429.251,-434.1 418.8,-435.838 422.165,-441.976"/>
</g>
<!-- fslwarpfnirt&#45;&gt;fslwarpwarpbrain -->
<g id="edge11" class="edge"><title>fslwarpfnirt:outfieldcoefffile:e&#45;&gt;fslwarpwarpbrain:infieldfile:w</title>
<path fill="none" stroke="black" d="M679.251,-527.5C688.018,-527.5 680.574,-516.253 678.251,-507.8 673.457,-490.355 663.833,-489.302 659.251,-471.8 657.908,-466.67 654.508,-452.935 654.316,-443.541"/>
<polygon fill="black" stroke="black" points="657.635,-444.677 658.251,-434.1 651.173,-441.984 657.635,-444.677"/>
</g>
<!-- fslwarpfnirt&#45;&gt;fslwarpdatasink -->
<g id="edge10" class="edge"><title>fslwarpfnirt:outfieldcoefffile:e&#45;&gt;fslwarpdatasink:innormalizationwarpfield:w</title>
<path fill="none" stroke="black" d="M679.251,-527.5C723.037,-527.5 842.029,-506.866 868.251,-471.8 917.971,-405.313 922.863,-347.532 868.251,-285 790.066,-195.475 681.625,-338.359 603.251,-249 536.243,-172.6 499.619,-22.8709 592.246,-13.0122"/>
<polygon fill="black" stroke="black" points="592.443,-16.5068 602.251,-12.5 592.085,-9.51595 592.443,-16.5068"/>
</g>
<!-- fslwarpwarpbrainhr&#45;&gt;fslwarpdatasink -->
<g id="edge22" class="edge"><title>fslwarpwarpbrainhr:outoutfile:e&#45;&gt;fslwarpdatasink:innormalizationbrainhires:w</title>
<path fill="none" stroke="black" d="M643.251,-416.1C652.018,-416.1 645.082,-404.697 642.251,-396.4 635.96,-377.964 624.223,-378.589 617.251,-360.4 579.021,-260.653 497.359,-121.791 592.183,-112.945"/>
<polygon fill="black" stroke="black" points="592.415,-116.438 602.251,-112.5 592.106,-109.445 592.415,-116.438"/>
</g>
<!-- fslwarpwarpreport -->
<g id="node11" class="node"><title>fslwarpwarpreport</title>
<polygon fill="none" stroke="black" points="669.5,-285.5 669.5,-359.9 859.002,-359.9 859.002,-285.5 669.5,-285.5"/>
<text text-anchor="middle" x="695.774" y="-337.3" font-family="Times,serif" font-size="14.00">IN</text>
<polyline fill="none" stroke="black" points="669.5,-323.1 722.047,-323.1 "/>
<text text-anchor="middle" x="695.774" y="-300.5" font-family="Times,serif" font-size="14.00">in_file</text>
<polyline fill="none" stroke="black" points="722.047,-285.5 722.047,-359.9 "/>
<text text-anchor="middle" x="760.751" y="-343.3" font-family="Times,serif" font-size="14.00">warpreport</text>
<polyline fill="none" stroke="black" points="722.047,-335.1 799.455,-335.1 "/>
<text text-anchor="middle" x="760.751" y="-318.5" font-family="Times,serif" font-size="14.00">anatwarp</text>
<polyline fill="none" stroke="black" points="722.047,-310.3 799.455,-310.3 "/>
<text text-anchor="middle" x="760.751" y="-293.7" font-family="Times,serif" font-size="14.00"> </text>
<polyline fill="none" stroke="black" points="799.455,-285.5 799.455,-359.9 "/>
<text text-anchor="middle" x="829.229" y="-337.3" font-family="Times,serif" font-size="14.00">OUT</text>
<polyline fill="none" stroke="black" points="799.455,-323.1 859.002,-323.1 "/>
<text text-anchor="middle" x="829.229" y="-300.5" font-family="Times,serif" font-size="14.00">out_file</text>
</g>
<!-- fslwarpwarpbrain&#45;&gt;fslwarpwarpreport -->
<g id="edge21" class="edge"><title>fslwarpwarpbrain:outoutfile:e&#45;&gt;fslwarpwarpreport:ininfile:w</title>
<path fill="none" stroke="black" d="M860.251,-416.1C869.018,-416.1 865.013,-403.008 859.251,-396.4 802.765,-331.622 724.669,-426.094 669.251,-360.4 663.327,-353.377 658.826,-326.097 661.961,-312.497"/>
<polygon fill="black" stroke="black" points="664.696,-314.681 668.251,-304.7 659.248,-310.285 664.696,-314.681"/>
</g>
<!-- fslwarpwarpbrain&#45;&gt;fslwarpdatasink -->
<g id="edge20" class="edge"><title>fslwarpwarpbrain:outoutfile:e&#45;&gt;fslwarpdatasink:innormalizationbrainwarped:w</title>
<path fill="none" stroke="black" d="M860.251,-416.1C869.018,-416.1 865.04,-402.984 859.251,-396.4 799.9,-328.903 732.429,-413.961 660.251,-360.4 649.086,-352.114 606.55,-262.507 603.251,-249 587.117,-182.948 536.244,-97.1177 591.935,-88.2489"/>
<polygon fill="black" stroke="black" points="592.531,-91.715 602.251,-87.5 592.024,-84.7333 592.531,-91.715"/>
</g>
<!-- fslwarpwarpreport&#45;&gt;fslwarpdatasink -->
<g id="edge23" class="edge"><title>fslwarpwarpreport:outoutfile:e&#45;&gt;fslwarpdatasink:innormalizationreport:w</title>
<path fill="none" stroke="black" d="M860.251,-304.7C869.018,-304.7 865.168,-291.469 859.251,-285 781.701,-200.222 678.859,-335.515 603.251,-249 551.049,-189.268 521.929,-73.0498 592.181,-63.1726"/>
<polygon fill="black" stroke="black" points="592.507,-66.6587 602.251,-62.5 592.04,-59.6743 592.507,-66.6587"/>
</g>
</g>
</svg>
