<?xml version="1.0" encoding="UTF-8" standalone="no"?>
<!DOCTYPE svg PUBLIC "-//W3C//DTD SVG 1.1//EN"
 "http://www.w3.org/Graphics/SVG/1.1/DTD/svg11.dtd">
<!-- Generated by graphviz version 2.38.0 (20140413.2041)
 -->
<!-- Pages: 1 -->
<svg width="513pt" height="692pt"
 viewBox="0.00 0.00 512.51 692.00" xmlns="http://www.w3.org/2000/svg" xmlns:xlink="http://www.w3.org/1999/xlink">
<g id="graph0" class="graph" transform="scale(1 1) rotate(0) translate(4 688)">
<polygon fill="white" stroke="none" points="-4,4 -4,-688 508.51,-688 508.51,4 -4,4"/>
<!-- warpbrainhr (fsl) -->
<g id="node1" class="node"><title>warpbrainhr (fsl)</title>
<ellipse fill="none" stroke="black" cx="181" cy="-162" rx="76.9429" ry="18"/>
<text text-anchor="middle" x="181" y="-157.8" font-family="Times,serif" font-size="14.00">warpbrainhr (fsl)</text>
</g>
<!-- datasink (io) -->
<g id="node7" class="node"><title>datasink (io)</title>
<ellipse fill="none" stroke="black" cx="170" cy="-18" rx="59.6486" ry="18"/>
<text text-anchor="middle" x="170" y="-13.8" font-family="Times,serif" font-size="14.00">datasink (io)</text>
</g>
<!-- warpbrainhr (fsl)&#45;&gt;datasink (io) -->
<g id="edge1" class="edge"><title>warpbrainhr (fsl)&#45;&gt;datasink (io)</title>
<path fill="none" stroke="black" d="M178.808,-143.839C177.546,-133.475 176.015,-119.995 175,-108 173.249,-87.3123 171.96,-63.8655 171.13,-46.2329"/>
<polygon fill="black" stroke="black" points="174.619,-45.9142 170.672,-36.082 167.626,-46.2296 174.619,-45.9142"/>
</g>
<!-- warpbrain (fsl) -->
<g id="node2" class="node"><title>warpbrain (fsl)</title>
<ellipse fill="none" stroke="black" cx="344" cy="-162" rx="68.8562" ry="18"/>
<text text-anchor="middle" x="344" y="-157.8" font-family="Times,serif" font-size="14.00">warpbrain (fsl)</text>
</g>
<!-- warpbrain (fsl)&#45;&gt;datasink (io) -->
<g id="edge3" class="edge"><title>warpbrain (fsl)&#45;&gt;datasink (io)</title>
<path fill="none" stroke="black" d="M290.482,-150.601C262.922,-142.873 230.48,-129.773 208,-108 190.712,-91.2553 180.873,-65.3817 175.56,-45.8394"/>
<polygon fill="black" stroke="black" points="178.925,-44.867 173.117,-36.0059 172.131,-46.5548 178.925,-44.867"/>
</g>
<!-- warpreport (anatwarp) -->
<g id="node9" class="node"><title>warpreport (anatwarp)</title>
<ellipse fill="none" stroke="black" cx="315" cy="-90" rx="97.7512" ry="18"/>
<text text-anchor="middle" x="315" y="-85.8" font-family="Times,serif" font-size="14.00">warpreport (anatwarp)</text>
</g>
<!-- warpbrain (fsl)&#45;&gt;warpreport (anatwarp) -->
<g id="edge2" class="edge"><title>warpbrain (fsl)&#45;&gt;warpreport (anatwarp)</title>
<path fill="none" stroke="black" d="M336.98,-144.055C333.716,-136.176 329.755,-126.617 326.1,-117.794"/>
<polygon fill="black" stroke="black" points="329.218,-116.174 322.157,-108.275 322.751,-118.853 329.218,-116.174"/>
</g>
<!-- makemask (freesurfer) -->
<g id="node3" class="node"><title>makemask (freesurfer)</title>
<ellipse fill="none" stroke="black" cx="339" cy="-450" rx="98.8914" ry="18"/>
<text text-anchor="middle" x="339" y="-445.8" font-family="Times,serif" font-size="14.00">makemask (freesurfer)</text>
</g>
<!-- skullstrip (fsl) -->
<g id="node12" class="node"><title>skullstrip (fsl)</title>
<ellipse fill="none" stroke="black" cx="308" cy="-378" rx="65.4609" ry="18"/>
<text text-anchor="middle" x="308" y="-373.8" font-family="Times,serif" font-size="14.00">skullstrip (fsl)</text>
</g>
<!-- makemask (freesurfer)&#45;&gt;skullstrip (fsl) -->
<g id="edge4" class="edge"><title>makemask (freesurfer)&#45;&gt;skullstrip (fsl)</title>
<path fill="none" stroke="black" d="M331.337,-431.697C327.808,-423.728 323.544,-414.1 319.631,-405.264"/>
<polygon fill="black" stroke="black" points="322.824,-403.831 315.575,-396.104 316.424,-406.665 322.824,-403.831"/>
</g>
<!-- fnirt (fsl) -->
<g id="node4" class="node"><title>fnirt (fsl)</title>
<ellipse fill="none" stroke="black" cx="181" cy="-234" rx="46.3201" ry="18"/>
<text text-anchor="middle" x="181" y="-229.8" font-family="Times,serif" font-size="14.00">fnirt (fsl)</text>
</g>
<!-- fnirt (fsl)&#45;&gt;warpbrainhr (fsl) -->
<g id="edge5" class="edge"><title>fnirt (fsl)&#45;&gt;warpbrainhr (fsl)</title>
<path fill="none" stroke="black" d="M181,-215.697C181,-207.983 181,-198.712 181,-190.112"/>
<polygon fill="black" stroke="black" points="184.5,-190.104 181,-180.104 177.5,-190.104 184.5,-190.104"/>
</g>
<!-- fnirt (fsl)&#45;&gt;warpbrain (fsl) -->
<g id="edge6" class="edge"><title>fnirt (fsl)&#45;&gt;warpbrain (fsl)</title>
<path fill="none" stroke="black" d="M210.897,-220.161C235.999,-209.381 272.196,-193.836 300.508,-181.677"/>
<polygon fill="black" stroke="black" points="301.973,-184.858 309.78,-177.696 299.211,-178.426 301.973,-184.858"/>
</g>
<!-- fnirt (fsl)&#45;&gt;datasink (io) -->
<g id="edge7" class="edge"><title>fnirt (fsl)&#45;&gt;datasink (io)</title>
<path fill="none" stroke="black" d="M147.086,-221.588C128.119,-213.263 106.115,-199.907 95,-180 68.5574,-132.643 113.861,-74.3546 144.8,-42.5144"/>
<polygon fill="black" stroke="black" points="147.33,-44.9346 151.92,-35.3858 142.377,-39.9879 147.33,-44.9346"/>
</g>
<!-- subjectsource (utility) -->
<g id="node5" class="node"><title>subjectsource (utility)</title>
<ellipse fill="none" stroke="black" cx="409" cy="-666" rx="95.5193" ry="18"/>
<text text-anchor="middle" x="409" y="-661.8" font-family="Times,serif" font-size="14.00">subjectsource (utility)</text>
</g>
<!-- subjectsource (utility)&#45;&gt;datasink (io) -->
<g id="edge8" class="edge"><title>subjectsource (utility)&#45;&gt;datasink (io)</title>
<path fill="none" stroke="black" d="M423.845,-647.967C444.393,-622.578 479,-572.474 479,-523 479,-523 479,-523 479,-161 479,-118.813 478.192,-99.2654 446,-72 415.17,-45.8888 308.729,-31.3809 237.403,-24.3909"/>
<polygon fill="black" stroke="black" points="237.434,-20.8782 227.147,-23.4137 236.77,-27.8466 237.434,-20.8782"/>
</g>
<!-- datasource (io) -->
<g id="node11" class="node"><title>datasource (io)</title>
<ellipse fill="none" stroke="black" cx="339" cy="-594" rx="68.8581" ry="18"/>
<text text-anchor="middle" x="339" y="-589.8" font-family="Times,serif" font-size="14.00">datasource (io)</text>
</g>
<!-- subjectsource (utility)&#45;&gt;datasource (io) -->
<g id="edge9" class="edge"><title>subjectsource (utility)&#45;&gt;datasource (io)</title>
<path fill="none" stroke="black" d="M392.055,-648.055C383.371,-639.371 372.644,-628.644 363.114,-619.114"/>
<polygon fill="black" stroke="black" points="365.335,-616.385 355.789,-611.789 360.385,-621.335 365.335,-616.385"/>
</g>
<!-- flirt (fsl) -->
<g id="node6" class="node"><title>flirt (fsl)</title>
<ellipse fill="none" stroke="black" cx="190" cy="-306" rx="44.03" ry="18"/>
<text text-anchor="middle" x="190" y="-301.8" font-family="Times,serif" font-size="14.00">flirt (fsl)</text>
</g>
<!-- flirt (fsl)&#45;&gt;fnirt (fsl) -->
<g id="edge10" class="edge"><title>flirt (fsl)&#45;&gt;fnirt (fsl)</title>
<path fill="none" stroke="black" d="M187.775,-287.697C186.783,-279.983 185.592,-270.712 184.486,-262.112"/>
<polygon fill="black" stroke="black" points="187.946,-261.576 183.199,-252.104 181.003,-262.469 187.946,-261.576"/>
</g>
<!-- flirt (fsl)&#45;&gt;datasink (io) -->
<g id="edge11" class="edge"><title>flirt (fsl)&#45;&gt;datasink (io)</title>
<path fill="none" stroke="black" d="M168.471,-290.184C155.203,-280.364 138.414,-266.63 126,-252 102.032,-223.752 93.6684,-215.763 84,-180 71.4082,-133.424 69.633,-113.042 95,-72 103.458,-58.3157 116.899,-47.1852 130.082,-38.7212"/>
<polygon fill="black" stroke="black" points="131.903,-41.7104 138.653,-33.5441 128.284,-35.7187 131.903,-41.7104"/>
</g>
<!-- convertaseg (freesurfer) -->
<g id="node8" class="node"><title>convertaseg (freesurfer)</title>
<ellipse fill="none" stroke="black" cx="339" cy="-522" rx="103.527" ry="18"/>
<text text-anchor="middle" x="339" y="-517.8" font-family="Times,serif" font-size="14.00">convertaseg (freesurfer)</text>
</g>
<!-- convertaseg (freesurfer)&#45;&gt;makemask (freesurfer) -->
<g id="edge12" class="edge"><title>convertaseg (freesurfer)&#45;&gt;makemask (freesurfer)</title>
<path fill="none" stroke="black" d="M339,-503.697C339,-495.983 339,-486.712 339,-478.112"/>
<polygon fill="black" stroke="black" points="342.5,-478.104 339,-468.104 335.5,-478.104 342.5,-478.104"/>
</g>
<!-- warpreport (anatwarp)&#45;&gt;datasink (io) -->
<g id="edge13" class="edge"><title>warpreport (anatwarp)&#45;&gt;datasink (io)</title>
<path fill="none" stroke="black" d="M281.734,-72.9406C260.129,-62.5106 231.872,-48.8693 209.18,-37.9147"/>
<polygon fill="black" stroke="black" points="210.677,-34.7508 200.15,-33.5552 207.634,-41.0547 210.677,-34.7508"/>
</g>
<!-- converthead (freesurfer) -->
<g id="node10" class="node"><title>converthead (freesurfer)</title>
<ellipse fill="none" stroke="black" cx="118" cy="-450" rx="104.673" ry="18"/>
<text text-anchor="middle" x="118" y="-445.8" font-family="Times,serif" font-size="14.00">converthead (freesurfer)</text>
</g>
<!-- converthead (freesurfer)&#45;&gt;fnirt (fsl) -->
<g id="edge14" class="edge"><title>converthead (freesurfer)&#45;&gt;fnirt (fsl)</title>
<path fill="none" stroke="black" d="M116.914,-431.734C115.668,-401.344 116.032,-336.888 137,-288 141.62,-277.229 149.15,-266.938 156.686,-258.337"/>
<polygon fill="black" stroke="black" points="159.301,-260.665 163.525,-250.949 154.164,-255.91 159.301,-260.665"/>
</g>
<!-- converthead (freesurfer)&#45;&gt;datasink (io) -->
<g id="edge15" class="edge"><title>converthead (freesurfer)&#45;&gt;datasink (io)</title>
<path fill="none" stroke="black" d="M90.6318,-432.593C55.7734,-409.376 0,-363.415 0,-307 0,-307 0,-307 0,-161 0,-97.0549 71.7242,-56.2693 121.997,-35.5358"/>
<polygon fill="black" stroke="black" points="123.432,-38.7314 131.424,-31.7761 120.839,-32.2294 123.432,-38.7314"/>
</g>
<!-- converthead (freesurfer)&#45;&gt;skullstrip (fsl) -->
<g id="edge16" class="edge"><title>converthead (freesurfer)&#45;&gt;skullstrip (fsl)</title>
<path fill="none" stroke="black" d="M160.167,-433.465C189.96,-422.489 229.917,-407.767 260.779,-396.397"/>
<polygon fill="black" stroke="black" points="262.282,-399.574 270.455,-392.832 259.862,-393.005 262.282,-399.574"/>
</g>
<!-- datasource (io)&#45;&gt;convertaseg (freesurfer) -->
<g id="edge18" class="edge"><title>datasource (io)&#45;&gt;convertaseg (freesurfer)</title>
<path fill="none" stroke="black" d="M339,-575.697C339,-567.983 339,-558.712 339,-550.112"/>
<polygon fill="black" stroke="black" points="342.5,-550.104 339,-540.104 335.5,-550.104 342.5,-550.104"/>
</g>
<!-- datasource (io)&#45;&gt;converthead (freesurfer) -->
<g id="edge17" class="edge"><title>datasource (io)&#45;&gt;converthead (freesurfer)</title>
<path fill="none" stroke="black" d="M302.678,-578.72C279.906,-569.107 250.357,-555.404 226,-540 195.592,-520.77 164.226,-494.008 143.185,-474.861"/>
<polygon fill="black" stroke="black" points="145.378,-472.124 135.65,-467.928 140.639,-477.275 145.378,-472.124"/>
</g>
<!-- skullstrip (fsl)&#45;&gt;warpbrainhr (fsl) -->
<g id="edge19" class="edge"><title>skullstrip (fsl)&#45;&gt;warpbrainhr (fsl)</title>
<path fill="none" stroke="black" d="M302.777,-359.908C292.9,-329.234 269.433,-263.61 236,-216 228.498,-205.317 218.634,-195.014 209.332,-186.377"/>
<polygon fill="black" stroke="black" points="211.497,-183.617 201.716,-179.543 206.821,-188.827 211.497,-183.617"/>
</g>
<!-- skullstrip (fsl)&#45;&gt;warpbrain (fsl) -->
<g id="edge20" class="edge"><title>skullstrip (fsl)&#45;&gt;warpbrain (fsl)</title>
<path fill="none" stroke="black" d="M310.885,-359.849C317.126,-322.753 331.92,-234.81 339.441,-190.103"/>
<polygon fill="black" stroke="black" points="342.894,-190.675 341.101,-180.232 335.991,-189.513 342.894,-190.675"/>
</g>
<!-- skullstrip (fsl)&#45;&gt;flirt (fsl) -->
<g id="edge21" class="edge"><title>skullstrip (fsl)&#45;&gt;flirt (fsl)</title>
<path fill="none" stroke="black" d="M281.812,-361.465C264.424,-351.15 241.46,-337.527 222.849,-326.487"/>
<polygon fill="black" stroke="black" points="224.492,-323.392 214.106,-321.3 220.921,-329.412 224.492,-323.392"/>
</g>
<!-- skullstrip (fsl)&#45;&gt;datasink (io) -->
<g id="edge22" class="edge"><title>skullstrip (fsl)&#45;&gt;datasink (io)</title>
<path fill="none" stroke="black" d="M338.18,-361.858C377.42,-339.781 441,-294.786 441,-235 441,-235 441,-235 441,-161 441,-120.553 450.644,-100.557 422,-72 396.38,-46.4575 302.437,-32.0281 236.797,-24.8692"/>
<polygon fill="black" stroke="black" points="236.833,-21.3535 226.52,-23.782 236.096,-28.3147 236.833,-21.3535"/>
</g>
</g>
</svg>
