<?xml version="1.0" encoding="UTF-8" standalone="no"?>
<!DOCTYPE svg PUBLIC "-//W3C//DTD SVG 1.1//EN"
 "http://www.w3.org/Graphics/SVG/1.1/DTD/svg11.dtd">
<!-- Generated by graphviz version 2.38.0 (20140413.2041)
 -->
<!-- Title: structs Pages: 1 -->
<svg width="864pt" height="864pt"
 viewBox="0.00 0.00 864.26 864.00" xmlns="http://www.w3.org/2000/svg" xmlns:xlink="http://www.w3.org/1999/xlink">
<g id="graph0" class="graph" transform="scale(1 1) rotate(0) translate(4 860)">
<title>structs</title>
<polygon fill="white" stroke="none" points="-4,4 -4,-860 860.258,-860 860.258,4 -4,4"/>
<!-- mni_ffxinputnode -->
<g id="node1" class="node"><title>mni_ffxinputnode</title>
<polygon fill="none" stroke="black" points="115.29,-607.5 115.29,-855.5 290.809,-855.5 290.809,-607.5 115.29,-607.5"/>
<text text-anchor="middle" x="130.673" y="-727.4" font-family="Times,serif" font-size="14.00">IN</text>
<polyline fill="none" stroke="black" points="146.057,-607.5 146.057,-855.5 "/>
<text text-anchor="middle" x="182.055" y="-810.4" font-family="Times,serif" font-size="14.00">inputnode</text>
<polyline fill="none" stroke="black" points="146.057,-773.7 218.053,-773.7 "/>
<text text-anchor="middle" x="182.055" y="-728.1" font-family="Times,serif" font-size="14.00">utility</text>
<polyline fill="none" stroke="black" points="146.057,-690.9 218.053,-690.9 "/>
<text text-anchor="middle" x="182.055" y="-645.3" font-family="Times,serif" font-size="14.00"> </text>
<polyline fill="none" stroke="black" points="218.053,-607.5 218.053,-855.5 "/>
<text text-anchor="middle" x="254.431" y="-838.9" font-family="Times,serif" font-size="14.00">OUT</text>
<polyline fill="none" stroke="black" points="218.053,-830.7 290.809,-830.7 "/>
<text text-anchor="middle" x="254.431" y="-814.1" font-family="Times,serif" font-size="14.00">anatomy</text>
<polyline fill="none" stroke="black" points="218.053,-805.9 290.809,-805.9 "/>
<text text-anchor="middle" x="254.431" y="-789.3" font-family="Times,serif" font-size="14.00">copes</text>
<polyline fill="none" stroke="black" points="218.053,-781.1 290.809,-781.1 "/>
<text text-anchor="middle" x="254.431" y="-764.5" font-family="Times,serif" font-size="14.00">dofs</text>
<polyline fill="none" stroke="black" points="218.053,-756.3 290.809,-756.3 "/>
<text text-anchor="middle" x="254.431" y="-739.7" font-family="Times,serif" font-size="14.00">masks</text>
<polyline fill="none" stroke="black" points="218.053,-731.5 290.809,-731.5 "/>
<text text-anchor="middle" x="254.431" y="-714.9" font-family="Times,serif" font-size="14.00">means</text>
<polyline fill="none" stroke="black" points="218.053,-706.7 290.809,-706.7 "/>
<text text-anchor="middle" x="254.431" y="-690.1" font-family="Times,serif" font-size="14.00">reg_file</text>
<polyline fill="none" stroke="black" points="218.053,-681.9 290.809,-681.9 "/>
<text text-anchor="middle" x="254.431" y="-665.3" font-family="Times,serif" font-size="14.00">ss_files</text>
<polyline fill="none" stroke="black" points="218.053,-657.1 290.809,-657.1 "/>
<text text-anchor="middle" x="254.431" y="-640.5" font-family="Times,serif" font-size="14.00">timeseries</text>
<polyline fill="none" stroke="black" points="218.053,-632.3 290.809,-632.3 "/>
<text text-anchor="middle" x="254.431" y="-615.7" font-family="Times,serif" font-size="14.00">varcopes</text>
</g>
<!-- mni_ffxffxmodel -->
<g id="node2" class="node"><title>mni_ffxffxmodel</title>
<polygon fill="none" stroke="black" points="38.8081,-421.7 38.8081,-570.5 263.291,-570.5 263.291,-421.7 38.8081,-421.7"/>
<text text-anchor="middle" x="71.6826" y="-553.9" font-family="Times,serif" font-size="14.00">IN</text>
<polyline fill="none" stroke="black" points="38.8081,-545.7 104.557,-545.7 "/>
<text text-anchor="middle" x="71.6826" y="-529.1" font-family="Times,serif" font-size="14.00">copes</text>
<polyline fill="none" stroke="black" points="38.8081,-520.9 104.557,-520.9 "/>
<text text-anchor="middle" x="71.6826" y="-504.3" font-family="Times,serif" font-size="14.00">dofs</text>
<polyline fill="none" stroke="black" points="38.8081,-496.1 104.557,-496.1 "/>
<text text-anchor="middle" x="71.6826" y="-479.5" font-family="Times,serif" font-size="14.00">masks</text>
<polyline fill="none" stroke="black" points="38.8081,-471.3 104.557,-471.3 "/>
<text text-anchor="middle" x="71.6826" y="-454.7" font-family="Times,serif" font-size="14.00">reg_file</text>
<polyline fill="none" stroke="black" points="38.8081,-446.5 104.557,-446.5 "/>
<text text-anchor="middle" x="71.6826" y="-429.9" font-family="Times,serif" font-size="14.00">varcopes</text>
<polyline fill="none" stroke="black" points="104.557,-421.7 104.557,-570.5 "/>
<text text-anchor="middle" x="138.216" y="-541.9" font-family="Times,serif" font-size="14.00">ffxmodel</text>
<polyline fill="none" stroke="black" points="104.557,-521.7 171.874,-521.7 "/>
<text text-anchor="middle" x="138.216" y="-492.6" font-family="Times,serif" font-size="14.00">fixedfx</text>
<polyline fill="none" stroke="black" points="104.557,-471.9 171.874,-471.9 "/>
<text text-anchor="middle" x="138.216" y="-442.8" font-family="Times,serif" font-size="14.00"> </text>
<polyline fill="none" stroke="black" points="171.874,-421.7 171.874,-570.5 "/>
<text text-anchor="middle" x="217.582" y="-541.9" font-family="Times,serif" font-size="14.00">OUT</text>
<polyline fill="none" stroke="black" points="171.874,-521.7 263.291,-521.7 "/>
<text text-anchor="middle" x="217.582" y="-492.6" font-family="Times,serif" font-size="14.00">flame_results</text>
<polyline fill="none" stroke="black" points="171.874,-471.9 263.291,-471.9 "/>
<text text-anchor="middle" x="217.582" y="-442.8" font-family="Times,serif" font-size="14.00">zstat_files</text>
</g>
<!-- mni_ffxinputnode&#45;&gt;mni_ffxffxmodel -->
<g id="edge9" class="edge"><title>mni_ffxinputnode:outcopes:e&#45;&gt;mni_ffxffxmodel:incopes:w</title>
<path fill="none" stroke="black" d="M292.049,-793.5C374.939,-793.5 345.527,-669.474 291.049,-607 216.693,-521.729 114.298,-655.485 39.0494,-571 30.9066,-561.858 25.1732,-545.993 29.1095,-538.001"/>
<polygon fill="black" stroke="black" points="30.963,-540.976 38.0494,-533.1 27.598,-534.838 30.963,-540.976"/>
</g>
<!-- mni_ffxinputnode&#45;&gt;mni_ffxffxmodel -->
<g id="edge10" class="edge"><title>mni_ffxinputnode:outdofs:e&#45;&gt;mni_ffxffxmodel:indofs:w</title>
<path fill="none" stroke="black" d="M292.049,-768.5C363.829,-768.5 338.247,-661.08 291.049,-607 216.657,-521.76 113.854,-655.878 39.0494,-571 23.3072,-553.138 13.376,-520.085 28.0397,-510.666"/>
<polygon fill="black" stroke="black" points="29.2315,-513.973 38.0494,-508.1 27.4935,-507.193 29.2315,-513.973"/>
</g>
<!-- mni_ffxinputnode&#45;&gt;mni_ffxffxmodel -->
<g id="edge11" class="edge"><title>mni_ffxinputnode:outmasks:e&#45;&gt;mni_ffxffxmodel:inmasks:w</title>
<path fill="none" stroke="black" d="M292.049,-743.5C352.718,-743.5 330.967,-652.686 291.049,-607 216.609,-521.802 113.667,-656.042 39.0494,-571 16.1621,-544.916 2.41566,-495.557 27.8706,-485.8"/>
<polygon fill="black" stroke="black" points="28.7625,-489.199 38.0494,-484.1 27.6094,-482.295 28.7625,-489.199"/>
</g>
<!-- mni_ffxinputnode&#45;&gt;mni_ffxffxmodel -->
<g id="edge14" class="edge"><title>mni_ffxinputnode:outregfile:e&#45;&gt;mni_ffxffxmodel:inregfile:w</title>
<path fill="none" stroke="black" d="M292.049,-694.5C330.941,-694.5 316.699,-636.235 291.049,-607 216.435,-521.955 113.558,-656.138 39.0494,-571 8.72611,-536.351 -8.93552,-469.951 28.0729,-460.285"/>
<polygon fill="black" stroke="black" points="28.5321,-463.755 38.0494,-459.1 27.7063,-456.804 28.5321,-463.755"/>
</g>
<!-- mni_ffxinputnode&#45;&gt;mni_ffxffxmodel -->
<g id="edge18" class="edge"><title>mni_ffxinputnode:outvarcopes:e&#45;&gt;mni_ffxffxmodel:invarcopes:w</title>
<path fill="none" stroke="black" d="M292.049,-619.5C297.623,-619.5 294.866,-611.061 291.049,-607 213.57,-524.556 113.489,-656.199 39.0494,-571 1.43923,-527.954 -20.0886,-444.963 27.892,-435.071"/>
<polygon fill="black" stroke="black" points="28.428,-438.536 38.0494,-434.1 27.7615,-431.568 28.428,-438.536"/>
</g>
<!-- mni_ffxffxsummary -->
<g id="node3" class="node"><title>mni_ffxffxsummary</title>
<polygon fill="none" stroke="black" points="357.472,-446.5 357.472,-545.7 586.627,-545.7 586.627,-446.5 357.472,-446.5"/>
<text text-anchor="middle" x="393.85" y="-529.1" font-family="Times,serif" font-size="14.00">IN</text>
<polyline fill="none" stroke="black" points="357.472,-520.9 430.228,-520.9 "/>
<text text-anchor="middle" x="393.85" y="-504.3" font-family="Times,serif" font-size="14.00">means</text>
<polyline fill="none" stroke="black" points="357.472,-496.1 430.228,-496.1 "/>
<text text-anchor="middle" x="393.85" y="-479.5" font-family="Times,serif" font-size="14.00">ss_files</text>
<polyline fill="none" stroke="black" points="357.472,-471.3 430.228,-471.3 "/>
<text text-anchor="middle" x="393.85" y="-454.7" font-family="Times,serif" font-size="14.00">timeseries</text>
<polyline fill="none" stroke="black" points="430.228,-446.5 430.228,-545.7 "/>
<text text-anchor="middle" x="472.439" y="-525.1" font-family="Times,serif" font-size="14.00">ffxsummary</text>
<polyline fill="none" stroke="black" points="430.228,-512.9 514.65,-512.9 "/>
<text text-anchor="middle" x="472.439" y="-492.3" font-family="Times,serif" font-size="14.00">fixedfx</text>
<polyline fill="none" stroke="black" points="430.228,-480.1 514.65,-480.1 "/>
<text text-anchor="middle" x="472.439" y="-459.5" font-family="Times,serif" font-size="14.00"> </text>
<polyline fill="none" stroke="black" points="514.65,-446.5 514.65,-545.7 "/>
<text text-anchor="middle" x="550.638" y="-529.1" font-family="Times,serif" font-size="14.00">OUT</text>
<polyline fill="none" stroke="black" points="514.65,-520.9 586.627,-520.9 "/>
<text text-anchor="middle" x="550.638" y="-504.3" font-family="Times,serif" font-size="14.00">mean_file</text>
<polyline fill="none" stroke="black" points="514.65,-496.1 586.627,-496.1 "/>
<text text-anchor="middle" x="550.638" y="-479.5" font-family="Times,serif" font-size="14.00">r2_files</text>
<polyline fill="none" stroke="black" points="514.65,-471.3 586.627,-471.3 "/>
<text text-anchor="middle" x="550.638" y="-454.7" font-family="Times,serif" font-size="14.00">tsnr_file</text>
</g>
<!-- mni_ffxinputnode&#45;&gt;mni_ffxffxsummary -->
<g id="edge13" class="edge"><title>mni_ffxinputnode:outmeans:e&#45;&gt;mni_ffxffxsummary:inmeans:w</title>
<path fill="none" stroke="black" d="M292.049,-719.5C361.833,-719.5 324.617,-638.305 343.049,-571 345.936,-560.46 343.656,-529.189 348.835,-515.109"/>
<polygon fill="black" stroke="black" points="351.316,-517.579 356.049,-508.1 346.438,-512.558 351.316,-517.579"/>
</g>
<!-- mni_ffxinputnode&#45;&gt;mni_ffxffxsummary -->
<g id="edge15" class="edge"><title>mni_ffxinputnode:outssfiles:e&#45;&gt;mni_ffxffxsummary:inssfiles:w</title>
<path fill="none" stroke="black" d="M292.049,-669.5C341.347,-669.5 327.864,-617.901 343.049,-571 347.936,-555.907 340.574,-507.972 348.114,-490.528"/>
<polygon fill="black" stroke="black" points="350.482,-493.114 356.049,-484.1 346.076,-487.675 350.482,-493.114"/>
</g>
<!-- mni_ffxinputnode&#45;&gt;mni_ffxffxsummary -->
<g id="edge16" class="edge"><title>mni_ffxinputnode:outtimeseries:e&#45;&gt;mni_ffxffxsummary:intimeseries:w</title>
<path fill="none" stroke="black" d="M292.049,-644.5C331.81,-644.5 329.001,-608.196 343.049,-571 350.547,-551.149 336.687,-484.549 347.537,-464.718"/>
<polygon fill="black" stroke="black" points="349.631,-467.529 356.049,-459.1 345.775,-461.687 349.631,-467.529"/>
</g>
<!-- mni_ffxreport -->
<g id="node4" class="node"><title>mni_ffxreport</title>
<polygon fill="none" stroke="black" points="291.857,-235.9 291.857,-384.7 520.242,-384.7 520.242,-235.9 291.857,-235.9"/>
<text text-anchor="middle" x="328.235" y="-368.1" font-family="Times,serif" font-size="14.00">IN</text>
<polyline fill="none" stroke="black" points="291.857,-359.9 364.613,-359.9 "/>
<text text-anchor="middle" x="328.235" y="-343.3" font-family="Times,serif" font-size="14.00">anatomy</text>
<polyline fill="none" stroke="black" points="291.857,-335.1 364.613,-335.1 "/>
<text text-anchor="middle" x="328.235" y="-318.5" font-family="Times,serif" font-size="14.00">masks</text>
<polyline fill="none" stroke="black" points="291.857,-310.3 364.613,-310.3 "/>
<text text-anchor="middle" x="328.235" y="-293.7" font-family="Times,serif" font-size="14.00">r2_files</text>
<polyline fill="none" stroke="black" points="291.857,-285.5 364.613,-285.5 "/>
<text text-anchor="middle" x="328.235" y="-268.9" font-family="Times,serif" font-size="14.00">tsnr_file</text>
<polyline fill="none" stroke="black" points="291.857,-260.7 364.613,-260.7 "/>
<text text-anchor="middle" x="328.235" y="-244.1" font-family="Times,serif" font-size="14.00">zstat_files</text>
<polyline fill="none" stroke="black" points="364.613,-235.9 364.613,-384.7 "/>
<text text-anchor="middle" x="392.826" y="-356.1" font-family="Times,serif" font-size="14.00">report</text>
<polyline fill="none" stroke="black" points="364.613,-335.9 421.04,-335.9 "/>
<text text-anchor="middle" x="392.826" y="-306.8" font-family="Times,serif" font-size="14.00">fixedfx</text>
<polyline fill="none" stroke="black" points="364.613,-286.1 421.04,-286.1 "/>
<text text-anchor="middle" x="392.826" y="-257" font-family="Times,serif" font-size="14.00"> </text>
<polyline fill="none" stroke="black" points="421.04,-235.9 421.04,-384.7 "/>
<text text-anchor="middle" x="470.641" y="-356.1" font-family="Times,serif" font-size="14.00">OUT</text>
<polyline fill="none" stroke="black" points="421.04,-335.9 520.242,-335.9 "/>
<text text-anchor="middle" x="470.641" y="-306.8" font-family="Times,serif" font-size="14.00">summary_files</text>
<polyline fill="none" stroke="black" points="421.04,-286.1 520.242,-286.1 "/>
<text text-anchor="middle" x="470.641" y="-257" font-family="Times,serif" font-size="14.00">zstat_files</text>
</g>
<!-- mni_ffxinputnode&#45;&gt;mni_ffxreport -->
<g id="edge8" class="edge"><title>mni_ffxinputnode:outanatomy:e&#45;&gt;mni_ffxreport:inanatomy:w</title>
<path fill="none" stroke="black" d="M292.049,-818.5C316.08,-818.5 273.09,-421.435 286.125,-356.292"/>
<polygon fill="black" stroke="black" points="289.316,-357.752 291.049,-347.3 283.176,-354.39 289.316,-357.752"/>
</g>
<!-- mni_ffxinputnode&#45;&gt;mni_ffxreport -->
<g id="edge12" class="edge"><title>mni_ffxinputnode:outmasks:e&#45;&gt;mni_ffxreport:inmasks:w</title>
<path fill="none" stroke="black" d="M292.049,-743.5C435.35,-743.5 318.558,-563.427 301.049,-421.2 299.034,-404.831 294.194,-401.552 292.049,-385.2 289.009,-362.026 270.816,-333.642 281.26,-324.952"/>
<polygon fill="black" stroke="black" points="282.313,-328.293 291.049,-322.3 280.482,-321.537 282.313,-328.293"/>
</g>
<!-- mni_ffxsaveparams -->
<g id="node5" class="node"><title>mni_ffxsaveparams</title>
<polygon fill="none" stroke="black" points="651.631,-273.1 651.631,-347.5 850.468,-347.5 850.468,-273.1 651.631,-273.1"/>
<text text-anchor="middle" x="677.904" y="-324.9" font-family="Times,serif" font-size="14.00">IN</text>
<polyline fill="none" stroke="black" points="651.631,-310.7 704.178,-310.7 "/>
<text text-anchor="middle" x="677.904" y="-288.1" font-family="Times,serif" font-size="14.00">in_file</text>
<polyline fill="none" stroke="black" points="704.178,-273.1 704.178,-347.5 "/>
<text text-anchor="middle" x="744.827" y="-330.9" font-family="Times,serif" font-size="14.00">saveparams</text>
<polyline fill="none" stroke="black" points="704.178,-322.7 785.476,-322.7 "/>
<text text-anchor="middle" x="744.827" y="-306.1" font-family="Times,serif" font-size="14.00">fileutils</text>
<polyline fill="none" stroke="black" points="704.178,-297.9 785.476,-297.9 "/>
<text text-anchor="middle" x="744.827" y="-281.3" font-family="Times,serif" font-size="14.00"> </text>
<polyline fill="none" stroke="black" points="785.476,-273.1 785.476,-347.5 "/>
<text text-anchor="middle" x="817.972" y="-324.9" font-family="Times,serif" font-size="14.00">OUT</text>
<polyline fill="none" stroke="black" points="785.476,-310.7 850.468,-310.7 "/>
<text text-anchor="middle" x="817.972" y="-288.1" font-family="Times,serif" font-size="14.00">json_file</text>
</g>
<!-- mni_ffxinputnode&#45;&gt;mni_ffxsaveparams -->
<g id="edge17" class="edge"><title>mni_ffxinputnode:outtimeseries:e&#45;&gt;mni_ffxsaveparams:ininfile:w</title>
<path fill="none" stroke="black" d="M292.049,-644.5C361.551,-644.5 547.956,-621.176 596.049,-571 637.172,-528.096 593.665,-318.976 641.094,-294.616"/>
<polygon fill="black" stroke="black" points="642.103,-297.975 651.049,-292.3 640.516,-291.158 642.103,-297.975"/>
</g>
<!-- mni_ffxffxmodel&#45;&gt;mni_ffxreport -->
<g id="edge2" class="edge"><title>mni_ffxffxmodel:outzstatfiles:e&#45;&gt;mni_ffxreport:inzstatfiles:w</title>
<path fill="none" stroke="black" d="M264.049,-447.1C278.105,-447.1 274.887,-399.088 277.049,-385.2 279.025,-372.511 276.772,-284.575 285.057,-256.733"/>
<polygon fill="black" stroke="black" points="288.11,-258.479 291.049,-248.3 282.404,-254.425 288.11,-258.479"/>
</g>
<!-- mni_ffxoutputs -->
<g id="node6" class="node"><title>mni_ffxoutputs</title>
<polygon fill="none" stroke="black" points="547.79,-0.5 547.79,-198.9 758.309,-198.9 758.309,-0.5 547.79,-0.5"/>
<text text-anchor="middle" x="602.054" y="-182.3" font-family="Times,serif" font-size="14.00">IN</text>
<polyline fill="none" stroke="black" points="547.79,-174.1 656.317,-174.1 "/>
<text text-anchor="middle" x="602.054" y="-157.5" font-family="Times,serif" font-size="14.00">flame_results</text>
<polyline fill="none" stroke="black" points="547.79,-149.3 656.317,-149.3 "/>
<text text-anchor="middle" x="602.054" y="-132.7" font-family="Times,serif" font-size="14.00">json_file</text>
<polyline fill="none" stroke="black" points="547.79,-124.5 656.317,-124.5 "/>
<text text-anchor="middle" x="602.054" y="-107.9" font-family="Times,serif" font-size="14.00">mean_file</text>
<polyline fill="none" stroke="black" points="547.79,-99.7 656.317,-99.7 "/>
<text text-anchor="middle" x="602.054" y="-83.1" font-family="Times,serif" font-size="14.00">r2_files</text>
<polyline fill="none" stroke="black" points="547.79,-74.9 656.317,-74.9 "/>
<text text-anchor="middle" x="602.054" y="-58.3" font-family="Times,serif" font-size="14.00">summary_report</text>
<polyline fill="none" stroke="black" points="547.79,-50.1 656.317,-50.1 "/>
<text text-anchor="middle" x="602.054" y="-33.5" font-family="Times,serif" font-size="14.00">tsnr_file</text>
<polyline fill="none" stroke="black" points="547.79,-25.3 656.317,-25.3 "/>
<text text-anchor="middle" x="602.054" y="-8.7" font-family="Times,serif" font-size="14.00">zstat_report</text>
<polyline fill="none" stroke="black" points="656.317,-0.5 656.317,-198.9 "/>
<text text-anchor="middle" x="684.93" y="-161.8" font-family="Times,serif" font-size="14.00">outputs</text>
<polyline fill="none" stroke="black" points="656.317,-133.1 713.543,-133.1 "/>
<text text-anchor="middle" x="684.93" y="-96" font-family="Times,serif" font-size="14.00">utility</text>
<polyline fill="none" stroke="black" points="656.317,-67.3 713.543,-67.3 "/>
<text text-anchor="middle" x="684.93" y="-29.7" font-family="Times,serif" font-size="14.00"> </text>
<polyline fill="none" stroke="black" points="713.543,-0.5 713.543,-198.9 "/>
<text text-anchor="middle" x="735.926" y="-95.8" font-family="Times,serif" font-size="14.00">OUT</text>
</g>
<!-- mni_ffxffxmodel&#45;&gt;mni_ffxoutputs -->
<g id="edge1" class="edge"><title>mni_ffxffxmodel:outflameresults:e&#45;&gt;mni_ffxoutputs:inflameresults:w</title>
<path fill="none" stroke="black" d="M264.049,-497.1C293.204,-497.1 264.593,-257.968 283.049,-235.4 319.652,-190.645 469.754,-164.45 536.999,-161.905"/>
<polygon fill="black" stroke="black" points="537.123,-165.403 547.049,-161.7 536.98,-158.404 537.123,-165.403"/>
</g>
<!-- mni_ffxffxsummary&#45;&gt;mni_ffxreport -->
<g id="edge5" class="edge"><title>mni_ffxffxsummary:outr2files:e&#45;&gt;mni_ffxreport:inr2files:w</title>
<path fill="none" stroke="black" d="M588.049,-484.1C604.989,-484.1 597.922,-458.99 587.049,-446 501.129,-343.345 377.211,-488.485 292.049,-385.2 281.971,-372.977 274.759,-322.331 283.153,-304.525"/>
<polygon fill="black" stroke="black" points="285.363,-307.24 291.049,-298.3 281.029,-301.742 285.363,-307.24"/>
</g>
<!-- mni_ffxffxsummary&#45;&gt;mni_ffxreport -->
<g id="edge7" class="edge"><title>mni_ffxffxsummary:outtsnrfile:e&#45;&gt;mni_ffxreport:intsnrfile:w</title>
<path fill="none" stroke="black" d="M588.049,-459.1C593.889,-459.1 590.908,-450.383 587.049,-446 498.592,-345.523 377.079,-488.594 292.049,-385.2 285.571,-377.322 280.681,-307.07 285.997,-282.077"/>
<polygon fill="black" stroke="black" points="289.094,-283.713 291.049,-273.3 283.027,-280.221 289.094,-283.713"/>
</g>
<!-- mni_ffxffxsummary&#45;&gt;mni_ffxoutputs -->
<g id="edge3" class="edge"><title>mni_ffxffxsummary:outmeanfile:e&#45;&gt;mni_ffxoutputs:inmeanfile:w</title>
<path fill="none" stroke="black" d="M588.049,-508.1C615.653,-508.1 590.6,-473.374 587.049,-446 583.469,-418.399 577.174,-412.557 572.049,-385.2 556.719,-303.36 553.867,-282.46 548.049,-199.4 545.613,-164.616 515.544,-121.886 537.13,-113.26"/>
<polygon fill="black" stroke="black" points="537.715,-116.711 547.049,-111.7 536.627,-109.796 537.715,-116.711"/>
</g>
<!-- mni_ffxffxsummary&#45;&gt;mni_ffxoutputs -->
<g id="edge4" class="edge"><title>mni_ffxffxsummary:outr2files:e&#45;&gt;mni_ffxoutputs:inr2files:w</title>
<path fill="none" stroke="black" d="M588.049,-484.1C604.989,-484.1 587.874,-462.919 587.049,-446 582.484,-352.274 602.417,-324.187 572.049,-235.4 565.826,-217.205 553.704,-217.779 548.049,-199.4 534.591,-155.656 502.904,-97.6363 536.931,-88.8378"/>
<polygon fill="black" stroke="black" points="537.503,-92.2956 547.049,-87.7 536.721,-85.3395 537.503,-92.2956"/>
</g>
<!-- mni_ffxffxsummary&#45;&gt;mni_ffxoutputs -->
<g id="edge6" class="edge"><title>mni_ffxffxsummary:outtsnrfile:e&#45;&gt;mni_ffxoutputs:intsnrfile:w</title>
<path fill="none" stroke="black" d="M588.049,-459.1C621.002,-459.1 592.715,-418.125 594.049,-385.2 596.745,-318.677 623.211,-295.252 594.049,-235.4 582.678,-212.062 559.492,-222.703 548.049,-199.4 517.98,-138.166 479.34,-47.4866 536.959,-38.4349"/>
<polygon fill="black" stroke="black" points="537.33,-41.9172 547.049,-37.7 536.822,-34.9357 537.33,-41.9172"/>
</g>
<!-- mni_ffxreport&#45;&gt;mni_ffxoutputs -->
<g id="edge19" class="edge"><title>mni_ffxreport:outsummaryfiles:e&#45;&gt;mni_ffxoutputs:insummaryreport:w</title>
<path fill="none" stroke="black" d="M521.049,-311.3C533.336,-311.3 533.364,-116.693 542.825,-71.8426"/>
<polygon fill="black" stroke="black" points="546.032,-73.2459 547.049,-62.7 539.677,-70.3095 546.032,-73.2459"/>
</g>
<!-- mni_ffxreport&#45;&gt;mni_ffxoutputs -->
<g id="edge20" class="edge"><title>mni_ffxreport:outzstatfiles:e&#45;&gt;mni_ffxoutputs:inzstatreport:w</title>
<path fill="none" stroke="black" d="M521.049,-261.3C545.947,-261.3 524.779,-61.5041 540.14,-20.1401"/>
<polygon fill="black" stroke="black" points="542.809,-22.4093 547.049,-12.7 537.68,-17.6459 542.809,-22.4093"/>
</g>
<!-- mni_ffxsaveparams&#45;&gt;mni_ffxoutputs -->
<g id="edge21" class="edge"><title>mni_ffxsaveparams:outjsonfile:e&#45;&gt;mni_ffxoutputs:injsonfile:w</title>
<path fill="none" stroke="black" d="M851.049,-292.3C859.816,-292.3 855.642,-279.351 850.049,-272.6 805.995,-219.424 591.173,-253.334 548.049,-199.4 533.228,-180.863 522.714,-148.43 537.129,-139.209"/>
<polygon fill="black" stroke="black" points="538.213,-142.545 547.049,-136.7 536.496,-135.759 538.213,-142.545"/>
</g>
</g>
</svg>
