<?xml version="1.0" encoding="UTF-8" standalone="no"?>
<!DOCTYPE svg PUBLIC "-//W3C//DTD SVG 1.1//EN"
 "http://www.w3.org/Graphics/SVG/1.1/DTD/svg11.dtd">
<!-- Generated by graphviz version 2.38.0 (20140413.2041)
 -->
<!-- Pages: 1 -->
<svg width="542pt" height="260pt"
 viewBox="0.00 0.00 542.39 260.00" xmlns="http://www.w3.org/2000/svg" xmlns:xlink="http://www.w3.org/1999/xlink">
<g id="graph0" class="graph" transform="scale(1 1) rotate(0) translate(4 256)">
<polygon fill="white" stroke="none" points="-4,4 -4,-256 538.388,-256 538.388,4 -4,4"/>
<!-- ffxmodel (fixedfx) -->
<g id="node1" class="node"><title>ffxmodel (fixedfx)</title>
<ellipse fill="none" stroke="black" cx="205.426" cy="-162" rx="83.3268" ry="18"/>
<text text-anchor="middle" x="205.426" y="-157.8" font-family="Times,serif" font-size="14.00">ffxmodel (fixedfx)</text>
</g>
<!-- outputs (utility) -->
<g id="node3" class="node"><title>outputs (utility)</title>
<ellipse fill="none" stroke="black" cx="265.426" cy="-18" rx="71.285" ry="18"/>
<text text-anchor="middle" x="265.426" y="-13.8" font-family="Times,serif" font-size="14.00">outputs (utility)</text>
</g>
<!-- ffxmodel (fixedfx)&#45;&gt;outputs (utility) -->
<g id="edge2" class="edge"><title>ffxmodel (fixedfx)&#45;&gt;outputs (utility)</title>
<path fill="none" stroke="black" d="M210.135,-143.905C215.388,-125.713 224.586,-96.2671 235.426,-72 239.48,-62.9254 244.601,-53.3691 249.46,-44.9084"/>
<polygon fill="black" stroke="black" points="252.51,-46.6258 254.566,-36.2323 246.477,-43.0754 252.51,-46.6258"/>
</g>
<!-- report (fixedfx) -->
<g id="node6" class="node"><title>report (fixedfx)</title>
<ellipse fill="none" stroke="black" cx="315.426" cy="-90" rx="70.6457" ry="18"/>
<text text-anchor="middle" x="315.426" y="-85.8" font-family="Times,serif" font-size="14.00">report (fixedfx)</text>
</g>
<!-- ffxmodel (fixedfx)&#45;&gt;report (fixedfx) -->
<g id="edge1" class="edge"><title>ffxmodel (fixedfx)&#45;&gt;report (fixedfx)</title>
<path fill="none" stroke="black" d="M230.939,-144.765C246.04,-135.155 265.352,-122.865 281.7,-112.462"/>
<polygon fill="black" stroke="black" points="283.874,-115.228 290.431,-106.906 280.115,-109.322 283.874,-115.228"/>
</g>
<!-- saveparams (fileutils) -->
<g id="node2" class="node"><title>saveparams (fileutils)</title>
<ellipse fill="none" stroke="black" cx="94.4262" cy="-90" rx="94.3524" ry="18"/>
<text text-anchor="middle" x="94.4262" y="-85.8" font-family="Times,serif" font-size="14.00">saveparams (fileutils)</text>
</g>
<!-- saveparams (fileutils)&#45;&gt;outputs (utility) -->
<g id="edge3" class="edge"><title>saveparams (fileutils)&#45;&gt;outputs (utility)</title>
<path fill="none" stroke="black" d="M132.377,-73.4647C158.342,-62.8358 192.885,-48.6952 220.267,-37.4862"/>
<polygon fill="black" stroke="black" points="221.699,-40.6819 229.628,-33.6543 219.047,-34.2037 221.699,-40.6819"/>
</g>
<!-- ffxsummary (fixedfx) -->
<g id="node4" class="node"><title>ffxsummary (fixedfx)</title>
<ellipse fill="none" stroke="black" cx="439.426" cy="-162" rx="94.9242" ry="18"/>
<text text-anchor="middle" x="439.426" y="-157.8" font-family="Times,serif" font-size="14.00">ffxsummary (fixedfx)</text>
</g>
<!-- ffxsummary (fixedfx)&#45;&gt;outputs (utility) -->
<g id="edge5" class="edge"><title>ffxsummary (fixedfx)&#45;&gt;outputs (utility)</title>
<path fill="none" stroke="black" d="M434.918,-143.673C428.95,-123.89 416.626,-91.7255 395.426,-72 376.215,-54.1246 350.168,-41.9103 326.434,-33.7571"/>
<polygon fill="black" stroke="black" points="327.372,-30.3817 316.78,-30.6142 325.205,-37.0379 327.372,-30.3817"/>
</g>
<!-- ffxsummary (fixedfx)&#45;&gt;report (fixedfx) -->
<g id="edge4" class="edge"><title>ffxsummary (fixedfx)&#45;&gt;report (fixedfx)</title>
<path fill="none" stroke="black" d="M410.666,-144.765C393.205,-134.907 370.75,-122.231 352.029,-111.663"/>
<polygon fill="black" stroke="black" points="353.606,-108.534 343.177,-106.666 350.165,-114.63 353.606,-108.534"/>
</g>
<!-- inputnode (utility) -->
<g id="node5" class="node"><title>inputnode (utility)</title>
<ellipse fill="none" stroke="black" cx="260.426" cy="-234" rx="81.6611" ry="18"/>
<text text-anchor="middle" x="260.426" y="-229.8" font-family="Times,serif" font-size="14.00">inputnode (utility)</text>
</g>
<!-- inputnode (utility)&#45;&gt;ffxmodel (fixedfx) -->
<g id="edge6" class="edge"><title>inputnode (utility)&#45;&gt;ffxmodel (fixedfx)</title>
<path fill="none" stroke="black" d="M247.112,-216.055C240.424,-207.543 232.194,-197.068 224.819,-187.681"/>
<polygon fill="black" stroke="black" points="227.548,-185.49 218.618,-179.789 222.044,-189.815 227.548,-185.49"/>
</g>
<!-- inputnode (utility)&#45;&gt;saveparams (fileutils) -->
<g id="edge7" class="edge"><title>inputnode (utility)&#45;&gt;saveparams (fileutils)</title>
<path fill="none" stroke="black" d="M193.31,-223.581C164.861,-216.245 133.673,-203.199 113.426,-180 98.7001,-163.126 94.4567,-137.652 93.6021,-118.275"/>
<polygon fill="black" stroke="black" points="97.1009,-118.169 93.431,-108.23 90.102,-118.289 97.1009,-118.169"/>
</g>
<!-- inputnode (utility)&#45;&gt;ffxsummary (fixedfx) -->
<g id="edge9" class="edge"><title>inputnode (utility)&#45;&gt;ffxsummary (fixedfx)</title>
<path fill="none" stroke="black" d="M298.826,-217.983C325.591,-207.516 361.526,-193.464 390.366,-182.186"/>
<polygon fill="black" stroke="black" points="391.813,-185.378 399.851,-178.476 389.263,-178.859 391.813,-185.378"/>
</g>
<!-- inputnode (utility)&#45;&gt;report (fixedfx) -->
<g id="edge8" class="edge"><title>inputnode (utility)&#45;&gt;report (fixedfx)</title>
<path fill="none" stroke="black" d="M275.055,-215.935C282.811,-206.041 291.861,-192.998 297.426,-180 305.892,-160.225 310.447,-136.245 312.855,-118.161"/>
<polygon fill="black" stroke="black" points="316.356,-118.357 314.065,-108.013 309.406,-117.528 316.356,-118.357"/>
</g>
<!-- report (fixedfx)&#45;&gt;outputs (utility) -->
<g id="edge10" class="edge"><title>report (fixedfx)&#45;&gt;outputs (utility)</title>
<path fill="none" stroke="black" d="M303.323,-72.055C297.304,-63.6287 289.912,-53.2798 283.259,-43.9663"/>
<polygon fill="black" stroke="black" points="286.079,-41.892 277.418,-35.789 280.383,-45.9607 286.079,-41.892"/>
</g>
</g>
</svg>
