<?xml version="1.0" encoding="UTF-8" standalone="no"?>
<!DOCTYPE svg PUBLIC "-//W3C//DTD SVG 1.1//EN"
 "http://www.w3.org/Graphics/SVG/1.1/DTD/svg11.dtd">
<!-- Generated by graphviz version 2.38.0 (20140413.2041)
 -->
<!-- Title: structs Pages: 1 -->
<svg width="1289pt" height="1186pt"
 viewBox="0.00 0.00 1288.63 1186.00" xmlns="http://www.w3.org/2000/svg" xmlns:xlink="http://www.w3.org/1999/xlink">
<g id="graph0" class="graph" transform="scale(1 1) rotate(0) translate(4 1182)">
<title>structs</title>
<polygon fill="white" stroke="none" points="-4,4 -4,-1182 1284.63,-1182 1284.63,4 -4,4"/>
<!-- modelinputs -->
<g id="node1" class="node"><title>modelinputs</title>
<polygon fill="none" stroke="black" points="2.84217e-14,-1053.5 2.84217e-14,-1177.5 171.628,-1177.5 171.628,-1053.5 2.84217e-14,-1053.5"/>
<text text-anchor="middle" x="15.3836" y="-1111.4" font-family="Times,serif" font-size="14.00">IN</text>
<polyline fill="none" stroke="black" points="30.7672,-1053.5 30.7672,-1177.5 "/>
<text text-anchor="middle" x="55.8801" y="-1152.9" font-family="Times,serif" font-size="14.00">inputs</text>
<polyline fill="none" stroke="black" points="30.7672,-1136.7 80.993,-1136.7 "/>
<text text-anchor="middle" x="55.8801" y="-1111.6" font-family="Times,serif" font-size="14.00">utility</text>
<polyline fill="none" stroke="black" points="30.7672,-1094.9 80.993,-1094.9 "/>
<text text-anchor="middle" x="55.8801" y="-1070.3" font-family="Times,serif" font-size="14.00"> </text>
<polyline fill="none" stroke="black" points="80.993,-1053.5 80.993,-1177.5 "/>
<text text-anchor="middle" x="126.311" y="-1160.9" font-family="Times,serif" font-size="14.00">OUT</text>
<polyline fill="none" stroke="black" points="80.993,-1152.7 171.628,-1152.7 "/>
<text text-anchor="middle" x="126.311" y="-1136.1" font-family="Times,serif" font-size="14.00">artifact_file</text>
<polyline fill="none" stroke="black" points="80.993,-1127.9 171.628,-1127.9 "/>
<text text-anchor="middle" x="126.311" y="-1111.3" font-family="Times,serif" font-size="14.00">nuisance_file</text>
<polyline fill="none" stroke="black" points="80.993,-1103.1 171.628,-1103.1 "/>
<text text-anchor="middle" x="126.311" y="-1086.5" font-family="Times,serif" font-size="14.00">realign_file</text>
<polyline fill="none" stroke="black" points="80.993,-1078.3 171.628,-1078.3 "/>
<text text-anchor="middle" x="126.311" y="-1061.7" font-family="Times,serif" font-size="14.00">timeseries</text>
</g>
<!-- modelsaveparams -->
<g id="node2" class="node"><title>modelsaveparams</title>
<polygon fill="none" stroke="black" points="118.396,-731.5 118.396,-805.9 317.233,-805.9 317.233,-731.5 118.396,-731.5"/>
<text text-anchor="middle" x="144.669" y="-783.3" font-family="Times,serif" font-size="14.00">IN</text>
<polyline fill="none" stroke="black" points="118.396,-769.1 170.943,-769.1 "/>
<text text-anchor="middle" x="144.669" y="-746.5" font-family="Times,serif" font-size="14.00">in_file</text>
<polyline fill="none" stroke="black" points="170.943,-731.5 170.943,-805.9 "/>
<text text-anchor="middle" x="211.592" y="-789.3" font-family="Times,serif" font-size="14.00">saveparams</text>
<polyline fill="none" stroke="black" points="170.943,-781.1 252.241,-781.1 "/>
<text text-anchor="middle" x="211.592" y="-764.5" font-family="Times,serif" font-size="14.00">fileutils</text>
<polyline fill="none" stroke="black" points="170.943,-756.3 252.241,-756.3 "/>
<text text-anchor="middle" x="211.592" y="-739.7" font-family="Times,serif" font-size="14.00"> </text>
<polyline fill="none" stroke="black" points="252.241,-731.5 252.241,-805.9 "/>
<text text-anchor="middle" x="284.737" y="-783.3" font-family="Times,serif" font-size="14.00">OUT</text>
<polyline fill="none" stroke="black" points="252.241,-769.1 317.233,-769.1 "/>
<text text-anchor="middle" x="284.737" y="-746.5" font-family="Times,serif" font-size="14.00">json_file</text>
</g>
<!-- modelinputs&#45;&gt;modelsaveparams -->
<g id="edge8" class="edge"><title>modelinputs:outtimeseries:e&#45;&gt;modelsaveparams:ininfile:w</title>
<path fill="none" stroke="black" d="M172.814,-1065.5C178.132,-1065.5 173.035,-1061.56 162.814,-1017 136.791,-903.547 6.04612,-759.71 107.612,-751.105"/>
<polygon fill="black" stroke="black" points="107.961,-754.594 117.814,-750.7 107.683,-747.6 107.961,-754.594"/>
</g>
<!-- modelmodelsetup -->
<g id="node3" class="node"><title>modelmodelsetup</title>
<polygon fill="none" stroke="black" points="171.347,-892.5 171.347,-1016.5 464.281,-1016.5 464.281,-892.5 171.347,-892.5"/>
<text text-anchor="middle" x="216.665" y="-999.9" font-family="Times,serif" font-size="14.00">IN</text>
<polyline fill="none" stroke="black" points="171.347,-991.7 261.983,-991.7 "/>
<text text-anchor="middle" x="216.665" y="-975.1" font-family="Times,serif" font-size="14.00">artifact_file</text>
<polyline fill="none" stroke="black" points="171.347,-966.9 261.983,-966.9 "/>
<text text-anchor="middle" x="216.665" y="-950.3" font-family="Times,serif" font-size="14.00">nuisance_file</text>
<polyline fill="none" stroke="black" points="171.347,-942.1 261.983,-942.1 "/>
<text text-anchor="middle" x="216.665" y="-925.5" font-family="Times,serif" font-size="14.00">realign_file</text>
<polyline fill="none" stroke="black" points="171.347,-917.3 261.983,-917.3 "/>
<text text-anchor="middle" x="216.665" y="-900.7" font-family="Times,serif" font-size="14.00">timeseries</text>
<polyline fill="none" stroke="black" points="261.983,-892.5 261.983,-1016.5 "/>
<text text-anchor="middle" x="302.255" y="-991.9" font-family="Times,serif" font-size="14.00">modelsetup</text>
<polyline fill="none" stroke="black" points="261.983,-975.7 342.528,-975.7 "/>
<text text-anchor="middle" x="302.255" y="-950.6" font-family="Times,serif" font-size="14.00">model</text>
<polyline fill="none" stroke="black" points="261.983,-933.9 342.528,-933.9 "/>
<text text-anchor="middle" x="302.255" y="-909.3" font-family="Times,serif" font-size="14.00"> </text>
<polyline fill="none" stroke="black" points="342.528,-892.5 342.528,-1016.5 "/>
<text text-anchor="middle" x="403.405" y="-999.9" font-family="Times,serif" font-size="14.00">OUT</text>
<polyline fill="none" stroke="black" points="342.528,-991.7 464.281,-991.7 "/>
<text text-anchor="middle" x="403.405" y="-975.1" font-family="Times,serif" font-size="14.00">contrast_file</text>
<polyline fill="none" stroke="black" points="342.528,-966.9 464.281,-966.9 "/>
<text text-anchor="middle" x="403.405" y="-950.3" font-family="Times,serif" font-size="14.00">design_matrix_file</text>
<polyline fill="none" stroke="black" points="342.528,-942.1 464.281,-942.1 "/>
<text text-anchor="middle" x="403.405" y="-925.5" font-family="Times,serif" font-size="14.00">design_matrix_pkl</text>
<polyline fill="none" stroke="black" points="342.528,-917.3 464.281,-917.3 "/>
<text text-anchor="middle" x="403.405" y="-900.7" font-family="Times,serif" font-size="14.00">report</text>
</g>
<!-- modelinputs&#45;&gt;modelmodelsetup -->
<g id="edge1" class="edge"><title>modelinputs:outartifactfile:e&#45;&gt;modelmodelsetup:inartifactfile:w</title>
<path fill="none" stroke="black" d="M172.814,-1140.5C211.706,-1140.5 172.301,-1091.89 171.814,-1053 171.463,-1024.93 146.849,-990.823 160.668,-981.786"/>
<polygon fill="black" stroke="black" points="161.828,-985.113 170.814,-979.5 160.289,-978.284 161.828,-985.113"/>
</g>
<!-- modelinputs&#45;&gt;modelmodelsetup -->
<g id="edge2" class="edge"><title>modelinputs:outnuisancefile:e&#45;&gt;modelmodelsetup:innuisancefile:w</title>
<path fill="none" stroke="black" d="M172.814,-1115.5C240.322,-1115.5 114.998,-972.222 160.661,-955.991"/>
<polygon fill="black" stroke="black" points="161.429,-959.416 170.814,-954.5 160.412,-952.49 161.429,-959.416"/>
</g>
<!-- modelinputs&#45;&gt;modelmodelsetup -->
<g id="edge3" class="edge"><title>modelinputs:outrealignfile:e&#45;&gt;modelmodelsetup:inrealignfile:w</title>
<path fill="none" stroke="black" d="M172.814,-1090.5C205.484,-1090.5 172.223,-1049.67 171.814,-1017 171.381,-982.365 140.077,-940.017 160.71,-931.168"/>
<polygon fill="black" stroke="black" points="161.518,-934.582 170.814,-929.5 160.378,-927.676 161.518,-934.582"/>
</g>
<!-- modelinputs&#45;&gt;modelmodelsetup -->
<g id="edge6" class="edge"><title>modelinputs:outtimeseries:e&#45;&gt;modelmodelsetup:intimeseries:w</title>
<path fill="none" stroke="black" d="M172.814,-1065.5C194.374,-1065.5 172.132,-1038.56 171.814,-1017 171.134,-970.909 128.364,-914.19 160.859,-905.609"/>
<polygon fill="black" stroke="black" points="161.263,-909.085 170.814,-904.5 160.488,-902.129 161.263,-909.085"/>
</g>
<!-- modelmodelestimate -->
<g id="node4" class="node"><title>modelmodelestimate</title>
<polygon fill="none" stroke="black" points="491.85,-681.9 491.85,-855.5 777.779,-855.5 777.779,-681.9 491.85,-681.9"/>
<text text-anchor="middle" x="530.953" y="-829.9" font-family="Times,serif" font-size="14.00">IN</text>
<polyline fill="none" stroke="black" points="491.85,-812.7 570.056,-812.7 "/>
<text text-anchor="middle" x="530.953" y="-786.6" font-family="Times,serif" font-size="14.00">design_file</text>
<polyline fill="none" stroke="black" points="491.85,-768.9 570.056,-768.9 "/>
<text text-anchor="middle" x="530.953" y="-743.3" font-family="Times,serif" font-size="14.00">in_file</text>
<polyline fill="none" stroke="black" points="491.85,-726.1 570.056,-726.1 "/>
<text text-anchor="middle" x="530.953" y="-700" font-family="Times,serif" font-size="14.00">tcon_file</text>
<polyline fill="none" stroke="black" points="570.056,-681.9 570.056,-855.5 "/>
<text text-anchor="middle" x="618.879" y="-822.4" font-family="Times,serif" font-size="14.00">modelestimate</text>
<polyline fill="none" stroke="black" points="570.056,-797.7 667.703,-797.7 "/>
<text text-anchor="middle" x="618.879" y="-764.6" font-family="Times,serif" font-size="14.00">fsl</text>
<polyline fill="none" stroke="black" points="570.056,-739.9 667.703,-739.9 "/>
<text text-anchor="middle" x="618.879" y="-706.8" font-family="Times,serif" font-size="14.00"> </text>
<polyline fill="none" stroke="black" points="667.703,-681.9 667.703,-855.5 "/>
<text text-anchor="middle" x="722.741" y="-838.9" font-family="Times,serif" font-size="14.00">OUT</text>
<polyline fill="none" stroke="black" points="667.703,-830.7 777.779,-830.7 "/>
<text text-anchor="middle" x="722.741" y="-814.1" font-family="Times,serif" font-size="14.00">copes</text>
<polyline fill="none" stroke="black" points="667.703,-805.9 777.779,-805.9 "/>
<text text-anchor="middle" x="722.741" y="-789.3" font-family="Times,serif" font-size="14.00">param_estimates</text>
<polyline fill="none" stroke="black" points="667.703,-781.1 777.779,-781.1 "/>
<text text-anchor="middle" x="722.741" y="-764.5" font-family="Times,serif" font-size="14.00">results_dir</text>
<polyline fill="none" stroke="black" points="667.703,-756.3 777.779,-756.3 "/>
<text text-anchor="middle" x="722.741" y="-739.7" font-family="Times,serif" font-size="14.00">sigmasquareds</text>
<polyline fill="none" stroke="black" points="667.703,-731.5 777.779,-731.5 "/>
<text text-anchor="middle" x="722.741" y="-714.9" font-family="Times,serif" font-size="14.00">varcopes</text>
<polyline fill="none" stroke="black" points="667.703,-706.7 777.779,-706.7 "/>
<text text-anchor="middle" x="722.741" y="-690.1" font-family="Times,serif" font-size="14.00">zstats</text>
</g>
<!-- modelinputs&#45;&gt;modelmodelestimate -->
<g id="edge4" class="edge"><title>modelinputs:outtimeseries:e&#45;&gt;modelmodelestimate:ininfile:w</title>
<path fill="none" stroke="black" d="M172.814,-1065.5C206.58,-1065.5 450.08,-1041.97 472.814,-1017 481.766,-1007.17 477.205,-803.03 486.512,-756.906"/>
<polygon fill="black" stroke="black" points="489.751,-758.241 490.814,-747.7 483.409,-755.277 489.751,-758.241"/>
</g>
<!-- modelmodelsummary -->
<g id="node5" class="node"><title>modelmodelsummary</title>
<polygon fill="none" stroke="black" points="710.446,-545.7 710.446,-644.9 997.182,-644.9 997.182,-545.7 710.446,-545.7"/>
<text text-anchor="middle" x="770.94" y="-628.3" font-family="Times,serif" font-size="14.00">IN</text>
<polyline fill="none" stroke="black" points="710.446,-620.1 831.433,-620.1 "/>
<text text-anchor="middle" x="770.94" y="-603.5" font-family="Times,serif" font-size="14.00">design_matrix_pkl</text>
<polyline fill="none" stroke="black" points="710.446,-595.3 831.433,-595.3 "/>
<text text-anchor="middle" x="770.94" y="-578.7" font-family="Times,serif" font-size="14.00">pe_files</text>
<polyline fill="none" stroke="black" points="710.446,-570.5 831.433,-570.5 "/>
<text text-anchor="middle" x="770.94" y="-553.9" font-family="Times,serif" font-size="14.00">timeseries</text>
<polyline fill="none" stroke="black" points="831.433,-545.7 831.433,-644.9 "/>
<text text-anchor="middle" x="882.982" y="-624.3" font-family="Times,serif" font-size="14.00">modelsummary</text>
<polyline fill="none" stroke="black" points="831.433,-612.1 934.53,-612.1 "/>
<text text-anchor="middle" x="882.982" y="-591.5" font-family="Times,serif" font-size="14.00">model</text>
<polyline fill="none" stroke="black" points="831.433,-579.3 934.53,-579.3 "/>
<text text-anchor="middle" x="882.982" y="-558.7" font-family="Times,serif" font-size="14.00"> </text>
<polyline fill="none" stroke="black" points="934.53,-545.7 934.53,-644.9 "/>
<text text-anchor="middle" x="965.856" y="-628.3" font-family="Times,serif" font-size="14.00">OUT</text>
<polyline fill="none" stroke="black" points="934.53,-620.1 997.182,-620.1 "/>
<text text-anchor="middle" x="965.856" y="-603.5" font-family="Times,serif" font-size="14.00">r2_files</text>
<polyline fill="none" stroke="black" points="934.53,-595.3 997.182,-595.3 "/>
<text text-anchor="middle" x="965.856" y="-578.7" font-family="Times,serif" font-size="14.00">ss_files</text>
<polyline fill="none" stroke="black" points="934.53,-570.5 997.182,-570.5 "/>
<text text-anchor="middle" x="965.856" y="-553.9" font-family="Times,serif" font-size="14.00">tsnr_file</text>
</g>
<!-- modelinputs&#45;&gt;modelmodelsummary -->
<g id="edge7" class="edge"><title>modelinputs:outtimeseries:e&#45;&gt;modelmodelsummary:intimeseries:w</title>
<path fill="none" stroke="black" d="M172.814,-1065.5C315.782,-1065.5 354.447,-1059.94 490.814,-1017 644.949,-968.468 731.521,-993.252 816.814,-856 857.773,-790.09 862.01,-744.48 816.814,-681.4 787.837,-640.955 740.023,-685.678 710.814,-645.4 706.331,-639.218 702.274,-588.562 705.517,-567.466"/>
<polygon fill="black" stroke="black" points="708.739,-568.84 709.814,-558.3 702.4,-565.869 708.739,-568.84"/>
</g>
<!-- modelmodelreport -->
<g id="node6" class="node"><title>modelmodelreport</title>
<polygon fill="none" stroke="black" points="997.069,-384.7 997.069,-508.7 1270.56,-508.7 1270.56,-384.7 997.069,-384.7"/>
<text text-anchor="middle" x="1059.11" y="-492.1" font-family="Times,serif" font-size="14.00">IN</text>
<polyline fill="none" stroke="black" points="997.069,-483.9 1121.15,-483.9 "/>
<text text-anchor="middle" x="1059.11" y="-467.3" font-family="Times,serif" font-size="14.00">r2_files</text>
<polyline fill="none" stroke="black" points="997.069,-459.1 1121.15,-459.1 "/>
<text text-anchor="middle" x="1059.11" y="-442.5" font-family="Times,serif" font-size="14.00">sigmasquareds_file</text>
<polyline fill="none" stroke="black" points="997.069,-434.3 1121.15,-434.3 "/>
<text text-anchor="middle" x="1059.11" y="-417.7" font-family="Times,serif" font-size="14.00">timeseries</text>
<polyline fill="none" stroke="black" points="997.069,-409.5 1121.15,-409.5 "/>
<text text-anchor="middle" x="1059.11" y="-392.9" font-family="Times,serif" font-size="14.00">tsnr_file</text>
<polyline fill="none" stroke="black" points="1121.15,-384.7 1121.15,-508.7 "/>
<text text-anchor="middle" x="1163.36" y="-484.1" font-family="Times,serif" font-size="14.00">modelreport</text>
<polyline fill="none" stroke="black" points="1121.15,-467.9 1205.57,-467.9 "/>
<text text-anchor="middle" x="1163.36" y="-442.8" font-family="Times,serif" font-size="14.00">model</text>
<polyline fill="none" stroke="black" points="1121.15,-426.1 1205.57,-426.1 "/>
<text text-anchor="middle" x="1163.36" y="-401.5" font-family="Times,serif" font-size="14.00"> </text>
<polyline fill="none" stroke="black" points="1205.57,-384.7 1205.57,-508.7 "/>
<text text-anchor="middle" x="1238.06" y="-473.6" font-family="Times,serif" font-size="14.00">OUT</text>
<polyline fill="none" stroke="black" points="1205.57,-446.9 1270.56,-446.9 "/>
<text text-anchor="middle" x="1238.06" y="-411.8" font-family="Times,serif" font-size="14.00">out_files</text>
</g>
<!-- modelinputs&#45;&gt;modelmodelreport -->
<g id="edge5" class="edge"><title>modelinputs:outtimeseries:e&#45;&gt;modelmodelreport:intimeseries:w</title>
<path fill="none" stroke="black" d="M172.814,-1065.5C280.466,-1065.5 555.62,-1058.83 654.814,-1017 757.429,-973.731 767.806,-934.484 846.814,-856 933.965,-769.428 983.435,-760.7 1025.81,-645.4 1041.18,-603.601 1040.63,-587.198 1025.81,-545.2 1018.98,-525.824 1003.76,-528.537 996.814,-509.2 985.005,-476.315 962.215,-431.891 985.913,-423.207"/>
<polygon fill="black" stroke="black" points="986.455,-426.665 995.814,-421.7 985.401,-419.744 986.455,-426.665"/>
</g>
<!-- modeloutputs -->
<g id="node7" class="node"><title>modeloutputs</title>
<polygon fill="none" stroke="black" points="606.33,-0.5 606.33,-347.7 801.298,-347.7 801.298,-0.5 606.33,-0.5"/>
<text text-anchor="middle" x="652.818" y="-331.1" font-family="Times,serif" font-size="14.00">IN</text>
<polyline fill="none" stroke="black" points="606.33,-322.9 699.307,-322.9 "/>
<text text-anchor="middle" x="652.818" y="-306.3" font-family="Times,serif" font-size="14.00">contrast_mat</text>
<polyline fill="none" stroke="black" points="606.33,-298.1 699.307,-298.1 "/>
<text text-anchor="middle" x="652.818" y="-281.5" font-family="Times,serif" font-size="14.00">copes</text>
<polyline fill="none" stroke="black" points="606.33,-273.3 699.307,-273.3 "/>
<text text-anchor="middle" x="652.818" y="-256.7" font-family="Times,serif" font-size="14.00">design_mat</text>
<polyline fill="none" stroke="black" points="606.33,-248.5 699.307,-248.5 "/>
<text text-anchor="middle" x="652.818" y="-231.9" font-family="Times,serif" font-size="14.00">design_pkl</text>
<polyline fill="none" stroke="black" points="606.33,-223.7 699.307,-223.7 "/>
<text text-anchor="middle" x="652.818" y="-207.1" font-family="Times,serif" font-size="14.00">design_report</text>
<polyline fill="none" stroke="black" points="606.33,-198.9 699.307,-198.9 "/>
<text text-anchor="middle" x="652.818" y="-182.3" font-family="Times,serif" font-size="14.00">json_file</text>
<polyline fill="none" stroke="black" points="606.33,-174.1 699.307,-174.1 "/>
<text text-anchor="middle" x="652.818" y="-157.5" font-family="Times,serif" font-size="14.00">r2_files</text>
<polyline fill="none" stroke="black" points="606.33,-149.3 699.307,-149.3 "/>
<text text-anchor="middle" x="652.818" y="-132.7" font-family="Times,serif" font-size="14.00">report</text>
<polyline fill="none" stroke="black" points="606.33,-124.5 699.307,-124.5 "/>
<text text-anchor="middle" x="652.818" y="-107.9" font-family="Times,serif" font-size="14.00">results</text>
<polyline fill="none" stroke="black" points="606.33,-99.7 699.307,-99.7 "/>
<text text-anchor="middle" x="652.818" y="-83.1" font-family="Times,serif" font-size="14.00">ss_files</text>
<polyline fill="none" stroke="black" points="606.33,-74.9 699.307,-74.9 "/>
<text text-anchor="middle" x="652.818" y="-58.3" font-family="Times,serif" font-size="14.00">tsnr_file</text>
<polyline fill="none" stroke="black" points="606.33,-50.1 699.307,-50.1 "/>
<text text-anchor="middle" x="652.818" y="-33.5" font-family="Times,serif" font-size="14.00">varcopes</text>
<polyline fill="none" stroke="black" points="606.33,-25.3 699.307,-25.3 "/>
<text text-anchor="middle" x="652.818" y="-8.7" font-family="Times,serif" font-size="14.00">zstats</text>
<polyline fill="none" stroke="black" points="699.307,-0.5 699.307,-347.7 "/>
<text text-anchor="middle" x="727.919" y="-286.1" font-family="Times,serif" font-size="14.00">outputs</text>
<polyline fill="none" stroke="black" points="699.307,-232.9 756.532,-232.9 "/>
<text text-anchor="middle" x="727.919" y="-170.8" font-family="Times,serif" font-size="14.00">utility</text>
<polyline fill="none" stroke="black" points="699.307,-117.1 756.532,-117.1 "/>
<text text-anchor="middle" x="727.919" y="-55" font-family="Times,serif" font-size="14.00"> </text>
<polyline fill="none" stroke="black" points="756.532,-0.5 756.532,-347.7 "/>
<text text-anchor="middle" x="778.915" y="-170.1" font-family="Times,serif" font-size="14.00">OUT</text>
</g>
<!-- modelsaveparams&#45;&gt;modeloutputs -->
<g id="edge28" class="edge"><title>modelsaveparams:outjsonfile:e&#45;&gt;modeloutputs:injsonfile:w</title>
<path fill="none" stroke="black" d="M317.814,-750.7C338.2,-750.7 326.158,-402.154 335.814,-384.2 404.659,-256.192 454.593,-189.277 595.51,-186.21"/>
<polygon fill="black" stroke="black" points="595.852,-189.707 605.814,-186.1 595.777,-182.707 595.852,-189.707"/>
</g>
<!-- modelmodelsetup&#45;&gt;modelmodelestimate -->
<g id="edge16" class="edge"><title>modelmodelsetup:outcontrastfile:e&#45;&gt;modelmodelestimate:intconfile:w</title>
<path fill="none" stroke="black" d="M464.814,-979.5C478.612,-979.5 476.501,-869.735 477.814,-856 479.181,-841.697 475.411,-742.037 484.682,-712.766"/>
<polygon fill="black" stroke="black" points="487.548,-714.779 490.814,-704.7 481.976,-710.542 487.548,-714.779"/>
</g>
<!-- modelmodelsetup&#45;&gt;modelmodelestimate -->
<g id="edge18" class="edge"><title>modelmodelsetup:outdesignmatrixfile:e&#45;&gt;modelmodelestimate:indesignfile:w</title>
<path fill="none" stroke="black" d="M464.814,-954.5C480.723,-954.5 474.807,-832.427 484.748,-799.048"/>
<polygon fill="black" stroke="black" points="487.767,-800.847 490.814,-790.7 482.104,-796.732 487.767,-800.847"/>
</g>
<!-- modelmodelsetup&#45;&gt;modelmodelsummary -->
<g id="edge20" class="edge"><title>modelmodelsetup:outdesignmatrixpkl:e&#45;&gt;modelmodelsummary:indesignmatrixpkl:w</title>
<path fill="none" stroke="black" d="M464.814,-929.5C538.21,-929.5 741.053,-913.384 786.814,-856 835.197,-795.329 828.311,-746.973 786.814,-681.4 766.828,-649.817 731.213,-676.718 710.814,-645.4 704.169,-635.198 697.809,-619.979 701.047,-612.225"/>
<polygon fill="black" stroke="black" points="702.81,-615.249 709.814,-607.3 699.381,-609.146 702.81,-615.249"/>
</g>
<!-- modelmodelsetup&#45;&gt;modeloutputs -->
<g id="edge17" class="edge"><title>modelmodelsetup:outcontrastfile:e&#45;&gt;modeloutputs:incontrastmat:w</title>
<path fill="none" stroke="black" d="M464.814,-979.5C469.676,-979.5 466.563,-896.01 463.814,-892 439.458,-856.464 397.967,-891.674 373.814,-856 344.425,-812.591 342.895,-426.533 373.814,-384.2 403.927,-342.97 535.524,-313.586 595.771,-310.389"/>
<polygon fill="black" stroke="black" points="595.919,-313.887 605.814,-310.1 595.717,-306.89 595.919,-313.887"/>
</g>
<!-- modelmodelsetup&#45;&gt;modeloutputs -->
<g id="edge19" class="edge"><title>modelmodelsetup:outdesignmatrixfile:e&#45;&gt;modeloutputs:indesignmat:w</title>
<path fill="none" stroke="black" d="M464.814,-954.5C471.76,-954.5 467.087,-898.126 463.814,-892 450.57,-867.207 424.86,-880.898 411.814,-856 363.155,-763.131 361.302,-476.074 411.814,-384.2 459.33,-297.775 500.773,-263.463 595.549,-261.219"/>
<polygon fill="black" stroke="black" points="595.855,-264.715 605.814,-261.1 595.774,-257.716 595.855,-264.715"/>
</g>
<!-- modelmodelsetup&#45;&gt;modeloutputs -->
<g id="edge21" class="edge"><title>modelmodelsetup:outdesignmatrixpkl:e&#45;&gt;modeloutputs:indesignpkl:w</title>
<path fill="none" stroke="black" d="M464.814,-929.5C473.15,-929.5 465.46,-900.172 463.814,-892 460.424,-875.171 452.98,-872.873 449.814,-856 430.483,-752.953 408.437,-480.534 449.814,-384.2 486.18,-299.532 508.555,-240.491 595.733,-236.334"/>
<polygon fill="black" stroke="black" points="595.898,-239.832 605.814,-236.1 595.735,-232.834 595.898,-239.832"/>
</g>
<!-- modelmodelsetup&#45;&gt;modeloutputs -->
<g id="edge22" class="edge"><title>modelmodelsetup:outreport:e&#45;&gt;modeloutputs:indesignreport:w</title>
<path fill="none" stroke="black" d="M464.814,-904.5C472.055,-904.5 495.601,-391.094 497.814,-384.2 524.444,-301.232 515.889,-217.877 595.642,-211.492"/>
<polygon fill="black" stroke="black" points="595.956,-214.983 605.814,-211.1 595.687,-207.988 595.956,-214.983"/>
</g>
<!-- modelmodelestimate&#45;&gt;modelmodelsummary -->
<g id="edge10" class="edge"><title>modelmodelestimate:outparamestimates:e&#45;&gt;modelmodelsummary:inpefiles:w</title>
<path fill="none" stroke="black" d="M778.814,-793.7C791.292,-793.7 784.265,-692.081 777.814,-681.4 760.338,-652.464 728.394,-674.273 710.814,-645.4 705.375,-636.467 699.679,-605.41 703.246,-590.891"/>
<polygon fill="black" stroke="black" points="705.918,-593.152 709.814,-583.3 700.624,-588.572 705.918,-593.152"/>
</g>
<!-- modelmodelestimate&#45;&gt;modelmodelreport -->
<g id="edge12" class="edge"><title>modelmodelestimate:outsigmasquareds:e&#45;&gt;modelmodelreport:insigmasquaredsfile:w</title>
<path fill="none" stroke="black" d="M778.814,-743.7C888.756,-743.7 945.465,-737.298 1005.81,-645.4 1030.26,-608.176 1011.26,-589.4 1005.81,-545.2 1003.8,-528.831 998.96,-525.552 996.814,-509.2 993.792,-486.174 975.711,-457.97 986.087,-449.336"/>
<polygon fill="black" stroke="black" points="987.078,-452.693 995.814,-446.7 985.247,-445.937 987.078,-452.693"/>
</g>
<!-- modelmodelestimate&#45;&gt;modeloutputs -->
<g id="edge9" class="edge"><title>modelmodelestimate:outcopes:e&#45;&gt;modeloutputs:incopes:w</title>
<path fill="none" stroke="black" d="M778.814,-818.7C782.628,-818.7 780.251,-684.334 777.814,-681.4 724.305,-616.954 646.088,-710.04 592.814,-645.4 493.369,-524.738 447.988,-296.188 595.797,-286.423"/>
<polygon fill="black" stroke="black" points="595.932,-289.921 605.814,-286.1 595.706,-282.925 595.932,-289.921"/>
</g>
<!-- modelmodelestimate&#45;&gt;modeloutputs -->
<g id="edge11" class="edge"><title>modelmodelestimate:outresultsdir:e&#45;&gt;modeloutputs:inresults:w</title>
<path fill="none" stroke="black" d="M778.814,-768.7C783.665,-768.7 780.83,-685.199 777.814,-681.4 735.989,-628.72 674.434,-696.603 630.814,-645.4 556.13,-557.734 491.09,-137.754 595.86,-113.221"/>
<polygon fill="black" stroke="black" points="596.269,-116.697 605.814,-112.1 595.485,-109.741 596.269,-116.697"/>
</g>
<!-- modelmodelestimate&#45;&gt;modeloutputs -->
<g id="edge13" class="edge"><title>modelmodelestimate:outvarcopes:e&#45;&gt;modeloutputs:invarcopes:w</title>
<path fill="none" stroke="black" d="M778.814,-718.7C782.96,-718.7 780.288,-684.727 777.814,-681.4 747.375,-640.457 702.789,-683.461 668.814,-645.4 625.932,-597.36 546.57,-93.3338 596.641,-42.2675"/>
<polygon fill="black" stroke="black" points="598.158,-45.423 605.814,-38.1 595.262,-39.0499 598.158,-45.423"/>
</g>
<!-- modelmodelestimate&#45;&gt;modeloutputs -->
<g id="edge14" class="edge"><title>modelmodelestimate:outzstats:e&#45;&gt;modeloutputs:inzstats:w</title>
<path fill="none" stroke="black" d="M778.814,-694.7C784.742,-694.7 781.17,-686.287 777.814,-681.4 756.657,-650.589 725.956,-673.932 701.814,-645.4 682.33,-622.373 639.618,-411.959 627.814,-384.2 620.566,-367.154 611.675,-366.074 606.814,-348.2 568.647,-207.854 462.037,-22.045 595.766,-13.4123"/>
<polygon fill="black" stroke="black" points="595.928,-16.9091 605.814,-13.1 595.71,-9.91246 595.928,-16.9091"/>
</g>
<!-- modelmodelsummary&#45;&gt;modelmodelreport -->
<g id="edge23" class="edge"><title>modelmodelsummary:outr2files:e&#45;&gt;modelmodelreport:inr2files:w</title>
<path fill="none" stroke="black" d="M997.814,-607.3C1023.83,-607.3 980.978,-506.243 988.163,-478.611"/>
<polygon fill="black" stroke="black" points="990.739,-481 995.814,-471.7 986.047,-475.806 990.739,-481"/>
</g>
<!-- modelmodelsummary&#45;&gt;modelmodelreport -->
<g id="edge26" class="edge"><title>modelmodelsummary:outtsnrfile:e&#45;&gt;modelmodelreport:intsnrfile:w</title>
<path fill="none" stroke="black" d="M997.814,-558.3C1019.64,-558.3 997.133,-531.024 996.814,-509.2 996.14,-463.109 953.365,-406.39 985.86,-397.809"/>
<polygon fill="black" stroke="black" points="986.263,-401.285 995.814,-396.7 985.488,-394.329 986.263,-401.285"/>
</g>
<!-- modelmodelsummary&#45;&gt;modeloutputs -->
<g id="edge24" class="edge"><title>modelmodelsummary:outr2files:e&#45;&gt;modeloutputs:inr2files:w</title>
<path fill="none" stroke="black" d="M997.814,-607.3C1011.62,-607.3 1005.4,-556.01 996.814,-545.2 955.798,-493.531 911.919,-538.502 852.814,-509.2 773.214,-469.737 773.56,-428.962 696.814,-384.2 659.6,-362.495 631.063,-383.809 606.814,-348.2 562.26,-282.771 526.312,-172.127 595.807,-162.739"/>
<polygon fill="black" stroke="black" points="596.058,-166.23 605.814,-162.1 595.611,-159.244 596.058,-166.23"/>
</g>
<!-- modelmodelsummary&#45;&gt;modeloutputs -->
<g id="edge25" class="edge"><title>modelmodelsummary:outssfiles:e&#45;&gt;modeloutputs:inssfiles:w</title>
<path fill="none" stroke="black" d="M997.814,-583.3C1014.75,-583.3 1005.51,-559.738 996.814,-545.2 980.263,-517.522 960.149,-527.814 933.814,-509.2 864.334,-460.088 865.304,-421.467 788.814,-384.2 714.688,-348.084 659.28,-411.811 606.814,-348.2 535.212,-261.387 492.413,-97.4132 595.709,-87.5647"/>
<polygon fill="black" stroke="black" points="595.986,-91.0558 605.814,-87.1 595.664,-84.0632 595.986,-91.0558"/>
</g>
<!-- modelmodelsummary&#45;&gt;modeloutputs -->
<g id="edge27" class="edge"><title>modelmodelsummary:outtsnrfile:e&#45;&gt;modeloutputs:intsnrfile:w</title>
<path fill="none" stroke="black" d="M997.814,-558.3C1021.5,-558.3 895.275,-396.131 874.814,-384.2 822.905,-353.929 646.454,-393.361 606.814,-348.2 525.226,-255.248 481.109,-72.4489 595.765,-62.5215"/>
<polygon fill="black" stroke="black" points="595.97,-66.0161 605.814,-62.1 595.676,-59.0223 595.97,-66.0161"/>
</g>
<!-- modelmodelreport&#45;&gt;modeloutputs -->
<g id="edge15" class="edge"><title>modelmodelreport:outoutfiles:e&#45;&gt;modeloutputs:inreport:w</title>
<path fill="none" stroke="black" d="M1271.81,-415.7C1285.82,-415.7 1280.61,-394.215 1270.81,-384.2 1167.5,-278.544 708.691,-455.241 606.814,-348.2 544.657,-282.893 514.398,-148.168 595.381,-137.742"/>
<polygon fill="black" stroke="black" points="596.048,-141.208 605.814,-137.1 595.618,-134.221 596.048,-141.208"/>
</g>
</g>
</svg>
