<?xml version="1.0" encoding="UTF-8" standalone="no"?>
<!DOCTYPE svg PUBLIC "-//W3C//DTD SVG 1.1//EN"
 "http://www.w3.org/Graphics/SVG/1.1/DTD/svg11.dtd">
<!-- Generated by graphviz version 2.38.0 (20140413.2041)
 -->
<!-- Pages: 1 -->
<svg width="588pt" height="404pt"
 viewBox="0.00 0.00 587.64 404.00" xmlns="http://www.w3.org/2000/svg" xmlns:xlink="http://www.w3.org/1999/xlink">
<g id="graph0" class="graph" transform="scale(1 1) rotate(0) translate(4 400)">
<polygon fill="white" stroke="none" points="-4,4 -4,-400 583.642,-400 583.642,4 -4,4"/>
<!-- saveparams (fileutils) -->
<g id="node1" class="node"><title>saveparams (fileutils)</title>
<ellipse fill="none" stroke="black" cx="94.4262" cy="-234" rx="94.3524" ry="18"/>
<text text-anchor="middle" x="94.4262" y="-229.8" font-family="Times,serif" font-size="14.00">saveparams (fileutils)</text>
</g>
<!-- outputs (utility) -->
<g id="node5" class="node"><title>outputs (utility)</title>
<ellipse fill="none" stroke="black" cx="254.426" cy="-18" rx="71.285" ry="18"/>
<text text-anchor="middle" x="254.426" y="-13.8" font-family="Times,serif" font-size="14.00">outputs (utility)</text>
</g>
<!-- saveparams (fileutils)&#45;&gt;outputs (utility) -->
<g id="edge1" class="edge"><title>saveparams (fileutils)&#45;&gt;outputs (utility)</title>
<path fill="none" stroke="black" d="M104.493,-215.825C122.535,-185.575 162.26,-121.329 202.426,-72 210.565,-62.004 220.28,-51.7302 229.098,-42.921"/>
<polygon fill="black" stroke="black" points="231.56,-45.4091 236.24,-35.9039 226.654,-40.4159 231.56,-45.4091"/>
</g>
<!-- modelestimate (fsl) -->
<g id="node2" class="node"><title>modelestimate (fsl)</title>
<ellipse fill="none" stroke="black" cx="377.426" cy="-234" rx="85.7057" ry="18"/>
<text text-anchor="middle" x="377.426" y="-229.8" font-family="Times,serif" font-size="14.00">modelestimate (fsl)</text>
</g>
<!-- modelreport (model) -->
<g id="node4" class="node"><title>modelreport (model)</title>
<ellipse fill="none" stroke="black" cx="488.426" cy="-90" rx="91.4329" ry="18"/>
<text text-anchor="middle" x="488.426" y="-85.8" font-family="Times,serif" font-size="14.00">modelreport (model)</text>
</g>
<!-- modelestimate (fsl)&#45;&gt;modelreport (model) -->
<g id="edge2" class="edge"><title>modelestimate (fsl)&#45;&gt;modelreport (model)</title>
<path fill="none" stroke="black" d="M438.572,-221.357C461.677,-213.664 485.685,-200.952 499.426,-180 511.441,-161.681 506.924,-136.612 500.42,-117.747"/>
<polygon fill="black" stroke="black" points="503.634,-116.353 496.804,-108.253 497.092,-118.844 503.634,-116.353"/>
</g>
<!-- modelestimate (fsl)&#45;&gt;outputs (utility) -->
<g id="edge4" class="edge"><title>modelestimate (fsl)&#45;&gt;outputs (utility)</title>
<path fill="none" stroke="black" d="M328.042,-219.235C307.928,-211.096 286.4,-198.623 273.426,-180 245.698,-140.198 246.693,-81.0162 250.304,-46.5885"/>
<polygon fill="black" stroke="black" points="253.818,-46.6825 251.536,-36.3365 246.868,-45.8478 253.818,-46.6825"/>
</g>
<!-- modelsummary (model) -->
<g id="node6" class="node"><title>modelsummary (model)</title>
<ellipse fill="none" stroke="black" cx="386.426" cy="-162" rx="104.195" ry="18"/>
<text text-anchor="middle" x="386.426" y="-157.8" font-family="Times,serif" font-size="14.00">modelsummary (model)</text>
</g>
<!-- modelestimate (fsl)&#45;&gt;modelsummary (model) -->
<g id="edge3" class="edge"><title>modelestimate (fsl)&#45;&gt;modelsummary (model)</title>
<path fill="none" stroke="black" d="M379.651,-215.697C380.643,-207.983 381.835,-198.712 382.94,-190.112"/>
<polygon fill="black" stroke="black" points="386.423,-190.469 384.227,-180.104 379.48,-189.576 386.423,-190.469"/>
</g>
<!-- modelsetup (model) -->
<g id="node3" class="node"><title>modelsetup (model)</title>
<ellipse fill="none" stroke="black" cx="263.426" cy="-306" rx="88.5844" ry="18"/>
<text text-anchor="middle" x="263.426" y="-301.8" font-family="Times,serif" font-size="14.00">modelsetup (model)</text>
</g>
<!-- modelsetup (model)&#45;&gt;modelestimate (fsl) -->
<g id="edge7" class="edge"><title>modelsetup (model)&#45;&gt;modelestimate (fsl)</title>
<path fill="none" stroke="black" d="M289.867,-288.765C305.55,-279.135 325.615,-266.814 342.58,-256.397"/>
<polygon fill="black" stroke="black" points="344.439,-259.363 351.129,-251.147 340.776,-253.397 344.439,-259.363"/>
</g>
<!-- modelsetup (model)&#45;&gt;outputs (utility) -->
<g id="edge5" class="edge"><title>modelsetup (model)&#45;&gt;outputs (utility)</title>
<path fill="none" stroke="black" d="M260.189,-287.748C253.356,-249.103 238.627,-152.655 245.426,-72 246.143,-63.4991 247.495,-54.3119 248.938,-46.0122"/>
<polygon fill="black" stroke="black" points="252.395,-46.5623 250.772,-36.0925 245.512,-45.2892 252.395,-46.5623"/>
</g>
<!-- modelsetup (model)&#45;&gt;modelsummary (model) -->
<g id="edge6" class="edge"><title>modelsetup (model)&#45;&gt;modelsummary (model)</title>
<path fill="none" stroke="black" d="M262.892,-287.796C263.166,-268.424 266.355,-236.926 282.426,-216 293.83,-201.151 310.548,-190.116 327.26,-182.078"/>
<polygon fill="black" stroke="black" points="328.827,-185.211 336.51,-177.915 325.954,-178.827 328.827,-185.211"/>
</g>
<!-- modelreport (model)&#45;&gt;outputs (utility) -->
<g id="edge8" class="edge"><title>modelreport (model)&#45;&gt;outputs (utility)</title>
<path fill="none" stroke="black" d="M440.508,-74.6655C402.173,-63.1977 348.422,-47.1185 308.541,-35.1881"/>
<polygon fill="black" stroke="black" points="309.302,-31.7626 298.718,-32.2497 307.295,-38.4689 309.302,-31.7626"/>
</g>
<!-- modelsummary (model)&#45;&gt;modelreport (model) -->
<g id="edge9" class="edge"><title>modelsummary (model)&#45;&gt;modelreport (model)</title>
<path fill="none" stroke="black" d="M410.599,-144.411C424.191,-135.083 441.337,-123.316 456.074,-113.203"/>
<polygon fill="black" stroke="black" points="458.162,-116.014 464.427,-107.47 454.201,-110.243 458.162,-116.014"/>
</g>
<!-- modelsummary (model)&#45;&gt;outputs (utility) -->
<g id="edge10" class="edge"><title>modelsummary (model)&#45;&gt;outputs (utility)</title>
<path fill="none" stroke="black" d="M370.766,-144.153C347.544,-119.173 303.854,-72.1723 277.124,-43.4179"/>
<polygon fill="black" stroke="black" points="279.438,-40.7663 270.066,-35.825 274.311,-45.5322 279.438,-40.7663"/>
</g>
<!-- inputs (utility) -->
<g id="node7" class="node"><title>inputs (utility)</title>
<ellipse fill="none" stroke="black" cx="380.426" cy="-378" rx="66.6279" ry="18"/>
<text text-anchor="middle" x="380.426" y="-373.8" font-family="Times,serif" font-size="14.00">inputs (utility)</text>
</g>
<!-- inputs (utility)&#45;&gt;saveparams (fileutils) -->
<g id="edge12" class="edge"><title>inputs (utility)&#45;&gt;saveparams (fileutils)</title>
<path fill="none" stroke="black" d="M316.882,-372.219C271.661,-366.34 211.075,-353.231 165.426,-324 140.887,-308.286 121.065,-281.156 108.665,-260.969"/>
<polygon fill="black" stroke="black" points="111.608,-259.069 103.5,-252.249 105.585,-262.637 111.608,-259.069"/>
</g>
<!-- inputs (utility)&#45;&gt;modelestimate (fsl) -->
<g id="edge15" class="edge"><title>inputs (utility)&#45;&gt;modelestimate (fsl)</title>
<path fill="none" stroke="black" d="M380.064,-359.871C379.553,-335.67 378.614,-291.211 378.005,-262.393"/>
<polygon fill="black" stroke="black" points="381.5,-262.113 377.789,-252.189 374.501,-262.261 381.5,-262.113"/>
</g>
<!-- inputs (utility)&#45;&gt;modelsetup (model) -->
<g id="edge11" class="edge"><title>inputs (utility)&#45;&gt;modelsetup (model)</title>
<path fill="none" stroke="black" d="M354.169,-361.291C338.105,-351.679 317.323,-339.246 299.701,-328.703"/>
<polygon fill="black" stroke="black" points="301.194,-325.518 290.816,-323.387 297.6,-331.525 301.194,-325.518"/>
</g>
<!-- inputs (utility)&#45;&gt;modelreport (model) -->
<g id="edge13" class="edge"><title>inputs (utility)&#45;&gt;modelreport (model)</title>
<path fill="none" stroke="black" d="M410.943,-361.744C426.795,-352.578 445.499,-339.654 458.426,-324 502.466,-270.67 504.673,-247.978 517.426,-180 520.376,-164.274 521.39,-159.501 517.426,-144 515.047,-134.697 510.661,-125.27 506.008,-116.997"/>
<polygon fill="black" stroke="black" points="508.883,-114.986 500.733,-108.216 502.882,-118.59 508.883,-114.986"/>
</g>
<!-- inputs (utility)&#45;&gt;modelsummary (model) -->
<g id="edge14" class="edge"><title>inputs (utility)&#45;&gt;modelsummary (model)</title>
<path fill="none" stroke="black" d="M398.195,-360.452C420.555,-338.284 457.801,-296.546 472.426,-252 477.417,-236.798 480.226,-229.97 472.426,-216 464.711,-202.183 451.75,-191.521 438.2,-183.507"/>
<polygon fill="black" stroke="black" points="439.712,-180.345 429.259,-178.617 436.353,-186.487 439.712,-180.345"/>
</g>
</g>
</svg>
