<?xml version="1.0" encoding="UTF-8" standalone="no"?>
<!DOCTYPE svg PUBLIC "-//W3C//DTD SVG 1.1//EN"
 "http://www.w3.org/Graphics/SVG/1.1/DTD/svg11.dtd">
<!-- Generated by graphviz version 2.38.0 (20140413.2041)
 -->
<!-- Title: structs Pages: 1 -->
<svg width="1698pt" height="1285pt"
 viewBox="0.00 0.00 1698.03 1284.80" xmlns="http://www.w3.org/2000/svg" xmlns:xlink="http://www.w3.org/1999/xlink">
<g id="graph0" class="graph" transform="scale(1 1) rotate(0) translate(4 1280.8)">
<title>structs</title>
<polygon fill="white" stroke="none" points="-4,4 -4,-1280.8 1694.03,-1280.8 1694.03,4 -4,4"/>
<!-- preprocinputs -->
<g id="node1" class="node"><title>preprocinputs</title>
<polygon fill="none" stroke="black" points="465.515,-1201.9 465.515,-1276.3 620.053,-1276.3 620.053,-1201.9 465.515,-1201.9"/>
<text text-anchor="middle" x="480.898" y="-1235.2" font-family="Times,serif" font-size="14.00">IN</text>
<polyline fill="none" stroke="black" points="496.282,-1201.9 496.282,-1276.3 "/>
<text text-anchor="middle" x="521.395" y="-1259.7" font-family="Times,serif" font-size="14.00">inputs</text>
<polyline fill="none" stroke="black" points="496.282,-1251.5 546.508,-1251.5 "/>
<text text-anchor="middle" x="521.395" y="-1234.9" font-family="Times,serif" font-size="14.00">utility</text>
<polyline fill="none" stroke="black" points="496.282,-1226.7 546.508,-1226.7 "/>
<text text-anchor="middle" x="521.395" y="-1210.1" font-family="Times,serif" font-size="14.00"> </text>
<polyline fill="none" stroke="black" points="546.508,-1201.9 546.508,-1276.3 "/>
<text text-anchor="middle" x="583.281" y="-1259.7" font-family="Times,serif" font-size="14.00">OUT</text>
<polyline fill="none" stroke="black" points="546.508,-1251.5 620.053,-1251.5 "/>
<text text-anchor="middle" x="583.281" y="-1234.9" font-family="Times,serif" font-size="14.00">subject_id</text>
<polyline fill="none" stroke="black" points="546.508,-1226.7 620.053,-1226.7 "/>
<text text-anchor="middle" x="583.281" y="-1210.1" font-family="Times,serif" font-size="14.00">timeseries</text>
</g>
<!-- preprocsaveparams -->
<g id="node2" class="node"><title>preprocsaveparams</title>
<polygon fill="none" stroke="black" points="41.3653,-954.3 41.3653,-1028.7 240.203,-1028.7 240.203,-954.3 41.3653,-954.3"/>
<text text-anchor="middle" x="67.6388" y="-1006.1" font-family="Times,serif" font-size="14.00">IN</text>
<polyline fill="none" stroke="black" points="41.3653,-991.9 93.9123,-991.9 "/>
<text text-anchor="middle" x="67.6388" y="-969.3" font-family="Times,serif" font-size="14.00">in_file</text>
<polyline fill="none" stroke="black" points="93.9123,-954.3 93.9123,-1028.7 "/>
<text text-anchor="middle" x="134.562" y="-1012.1" font-family="Times,serif" font-size="14.00">saveparams</text>
<polyline fill="none" stroke="black" points="93.9123,-1003.9 175.211,-1003.9 "/>
<text text-anchor="middle" x="134.562" y="-987.3" font-family="Times,serif" font-size="14.00">fileutils</text>
<polyline fill="none" stroke="black" points="93.9123,-979.1 175.211,-979.1 "/>
<text text-anchor="middle" x="134.562" y="-962.5" font-family="Times,serif" font-size="14.00"> </text>
<polyline fill="none" stroke="black" points="175.211,-954.3 175.211,-1028.7 "/>
<text text-anchor="middle" x="207.707" y="-1006.1" font-family="Times,serif" font-size="14.00">OUT</text>
<polyline fill="none" stroke="black" points="175.211,-991.9 240.203,-991.9 "/>
<text text-anchor="middle" x="207.707" y="-969.3" font-family="Times,serif" font-size="14.00">json_file</text>
</g>
<!-- preprocinputs&#45;&gt;preprocsaveparams -->
<g id="edge17" class="edge"><title>preprocinputs:outtimeseries:e&#45;&gt;preprocsaveparams:ininfile:w</title>
<path fill="none" stroke="black" d="M620.784,-1214.1C626.446,-1214.1 623.726,-1205.46 619.784,-1201.4 568.575,-1148.61 360.942,-1187.47 290.784,-1165.4 160.691,-1124.48 -85.8484,-981.328 30.5217,-973.808"/>
<polygon fill="black" stroke="black" points="30.8935,-977.298 40.784,-973.5 30.6835,-970.302 30.8935,-977.298"/>
</g>
<!-- preprocprep_timeseries -->
<g id="node3" class="node"><title>preprocprep_timeseries</title>
<polygon fill="none" stroke="black" points="299.421,-1090.5 299.421,-1164.9 516.147,-1164.9 516.147,-1090.5 299.421,-1090.5"/>
<text text-anchor="middle" x="325.695" y="-1142.3" font-family="Times,serif" font-size="14.00">IN</text>
<polyline fill="none" stroke="black" points="299.421,-1128.1 351.968,-1128.1 "/>
<text text-anchor="middle" x="325.695" y="-1105.5" font-family="Times,serif" font-size="14.00">in_file</text>
<polyline fill="none" stroke="black" points="351.968,-1090.5 351.968,-1164.9 "/>
<text text-anchor="middle" x="404.284" y="-1148.3" font-family="Times,serif" font-size="14.00">prep_timeseries</text>
<polyline fill="none" stroke="black" points="351.968,-1140.1 456.6,-1140.1 "/>
<text text-anchor="middle" x="404.284" y="-1123.5" font-family="Times,serif" font-size="14.00">preproc</text>
<polyline fill="none" stroke="black" points="351.968,-1115.3 456.6,-1115.3 "/>
<text text-anchor="middle" x="404.284" y="-1098.7" font-family="Times,serif" font-size="14.00"> </text>
<polyline fill="none" stroke="black" points="456.6,-1090.5 456.6,-1164.9 "/>
<text text-anchor="middle" x="486.373" y="-1142.3" font-family="Times,serif" font-size="14.00">OUT</text>
<polyline fill="none" stroke="black" points="456.6,-1128.1 516.147,-1128.1 "/>
<text text-anchor="middle" x="486.373" y="-1105.5" font-family="Times,serif" font-size="14.00">out_file</text>
</g>
<!-- preprocinputs&#45;&gt;preprocprep_timeseries -->
<g id="edge16" class="edge"><title>preprocinputs:outtimeseries:e&#45;&gt;preprocprep_timeseries:ininfile:w</title>
<path fill="none" stroke="black" d="M620.784,-1214.1C626.446,-1214.1 623.72,-1205.47 619.784,-1201.4 520.29,-1098.52 396.114,-1271.25 299.784,-1165.4 285.983,-1150.24 277.374,-1121.99 288.884,-1112.73"/>
<polygon fill="black" stroke="black" points="290.244,-1115.97 298.784,-1109.7 288.198,-1109.28 290.244,-1115.97"/>
</g>
<!-- preprocbbregister -->
<g id="node5" class="node"><title>preprocbbregister</title>
<polygon fill="none" stroke="black" points="343.417,-793.3 343.417,-892.5 644.152,-892.5 644.152,-793.3 343.417,-793.3"/>
<text text-anchor="middle" x="399.052" y="-871.9" font-family="Times,serif" font-size="14.00">IN</text>
<polyline fill="none" stroke="black" points="343.417,-859.7 454.688,-859.7 "/>
<text text-anchor="middle" x="399.052" y="-839.1" font-family="Times,serif" font-size="14.00">inputs.subject_id</text>
<polyline fill="none" stroke="black" points="343.417,-826.9 454.688,-826.9 "/>
<text text-anchor="middle" x="399.052" y="-806.3" font-family="Times,serif" font-size="14.00">inputs.timeseries</text>
<polyline fill="none" stroke="black" points="454.688,-793.3 454.688,-892.5 "/>
<text text-anchor="middle" x="490.676" y="-871.9" font-family="Times,serif" font-size="14.00">bbregister</text>
<polyline fill="none" stroke="black" points="454.688,-859.7 526.664,-859.7 "/>
<text text-anchor="middle" x="490.676" y="-839.1" font-family="Times,serif" font-size="14.00"> </text>
<polyline fill="none" stroke="black" points="454.688,-826.9 526.664,-826.9 "/>
<text text-anchor="middle" x="490.676" y="-806.3" font-family="Times,serif" font-size="14.00"> </text>
<polyline fill="none" stroke="black" points="526.664,-793.3 526.664,-892.5 "/>
<text text-anchor="middle" x="585.408" y="-875.9" font-family="Times,serif" font-size="14.00">OUT</text>
<polyline fill="none" stroke="black" points="526.664,-867.7 644.152,-867.7 "/>
<text text-anchor="middle" x="585.408" y="-851.1" font-family="Times,serif" font-size="14.00">outputs.flirt_mat</text>
<polyline fill="none" stroke="black" points="526.664,-842.9 644.152,-842.9 "/>
<text text-anchor="middle" x="585.408" y="-826.3" font-family="Times,serif" font-size="14.00">outputs.report</text>
<polyline fill="none" stroke="black" points="526.664,-818.1 644.152,-818.1 "/>
<text text-anchor="middle" x="585.408" y="-801.5" font-family="Times,serif" font-size="14.00">outputs.tkreg_mat</text>
</g>
<!-- preprocinputs&#45;&gt;preprocbbregister -->
<g id="edge13" class="edge"><title>preprocinputs:outsubjectid:e&#45;&gt;preprocbbregister:ininputssubjectid:w</title>
<path fill="none" stroke="black" d="M620.784,-1239.1C634.561,-1239.1 701.341,-1036.8 600.784,-929 522.112,-844.659 420.337,-979.269 343.784,-893 338.472,-887.013 334.527,-863.751 336.862,-851.139"/>
<polygon fill="black" stroke="black" points="339.79,-853.063 342.784,-842.9 334.106,-848.978 339.79,-853.063"/>
</g>
<!-- preprocskullstrip -->
<g id="node6" class="node"><title>preprocskullstrip</title>
<polygon fill="none" stroke="black" points="657.351,-657.1 657.351,-756.3 954.217,-756.3 954.217,-657.1 657.351,-657.1"/>
<text text-anchor="middle" x="712.987" y="-739.7" font-family="Times,serif" font-size="14.00">IN</text>
<polyline fill="none" stroke="black" points="657.351,-731.5 768.623,-731.5 "/>
<text text-anchor="middle" x="712.987" y="-714.9" font-family="Times,serif" font-size="14.00">inputs.reg_file</text>
<polyline fill="none" stroke="black" points="657.351,-706.7 768.623,-706.7 "/>
<text text-anchor="middle" x="712.987" y="-690.1" font-family="Times,serif" font-size="14.00">inputs.subject_id</text>
<polyline fill="none" stroke="black" points="657.351,-681.9 768.623,-681.9 "/>
<text text-anchor="middle" x="712.987" y="-665.3" font-family="Times,serif" font-size="14.00">inputs.timeseries</text>
<polyline fill="none" stroke="black" points="768.623,-657.1 768.623,-756.3 "/>
<text text-anchor="middle" x="802.679" y="-735.7" font-family="Times,serif" font-size="14.00">skullstrip</text>
<polyline fill="none" stroke="black" points="768.623,-723.5 836.735,-723.5 "/>
<text text-anchor="middle" x="802.679" y="-702.9" font-family="Times,serif" font-size="14.00"> </text>
<polyline fill="none" stroke="black" points="768.623,-690.7 836.735,-690.7 "/>
<text text-anchor="middle" x="802.679" y="-670.1" font-family="Times,serif" font-size="14.00"> </text>
<polyline fill="none" stroke="black" points="836.735,-657.1 836.735,-756.3 "/>
<text text-anchor="middle" x="895.476" y="-739.7" font-family="Times,serif" font-size="14.00">OUT</text>
<polyline fill="none" stroke="black" points="836.735,-731.5 954.217,-731.5 "/>
<text text-anchor="middle" x="895.476" y="-714.9" font-family="Times,serif" font-size="14.00">outputs.mask_file</text>
<polyline fill="none" stroke="black" points="836.735,-706.7 954.217,-706.7 "/>
<text text-anchor="middle" x="895.476" y="-690.1" font-family="Times,serif" font-size="14.00">outputs.report</text>
<polyline fill="none" stroke="black" points="836.735,-681.9 954.217,-681.9 "/>
<text text-anchor="middle" x="895.476" y="-665.3" font-family="Times,serif" font-size="14.00">outputs.timeseries</text>
</g>
<!-- preprocinputs&#45;&gt;preprocskullstrip -->
<g id="edge15" class="edge"><title>preprocinputs:outsubjectid:e&#45;&gt;preprocskullstrip:ininputssubjectid:w</title>
<path fill="none" stroke="black" d="M620.784,-1239.1C820.236,-1239.1 694.722,-990.425 667.784,-792.8 662.414,-753.404 621.71,-704.845 646.78,-696.086"/>
<polygon fill="black" stroke="black" points="647.359,-699.54 656.784,-694.7 646.398,-692.606 647.359,-699.54"/>
</g>
<!-- preprocconfounds -->
<g id="node10" class="node"><title>preprocconfounds</title>
<polygon fill="none" stroke="black" points="1123.47,-384.7 1123.47,-508.7 1456.09,-508.7 1456.09,-384.7 1123.47,-384.7"/>
<text text-anchor="middle" x="1183" y="-492.1" font-family="Times,serif" font-size="14.00">IN</text>
<polyline fill="none" stroke="black" points="1123.47,-483.9 1242.52,-483.9 "/>
<text text-anchor="middle" x="1183" y="-467.3" font-family="Times,serif" font-size="14.00">inputs.brain_mask</text>
<polyline fill="none" stroke="black" points="1123.47,-459.1 1242.52,-459.1 "/>
<text text-anchor="middle" x="1183" y="-442.5" font-family="Times,serif" font-size="14.00">inputs.reg_file</text>
<polyline fill="none" stroke="black" points="1123.47,-434.3 1242.52,-434.3 "/>
<text text-anchor="middle" x="1183" y="-417.7" font-family="Times,serif" font-size="14.00">inputs.subject_id</text>
<polyline fill="none" stroke="black" points="1123.47,-409.5 1242.52,-409.5 "/>
<text text-anchor="middle" x="1183" y="-392.9" font-family="Times,serif" font-size="14.00">inputs.timeseries</text>
<polyline fill="none" stroke="black" points="1242.52,-384.7 1242.52,-508.7 "/>
<text text-anchor="middle" x="1279.68" y="-484.1" font-family="Times,serif" font-size="14.00">confounds</text>
<polyline fill="none" stroke="black" points="1242.52,-467.9 1316.84,-467.9 "/>
<text text-anchor="middle" x="1279.68" y="-442.8" font-family="Times,serif" font-size="14.00"> </text>
<polyline fill="none" stroke="black" points="1242.52,-426.1 1316.84,-426.1 "/>
<text text-anchor="middle" x="1279.68" y="-401.5" font-family="Times,serif" font-size="14.00"> </text>
<polyline fill="none" stroke="black" points="1316.84,-384.7 1316.84,-508.7 "/>
<text text-anchor="middle" x="1386.46" y="-473.6" font-family="Times,serif" font-size="14.00">OUT</text>
<polyline fill="none" stroke="black" points="1316.84,-446.9 1456.09,-446.9 "/>
<text text-anchor="middle" x="1386.46" y="-411.8" font-family="Times,serif" font-size="14.00">outputs.confound_file</text>
</g>
<!-- preprocinputs&#45;&gt;preprocconfounds -->
<g id="edge14" class="edge"><title>preprocinputs:outsubjectid:e&#45;&gt;preprocconfounds:ininputssubjectid:w</title>
<path fill="none" stroke="black" d="M620.784,-1239.1C793.908,-1239.1 1359.78,-1165.62 1359.78,-992.5 1359.78,-992.5 1359.78,-992.5 1359.78,-705.7 1359.78,-632.594 1376.57,-595.782 1323.78,-545.2 1258.58,-482.709 1182.11,-578.158 1123.78,-509.2 1101.12,-482.406 1086.88,-432.722 1112.89,-423.274"/>
<polygon fill="black" stroke="black" points="1113.46,-426.727 1122.78,-421.7 1112.36,-419.814 1113.46,-426.727"/>
</g>
<!-- preprocoutputs -->
<g id="node12" class="node"><title>preprocoutputs</title>
<polygon fill="none" stroke="black" points="467.69,-0.5 467.69,-347.7 717.878,-347.7 717.878,-0.5 467.69,-0.5"/>
<text text-anchor="middle" x="541.788" y="-331.1" font-family="Times,serif" font-size="14.00">IN</text>
<polyline fill="none" stroke="black" points="467.69,-322.9 615.886,-322.9 "/>
<text text-anchor="middle" x="541.788" y="-306.3" font-family="Times,serif" font-size="14.00">artifact_report</text>
<polyline fill="none" stroke="black" points="467.69,-298.1 615.886,-298.1 "/>
<text text-anchor="middle" x="541.788" y="-281.5" font-family="Times,serif" font-size="14.00">confound_file</text>
<polyline fill="none" stroke="black" points="467.69,-273.3 615.886,-273.3 "/>
<text text-anchor="middle" x="541.788" y="-256.7" font-family="Times,serif" font-size="14.00">coreg_report</text>
<polyline fill="none" stroke="black" points="467.69,-248.5 615.886,-248.5 "/>
<text text-anchor="middle" x="541.788" y="-231.9" font-family="Times,serif" font-size="14.00">example_func</text>
<polyline fill="none" stroke="black" points="467.69,-223.7 615.886,-223.7 "/>
<text text-anchor="middle" x="541.788" y="-207.1" font-family="Times,serif" font-size="14.00">flirt_affine</text>
<polyline fill="none" stroke="black" points="467.69,-198.9 615.886,-198.9 "/>
<text text-anchor="middle" x="541.788" y="-182.3" font-family="Times,serif" font-size="14.00">functional_mask</text>
<polyline fill="none" stroke="black" points="467.69,-174.1 615.886,-174.1 "/>
<text text-anchor="middle" x="541.788" y="-157.5" font-family="Times,serif" font-size="14.00">json_file</text>
<polyline fill="none" stroke="black" points="467.69,-149.3 615.886,-149.3 "/>
<text text-anchor="middle" x="541.788" y="-132.7" font-family="Times,serif" font-size="14.00">mask_report</text>
<polyline fill="none" stroke="black" points="467.69,-124.5 615.886,-124.5 "/>
<text text-anchor="middle" x="541.788" y="-107.9" font-family="Times,serif" font-size="14.00">mean_func</text>
<polyline fill="none" stroke="black" points="467.69,-99.7 615.886,-99.7 "/>
<text text-anchor="middle" x="541.788" y="-83.1" font-family="Times,serif" font-size="14.00">realign_report</text>
<polyline fill="none" stroke="black" points="467.69,-74.9 615.886,-74.9 "/>
<text text-anchor="middle" x="541.788" y="-58.3" font-family="Times,serif" font-size="14.00">smoothed_timeseries</text>
<polyline fill="none" stroke="black" points="467.69,-50.1 615.886,-50.1 "/>
<text text-anchor="middle" x="541.788" y="-33.5" font-family="Times,serif" font-size="14.00">tkreg_affine</text>
<polyline fill="none" stroke="black" points="467.69,-25.3 615.886,-25.3 "/>
<text text-anchor="middle" x="541.788" y="-8.7" font-family="Times,serif" font-size="14.00">unsmoothed_timeseries</text>
<polyline fill="none" stroke="black" points="615.886,-0.5 615.886,-347.7 "/>
<text text-anchor="middle" x="644.499" y="-286.1" font-family="Times,serif" font-size="14.00">outputs</text>
<polyline fill="none" stroke="black" points="615.886,-232.9 673.112,-232.9 "/>
<text text-anchor="middle" x="644.499" y="-170.8" font-family="Times,serif" font-size="14.00">utility</text>
<polyline fill="none" stroke="black" points="615.886,-117.1 673.112,-117.1 "/>
<text text-anchor="middle" x="644.499" y="-55" font-family="Times,serif" font-size="14.00"> </text>
<polyline fill="none" stroke="black" points="673.112,-0.5 673.112,-347.7 "/>
<text text-anchor="middle" x="695.495" y="-170.1" font-family="Times,serif" font-size="14.00">OUT</text>
</g>
<!-- preprocsaveparams&#45;&gt;preprocoutputs -->
<g id="edge24" class="edge"><title>preprocsaveparams:outjsonfile:e&#45;&gt;preprocoutputs:injsonfile:w</title>
<path fill="none" stroke="black" d="M240.784,-973.5C255.551,-973.5 239.784,-722.467 239.784,-707.7 239.784,-707.7 239.784,-707.7 239.784,-581.9 239.784,-373.21 254.2,-168.794 456.684,-162.261"/>
<polygon fill="black" stroke="black" points="456.841,-165.759 466.784,-162.1 456.729,-158.76 456.841,-165.759"/>
</g>
<!-- preprocrealignment -->
<g id="node4" class="node"><title>preprocrealignment</title>
<polygon fill="none" stroke="black" points="258.097,-929.5 258.097,-1053.5 591.471,-1053.5 591.471,-929.5 258.097,-929.5"/>
<text text-anchor="middle" x="313.338" y="-1018.4" font-family="Times,serif" font-size="14.00">IN</text>
<polyline fill="none" stroke="black" points="258.097,-991.7 368.579,-991.7 "/>
<text text-anchor="middle" x="313.338" y="-956.6" font-family="Times,serif" font-size="14.00">inputs.timeseries</text>
<polyline fill="none" stroke="black" points="368.579,-929.5 368.579,-1053.5 "/>
<text text-anchor="middle" x="410.012" y="-1028.9" font-family="Times,serif" font-size="14.00">realignment</text>
<polyline fill="none" stroke="black" points="368.579,-1012.7 451.445,-1012.7 "/>
<text text-anchor="middle" x="410.012" y="-987.6" font-family="Times,serif" font-size="14.00"> </text>
<polyline fill="none" stroke="black" points="368.579,-970.9 451.445,-970.9 "/>
<text text-anchor="middle" x="410.012" y="-946.3" font-family="Times,serif" font-size="14.00"> </text>
<polyline fill="none" stroke="black" points="451.445,-929.5 451.445,-1053.5 "/>
<text text-anchor="middle" x="521.458" y="-1036.9" font-family="Times,serif" font-size="14.00">OUT</text>
<polyline fill="none" stroke="black" points="451.445,-1028.7 591.471,-1028.7 "/>
<text text-anchor="middle" x="521.458" y="-1012.1" font-family="Times,serif" font-size="14.00">outputs.example_func</text>
<polyline fill="none" stroke="black" points="451.445,-1003.9 591.471,-1003.9 "/>
<text text-anchor="middle" x="521.458" y="-987.3" font-family="Times,serif" font-size="14.00">outputs.motion_file</text>
<polyline fill="none" stroke="black" points="451.445,-979.1 591.471,-979.1 "/>
<text text-anchor="middle" x="521.458" y="-962.5" font-family="Times,serif" font-size="14.00">outputs.report</text>
<polyline fill="none" stroke="black" points="451.445,-954.3 591.471,-954.3 "/>
<text text-anchor="middle" x="521.458" y="-937.7" font-family="Times,serif" font-size="14.00">outputs.timeseries</text>
</g>
<!-- preprocprep_timeseries&#45;&gt;preprocrealignment -->
<g id="edge18" class="edge"><title>preprocprep_timeseries:outoutfile:e&#45;&gt;preprocrealignment:ininputstimeseries:w</title>
<path fill="none" stroke="black" d="M516.784,-1109.7C525.551,-1109.7 521.705,-1096.47 515.784,-1090 437.594,-1004.61 334.25,-1140.93 257.784,-1054 252.316,-1047.78 248.33,-992.101 252.194,-969.737"/>
<polygon fill="black" stroke="black" points="255.468,-971.013 256.784,-960.5 249.199,-967.898 255.468,-971.013"/>
</g>
<!-- preprocrealignment&#45;&gt;preprocbbregister -->
<g id="edge22" class="edge"><title>preprocrealignment:outoutputstimeseries:e&#45;&gt;preprocbbregister:ininputstimeseries:w</title>
<path fill="none" stroke="black" d="M592.784,-941.5C598.357,-941.5 595.596,-933.066 591.784,-929 515.602,-847.752 417.175,-976.777 343.784,-893 334.015,-881.849 327.416,-834.62 335.071,-817.301"/>
<polygon fill="black" stroke="black" points="337.323,-819.979 342.784,-810.9 332.853,-814.592 337.323,-819.979"/>
</g>
<!-- preprocrealignment&#45;&gt;preprocskullstrip -->
<g id="edge23" class="edge"><title>preprocrealignment:outoutputstimeseries:e&#45;&gt;preprocskullstrip:ininputstimeseries:w</title>
<path fill="none" stroke="black" d="M592.784,-941.5C627.073,-941.5 637.732,-923.809 652.784,-893 655.156,-888.144 651.723,-722.307 654.9,-679.633"/>
<polygon fill="black" stroke="black" points="658.359,-680.177 656.784,-669.7 651.481,-678.872 658.359,-680.177"/>
</g>
<!-- preprocartifacts -->
<g id="node11" class="node"><title>preprocartifacts</title>
<polygon fill="none" stroke="black" points="1474.08,-397.1 1474.08,-496.3 1681.48,-496.3 1681.48,-397.1 1474.08,-397.1"/>
<text text-anchor="middle" x="1514.75" y="-479.7" font-family="Times,serif" font-size="14.00">IN</text>
<polyline fill="none" stroke="black" points="1474.08,-471.5 1555.41,-471.5 "/>
<text text-anchor="middle" x="1514.75" y="-454.9" font-family="Times,serif" font-size="14.00">mask_file</text>
<polyline fill="none" stroke="black" points="1474.08,-446.7 1555.41,-446.7 "/>
<text text-anchor="middle" x="1514.75" y="-430.1" font-family="Times,serif" font-size="14.00">motion_file</text>
<polyline fill="none" stroke="black" points="1474.08,-421.9 1555.41,-421.9 "/>
<text text-anchor="middle" x="1514.75" y="-405.3" font-family="Times,serif" font-size="14.00">timeseries</text>
<polyline fill="none" stroke="black" points="1555.41,-397.1 1555.41,-496.3 "/>
<text text-anchor="middle" x="1585.95" y="-475.7" font-family="Times,serif" font-size="14.00">artifacts</text>
<polyline fill="none" stroke="black" points="1555.41,-463.5 1616.49,-463.5 "/>
<text text-anchor="middle" x="1585.95" y="-442.9" font-family="Times,serif" font-size="14.00">preproc</text>
<polyline fill="none" stroke="black" points="1555.41,-430.7 1616.49,-430.7 "/>
<text text-anchor="middle" x="1585.95" y="-410.1" font-family="Times,serif" font-size="14.00"> </text>
<polyline fill="none" stroke="black" points="1616.49,-397.1 1616.49,-496.3 "/>
<text text-anchor="middle" x="1648.99" y="-467.7" font-family="Times,serif" font-size="14.00">OUT</text>
<polyline fill="none" stroke="black" points="1616.49,-447.5 1681.48,-447.5 "/>
<text text-anchor="middle" x="1648.99" y="-418.4" font-family="Times,serif" font-size="14.00">out_files</text>
</g>
<!-- preprocrealignment&#45;&gt;preprocartifacts -->
<g id="edge20" class="edge"><title>preprocrealignment:outoutputsmotionfile:e&#45;&gt;preprocartifacts:inmotionfile:w</title>
<path fill="none" stroke="black" d="M592.784,-991.5C985.501,-991.5 1115.89,-897.081 1394.78,-620.6 1436.31,-579.433 1445.61,-564.443 1464.78,-509.2 1466.87,-503.178 1465.57,-462.707 1468.58,-444.067"/>
<polygon fill="black" stroke="black" points="1471.89,-445.257 1472.78,-434.7 1465.5,-442.393 1471.89,-445.257"/>
</g>
<!-- preprocrealignment&#45;&gt;preprocoutputs -->
<g id="edge19" class="edge"><title>preprocrealignment:outoutputsexamplefunc:e&#45;&gt;preprocoutputs:inexamplefunc:w</title>
<path fill="none" stroke="black" d="M592.784,-1016.5C597.645,-1016.5 595.024,-932.625 591.784,-929 505.234,-832.163 393.865,-984.594 301.784,-893 242.908,-834.435 277.784,-790.743 277.784,-707.7 277.784,-707.7 277.784,-707.7 277.784,-581.9 277.784,-410.174 291.102,-242.768 456.705,-236.294"/>
<polygon fill="black" stroke="black" points="456.853,-239.792 466.784,-236.1 456.718,-232.793 456.853,-239.792"/>
</g>
<!-- preprocrealignment&#45;&gt;preprocoutputs -->
<g id="edge21" class="edge"><title>preprocrealignment:outoutputsreport:e&#45;&gt;preprocoutputs:inrealignreport:w</title>
<path fill="none" stroke="black" d="M592.784,-966.5C596.952,-966.5 594.561,-932.108 591.784,-929 514.943,-842.988 414.818,-976.05 334.784,-893 277.337,-833.388 315.784,-790.487 315.784,-707.7 315.784,-707.7 315.784,-707.7 315.784,-581.9 315.784,-355.457 239.232,-95.1107 456.554,-87.281"/>
<polygon fill="black" stroke="black" points="456.848,-90.7765 466.784,-87.1 456.724,-83.7776 456.848,-90.7765"/>
</g>
<!-- preprocbbregister&#45;&gt;preprocskullstrip -->
<g id="edge6" class="edge"><title>preprocbbregister:outoutputstkregmat:e&#45;&gt;preprocskullstrip:ininputsregfile:w</title>
<path fill="none" stroke="black" d="M644.784,-805.9C679.32,-805.9 631.742,-737.94 647.032,-722.012"/>
<polygon fill="black" stroke="black" points="648.441,-725.23 656.784,-718.7 646.19,-718.602 648.441,-725.23"/>
</g>
<!-- preprocbbregister&#45;&gt;preprocconfounds -->
<g id="edge4" class="edge"><title>preprocbbregister:outoutputstkregmat:e&#45;&gt;preprocconfounds:ininputsregfile:w</title>
<path fill="none" stroke="black" d="M644.784,-805.9C801.191,-805.9 1234.82,-749.244 1323.78,-620.6 1342.84,-593.037 1345.28,-570.909 1323.78,-545.2 1265.85,-475.91 1182.27,-578.025 1123.78,-509.2 1108.46,-491.172 1098.37,-458.526 1112.86,-449.231"/>
<polygon fill="black" stroke="black" points="1113.96,-452.563 1122.78,-446.7 1112.23,-445.78 1113.96,-452.563"/>
</g>
<!-- preprocbbregister&#45;&gt;preprocoutputs -->
<g id="edge2" class="edge"><title>preprocbbregister:outoutputsflirtmat:e&#45;&gt;preprocoutputs:inflirtaffine:w</title>
<path fill="none" stroke="black" d="M644.784,-854.9C651.685,-854.9 648.366,-797.96 643.784,-792.8 564.566,-703.598 456.281,-846.637 377.784,-756.8 299.228,-666.896 341.357,-236.479 456.529,-212.172"/>
<polygon fill="black" stroke="black" points="457.202,-215.621 466.784,-211.1 456.474,-208.659 457.202,-215.621"/>
</g>
<!-- preprocbbregister&#45;&gt;preprocoutputs -->
<g id="edge3" class="edge"><title>preprocbbregister:outoutputsreport:e&#45;&gt;preprocoutputs:incoregreport:w</title>
<path fill="none" stroke="black" d="M644.784,-830.9C649.019,-830.9 646.577,-795.983 643.784,-792.8 576.122,-715.688 482.429,-834.793 415.784,-756.8 346.094,-675.243 355.367,-286.5 456.691,-262.283"/>
<polygon fill="black" stroke="black" points="457.259,-265.74 466.784,-261.1 456.445,-258.788 457.259,-265.74"/>
</g>
<!-- preprocbbregister&#45;&gt;preprocoutputs -->
<g id="edge5" class="edge"><title>preprocbbregister:outoutputstkregmat:e&#45;&gt;preprocoutputs:intkregaffine:w</title>
<path fill="none" stroke="black" d="M644.784,-805.9C650.623,-805.9 646.274,-798.082 643.784,-792.8 596.716,-692.945 516.854,-717.94 464.784,-620.6 401.966,-503.168 451.153,-115.351 464.163,-48.0867"/>
<polygon fill="black" stroke="black" points="467.631,-48.6609 466.784,-38.1 460.86,-46.8841 467.631,-48.6609"/>
</g>
<!-- preprocsusan_smooth -->
<g id="node7" class="node"><title>preprocsusan_smooth</title>
<polygon fill="none" stroke="black" points="571.75,-545.7 571.75,-620.1 965.818,-620.1 965.818,-545.7 571.75,-545.7"/>
<text text-anchor="middle" x="637.101" y="-603.5" font-family="Times,serif" font-size="14.00">IN</text>
<polyline fill="none" stroke="black" points="571.75,-595.3 702.452,-595.3 "/>
<text text-anchor="middle" x="637.101" y="-578.7" font-family="Times,serif" font-size="14.00">inputnode.in_files</text>
<polyline fill="none" stroke="black" points="571.75,-570.5 702.452,-570.5 "/>
<text text-anchor="middle" x="637.101" y="-553.9" font-family="Times,serif" font-size="14.00">inputnode.mask_file</text>
<polyline fill="none" stroke="black" points="702.452,-545.7 702.452,-620.1 "/>
<text text-anchor="middle" x="750.116" y="-603.5" font-family="Times,serif" font-size="14.00">susan_smooth</text>
<polyline fill="none" stroke="black" points="702.452,-595.3 797.781,-595.3 "/>
<text text-anchor="middle" x="750.116" y="-578.7" font-family="Times,serif" font-size="14.00"> </text>
<polyline fill="none" stroke="black" points="702.452,-570.5 797.781,-570.5 "/>
<text text-anchor="middle" x="750.116" y="-553.9" font-family="Times,serif" font-size="14.00"> </text>
<polyline fill="none" stroke="black" points="797.781,-545.7 797.781,-620.1 "/>
<text text-anchor="middle" x="881.8" y="-597.5" font-family="Times,serif" font-size="14.00">OUT</text>
<polyline fill="none" stroke="black" points="797.781,-583.3 965.818,-583.3 "/>
<text text-anchor="middle" x="881.8" y="-560.7" font-family="Times,serif" font-size="14.00">outputnode.smoothed_files</text>
</g>
<!-- preprocskullstrip&#45;&gt;preprocsusan_smooth -->
<g id="edge30" class="edge"><title>preprocskullstrip:outoutputsmaskfile:e&#45;&gt;preprocsusan_smooth:ininputnodemaskfile:w</title>
<path fill="none" stroke="black" d="M954.784,-718.7C982.388,-718.7 972.528,-676.864 953.784,-656.6 895.885,-594.008 629.678,-683.197 571.784,-620.6 564.54,-612.767 559.634,-580.175 563.986,-565.327"/>
<polygon fill="black" stroke="black" points="566.614,-567.64 570.784,-557.9 561.45,-562.913 566.614,-567.64"/>
</g>
<!-- preprocskullstrip&#45;&gt;preprocsusan_smooth -->
<g id="edge33" class="edge"><title>preprocskullstrip:outoutputstimeseries:e&#45;&gt;preprocsusan_smooth:ininputnodeinfiles:w</title>
<path fill="none" stroke="black" d="M954.784,-669.7C960.623,-669.7 957.876,-660.765 953.784,-656.6 894.031,-595.775 630.008,-682.89 571.784,-620.6 563.468,-611.703 557.86,-595.833 561.844,-587.819"/>
<polygon fill="black" stroke="black" points="563.71,-590.787 570.784,-582.9 560.335,-584.654 563.71,-590.787"/>
</g>
<!-- preprocfilter_smooth -->
<g id="node8" class="node"><title>preprocfilter_smooth</title>
<polygon fill="none" stroke="black" points="544.086,-409.5 544.086,-483.9 863.483,-483.9 863.483,-409.5 544.086,-409.5"/>
<text text-anchor="middle" x="599.326" y="-467.3" font-family="Times,serif" font-size="14.00">IN</text>
<polyline fill="none" stroke="black" points="544.086,-459.1 654.567,-459.1 "/>
<text text-anchor="middle" x="599.326" y="-442.5" font-family="Times,serif" font-size="14.00">inputs.mask_file</text>
<polyline fill="none" stroke="black" points="544.086,-434.3 654.567,-434.3 "/>
<text text-anchor="middle" x="599.326" y="-417.7" font-family="Times,serif" font-size="14.00">inputs.timeseries</text>
<polyline fill="none" stroke="black" points="654.567,-409.5 654.567,-483.9 "/>
<text text-anchor="middle" x="700.284" y="-467.3" font-family="Times,serif" font-size="14.00">filter_smooth</text>
<polyline fill="none" stroke="black" points="654.567,-459.1 746.001,-459.1 "/>
<text text-anchor="middle" x="700.284" y="-442.5" font-family="Times,serif" font-size="14.00"> </text>
<polyline fill="none" stroke="black" points="654.567,-434.3 746.001,-434.3 "/>
<text text-anchor="middle" x="700.284" y="-417.7" font-family="Times,serif" font-size="14.00"> </text>
<polyline fill="none" stroke="black" points="746.001,-409.5 746.001,-483.9 "/>
<text text-anchor="middle" x="804.742" y="-461.3" font-family="Times,serif" font-size="14.00">OUT</text>
<polyline fill="none" stroke="black" points="746.001,-447.1 863.483,-447.1 "/>
<text text-anchor="middle" x="804.742" y="-424.5" font-family="Times,serif" font-size="14.00">outputs.timeseries</text>
</g>
<!-- preprocskullstrip&#45;&gt;preprocfilter_smooth -->
<g id="edge28" class="edge"><title>preprocskullstrip:outoutputsmaskfile:e&#45;&gt;preprocfilter_smooth:ininputsmaskfile:w</title>
<path fill="none" stroke="black" d="M954.784,-718.7C982.388,-718.7 972.55,-676.843 953.784,-656.6 894.464,-592.609 625.91,-680.839 562.784,-620.6 537.39,-596.368 509.867,-474.274 533.313,-450.658"/>
<polygon fill="black" stroke="black" points="534.907,-453.785 542.784,-446.7 532.208,-447.327 534.907,-453.785"/>
</g>
<!-- preprocfilter_rough -->
<g id="node9" class="node"><title>preprocfilter_rough</title>
<polygon fill="none" stroke="black" points="983.368,-545.7 983.368,-620.1 1294.2,-620.1 1294.2,-545.7 983.368,-545.7"/>
<text text-anchor="middle" x="1038.61" y="-603.5" font-family="Times,serif" font-size="14.00">IN</text>
<polyline fill="none" stroke="black" points="983.368,-595.3 1093.85,-595.3 "/>
<text text-anchor="middle" x="1038.61" y="-578.7" font-family="Times,serif" font-size="14.00">inputs.mask_file</text>
<polyline fill="none" stroke="black" points="983.368,-570.5 1093.85,-570.5 "/>
<text text-anchor="middle" x="1038.61" y="-553.9" font-family="Times,serif" font-size="14.00">inputs.timeseries</text>
<polyline fill="none" stroke="black" points="1093.85,-545.7 1093.85,-620.1 "/>
<text text-anchor="middle" x="1135.28" y="-603.5" font-family="Times,serif" font-size="14.00">filter_rough</text>
<polyline fill="none" stroke="black" points="1093.85,-595.3 1176.72,-595.3 "/>
<text text-anchor="middle" x="1135.28" y="-578.7" font-family="Times,serif" font-size="14.00"> </text>
<polyline fill="none" stroke="black" points="1093.85,-570.5 1176.72,-570.5 "/>
<text text-anchor="middle" x="1135.28" y="-553.9" font-family="Times,serif" font-size="14.00"> </text>
<polyline fill="none" stroke="black" points="1176.72,-545.7 1176.72,-620.1 "/>
<text text-anchor="middle" x="1235.46" y="-603.5" font-family="Times,serif" font-size="14.00">OUT</text>
<polyline fill="none" stroke="black" points="1176.72,-595.3 1294.2,-595.3 "/>
<text text-anchor="middle" x="1235.46" y="-578.7" font-family="Times,serif" font-size="14.00">outputs.mean_file</text>
<polyline fill="none" stroke="black" points="1176.72,-570.5 1294.2,-570.5 "/>
<text text-anchor="middle" x="1235.46" y="-553.9" font-family="Times,serif" font-size="14.00">outputs.timeseries</text>
</g>
<!-- preprocskullstrip&#45;&gt;preprocfilter_rough -->
<g id="edge27" class="edge"><title>preprocskullstrip:outoutputsmaskfile:e&#45;&gt;preprocfilter_rough:ininputsmaskfile:w</title>
<path fill="none" stroke="black" d="M954.784,-718.7C955.589,-718.7 973.941,-623.804 980.504,-592.666"/>
<polygon fill="black" stroke="black" points="983.919,-593.434 982.784,-582.9 977.102,-591.843 983.919,-593.434"/>
</g>
<!-- preprocskullstrip&#45;&gt;preprocfilter_rough -->
<g id="edge32" class="edge"><title>preprocskullstrip:outoutputstimeseries:e&#45;&gt;preprocfilter_rough:ininputstimeseries:w</title>
<path fill="none" stroke="black" d="M954.784,-669.7C978.347,-669.7 968.798,-643.39 974.784,-620.6 977.46,-610.411 972.721,-580.237 976.11,-565.786"/>
<polygon fill="black" stroke="black" points="978.996,-567.794 982.784,-557.9 973.652,-563.272 978.996,-567.794"/>
</g>
<!-- preprocskullstrip&#45;&gt;preprocconfounds -->
<g id="edge26" class="edge"><title>preprocskullstrip:outoutputsmaskfile:e&#45;&gt;preprocconfounds:ininputsbrainmask:w</title>
<path fill="none" stroke="black" d="M954.784,-718.7C1035.13,-718.7 1254.29,-684.66 1302.78,-620.6 1323.01,-593.882 1324.02,-571.127 1302.78,-545.2 1251.37,-482.417 1176.03,-571.292 1123.78,-509.2 1115.98,-499.931 1110.19,-484.335 1114,-476.499"/>
<polygon fill="black" stroke="black" points="1115.69,-479.565 1122.78,-471.7 1112.33,-473.422 1115.69,-479.565"/>
</g>
<!-- preprocskullstrip&#45;&gt;preprocartifacts -->
<g id="edge25" class="edge"><title>preprocskullstrip:outoutputsmaskfile:e&#45;&gt;preprocartifacts:inmaskfile:w</title>
<path fill="none" stroke="black" d="M954.784,-718.7C1124.48,-718.7 1172.05,-696.582 1323.78,-620.6 1395.2,-584.84 1424.44,-578.123 1464.78,-509.2 1468.86,-502.229 1465.44,-479.646 1467.21,-467.172"/>
<polygon fill="black" stroke="black" points="1470.21,-468.977 1472.78,-458.7 1464.36,-465.129 1470.21,-468.977"/>
</g>
<!-- preprocskullstrip&#45;&gt;preprocoutputs -->
<g id="edge29" class="edge"><title>preprocskullstrip:outoutputsmaskfile:e&#45;&gt;preprocoutputs:infunctionalmask:w</title>
<path fill="none" stroke="black" d="M954.784,-718.7C982.388,-718.7 972.692,-676.711 953.784,-656.6 883.247,-581.574 564.968,-693.047 491.784,-620.6 459.767,-588.905 423.736,-239.141 458.062,-191.469"/>
<polygon fill="black" stroke="black" points="460.103,-194.323 466.784,-186.1 456.433,-188.362 460.103,-194.323"/>
</g>
<!-- preprocskullstrip&#45;&gt;preprocoutputs -->
<g id="edge31" class="edge"><title>preprocskullstrip:outoutputsreport:e&#45;&gt;preprocoutputs:inmaskreport:w</title>
<path fill="none" stroke="black" d="M954.784,-694.7C971.723,-694.7 965.408,-668.922 953.784,-656.6 888.743,-587.655 600.198,-682.92 528.784,-620.6 482.045,-579.813 474.749,-409.84 467.784,-348.2 457.661,-258.612 379.433,-146.271 456.589,-137.631"/>
<polygon fill="black" stroke="black" points="456.98,-141.116 466.784,-137.1 456.615,-134.125 456.98,-141.116"/>
</g>
<!-- preprocsusan_smooth&#45;&gt;preprocfilter_smooth -->
<g id="edge34" class="edge"><title>preprocsusan_smooth:outoutputnodesmoothedfiles:e&#45;&gt;preprocfilter_smooth:ininputstimeseries:w</title>
<path fill="none" stroke="black" d="M966.784,-564.9C975.551,-564.9 971.69,-551.679 965.784,-545.2 838.122,-405.165 668.992,-626.633 543.784,-484.4 528.102,-466.586 518.193,-433.644 532.807,-424.257"/>
<polygon fill="black" stroke="black" points="533.966,-427.573 542.784,-421.7 532.228,-420.792 533.966,-427.573"/>
</g>
<!-- preprocfilter_smooth&#45;&gt;preprocoutputs -->
<g id="edge12" class="edge"><title>preprocfilter_smooth:outoutputstimeseries:e&#45;&gt;preprocoutputs:insmoothedtimeseries:w</title>
<path fill="none" stroke="black" d="M864.784,-428.7C873.551,-428.7 869.66,-415.506 863.784,-409 804.108,-342.929 525.883,-415.661 467.784,-348.2 387.074,-254.485 342.127,-72.4071 456.737,-62.5198"/>
<polygon fill="black" stroke="black" points="456.939,-66.0145 466.784,-62.1 456.647,-59.0206 456.939,-66.0145"/>
</g>
<!-- preprocfilter_rough&#45;&gt;preprocconfounds -->
<g id="edge10" class="edge"><title>preprocfilter_rough:outoutputstimeseries:e&#45;&gt;preprocconfounds:ininputstimeseries:w</title>
<path fill="none" stroke="black" d="M1294.78,-557.9C1300.45,-557.9 1297.52,-549.455 1293.78,-545.2 1242.84,-487.155 1172.68,-568.985 1123.78,-509.2 1094.48,-473.366 1075.72,-407.46 1112.77,-397.875"/>
<polygon fill="black" stroke="black" points="1113.26,-401.342 1122.78,-396.7 1112.44,-394.39 1113.26,-401.342"/>
</g>
<!-- preprocfilter_rough&#45;&gt;preprocartifacts -->
<g id="edge9" class="edge"><title>preprocfilter_rough:outoutputstimeseries:e&#45;&gt;preprocartifacts:intimeseries:w</title>
<path fill="none" stroke="black" d="M1294.78,-557.9C1334.08,-557.9 1439.89,-539.607 1464.78,-509.2 1470.44,-502.294 1464.99,-442.074 1468.43,-418.814"/>
<polygon fill="black" stroke="black" points="1471.63,-420.232 1472.78,-409.7 1465.31,-417.212 1471.63,-420.232"/>
</g>
<!-- preprocfilter_rough&#45;&gt;preprocoutputs -->
<g id="edge8" class="edge"><title>preprocfilter_rough:outoutputsmeanfile:e&#45;&gt;preprocoutputs:inmeanfunc:w</title>
<path fill="none" stroke="black" d="M1294.78,-582.9C1298.97,-582.9 1296.57,-548.328 1293.78,-545.2 1256,-502.806 1093.3,-530.817 1040.78,-509.2 954.723,-473.773 959.748,-417.348 872.784,-384.2 788.355,-352.018 528.922,-414.73 467.784,-348.2 399.139,-273.501 364.209,-122.558 456.79,-112.617"/>
<polygon fill="black" stroke="black" points="456.978,-116.112 466.784,-112.1 456.617,-109.121 456.978,-116.112"/>
</g>
<!-- preprocfilter_rough&#45;&gt;preprocoutputs -->
<g id="edge11" class="edge"><title>preprocfilter_rough:outoutputstimeseries:e&#45;&gt;preprocoutputs:inunsmoothedtimeseries:w</title>
<path fill="none" stroke="black" d="M1294.78,-557.9C1300.45,-557.9 1297.54,-549.436 1293.78,-545.2 1239.94,-484.485 1187.62,-544.984 1114.78,-509.2 1038.72,-471.828 1049.07,-416.669 970.784,-384.2 919.027,-362.733 506.025,-389.153 467.784,-348.2 368.52,-241.896 320.143,-23.6408 456.635,-13.4684"/>
<polygon fill="black" stroke="black" points="456.918,-16.9606 466.784,-13.1 456.664,-9.96518 456.918,-16.9606"/>
</g>
<!-- preprocconfounds&#45;&gt;preprocoutputs -->
<g id="edge7" class="edge"><title>preprocconfounds:outoutputsconfoundfile:e&#45;&gt;preprocoutputs:inconfoundfile:w</title>
<path fill="none" stroke="black" d="M1456.78,-415.7C1463.79,-415.7 1460.72,-389.164 1455.78,-384.2 1378.29,-306.342 544.667,-426.661 467.784,-348.2 451.332,-331.411 442.158,-298.183 456.842,-288.689"/>
<polygon fill="black" stroke="black" points="457.989,-292.007 466.784,-286.1 456.225,-285.233 457.989,-292.007"/>
</g>
<!-- preprocartifacts&#45;&gt;preprocoutputs -->
<g id="edge1" class="edge"><title>preprocartifacts:outoutfiles:e&#45;&gt;preprocoutputs:inartifactreport:w</title>
<path fill="none" stroke="black" d="M1682.78,-422.7C1694.39,-422.7 1689.92,-404.885 1681.78,-396.6 1614.12,-327.654 1561.28,-388.699 1464.78,-384.2 1409.42,-381.619 506.782,-387.584 467.784,-348.2 459.031,-339.361 453.459,-322.956 457.826,-314.865"/>
<polygon fill="black" stroke="black" points="459.599,-317.887 466.784,-310.1 456.312,-311.707 459.599,-317.887"/>
</g>
</g>
</svg>
