<?xml version="1.0" encoding="UTF-8" standalone="no"?>
<!DOCTYPE svg PUBLIC "-//W3C//DTD SVG 1.1//EN"
 "http://www.w3.org/Graphics/SVG/1.1/DTD/svg11.dtd">
<!-- Generated by graphviz version 2.38.0 (20140413.2041)
 -->
<!-- Pages: 1 -->
<svg width="821pt" height="548pt"
 viewBox="0.00 0.00 820.91 548.00" xmlns="http://www.w3.org/2000/svg" xmlns:xlink="http://www.w3.org/1999/xlink">
<g id="graph0" class="graph" transform="scale(1 1) rotate(0) translate(4 544)">
<polygon fill="white" stroke="none" points="-4,4 -4,-544 816.911,-544 816.911,4 -4,4"/>
<!-- saveparams (fileutils) -->
<g id="node1" class="node"><title>saveparams (fileutils)</title>
<ellipse fill="none" stroke="black" cx="94.4262" cy="-378" rx="94.3524" ry="18"/>
<text text-anchor="middle" x="94.4262" y="-373.8" font-family="Times,serif" font-size="14.00">saveparams (fileutils)</text>
</g>
<!-- outputs (utility) -->
<g id="node6" class="node"><title>outputs (utility)</title>
<ellipse fill="none" stroke="black" cx="510.426" cy="-18" rx="71.285" ry="18"/>
<text text-anchor="middle" x="510.426" y="-13.8" font-family="Times,serif" font-size="14.00">outputs (utility)</text>
</g>
<!-- saveparams (fileutils)&#45;&gt;outputs (utility) -->
<g id="edge1" class="edge"><title>saveparams (fileutils)&#45;&gt;outputs (utility)</title>
<path fill="none" stroke="black" d="M102.925,-359.993C115.198,-333.822 136.426,-281.79 136.426,-235 136.426,-235 136.426,-235 136.426,-161 136.426,-96.3704 192.686,-98.9562 251.426,-72 309.229,-45.4735 380.341,-32.1354 433.418,-25.4802"/>
<polygon fill="black" stroke="black" points="433.936,-28.9432 443.447,-24.275 433.101,-21.9932 433.936,-28.9432"/>
</g>
<!-- realignment -->
<g id="node2" class="node"><title>realignment</title>
<ellipse fill="none" stroke="black" cx="517.426" cy="-378" rx="57.3205" ry="18"/>
<text text-anchor="middle" x="517.426" y="-373.8" font-family="Times,serif" font-size="14.00">realignment</text>
</g>
<!-- artifacts (preproc) -->
<g id="node3" class="node"><title>artifacts (preproc)</title>
<ellipse fill="none" stroke="black" cx="702.426" cy="-90" rx="80.4302" ry="18"/>
<text text-anchor="middle" x="702.426" y="-85.8" font-family="Times,serif" font-size="14.00">artifacts (preproc)</text>
</g>
<!-- realignment&#45;&gt;artifacts (preproc) -->
<g id="edge2" class="edge"><title>realignment&#45;&gt;artifacts (preproc)</title>
<path fill="none" stroke="black" d="M544.078,-362.038C591.431,-333.716 688.783,-267.212 726.426,-180 735.283,-159.48 727.334,-134.862 718.279,-116.724"/>
<polygon fill="black" stroke="black" points="721.346,-115.035 713.527,-107.885 715.18,-118.35 721.346,-115.035"/>
</g>
<!-- realignment&#45;&gt;outputs (utility) -->
<g id="edge4" class="edge"><title>realignment&#45;&gt;outputs (utility)</title>
<path fill="none" stroke="black" d="M573.573,-374.333C658.65,-366.939 810.426,-339.151 810.426,-235 810.426,-235 810.426,-235 810.426,-161 810.426,-120.553 820.366,-100.256 791.426,-72 763.226,-44.4655 661.907,-30.698 589.02,-24.2123"/>
<polygon fill="black" stroke="black" points="589.198,-20.7148 578.935,-23.3448 588.598,-27.689 589.198,-20.7148"/>
</g>
<!-- skullstrip -->
<g id="node7" class="node"><title>skullstrip</title>
<ellipse fill="none" stroke="black" cx="517.426" cy="-234" rx="46.9651" ry="18"/>
<text text-anchor="middle" x="517.426" y="-229.8" font-family="Times,serif" font-size="14.00">skullstrip</text>
</g>
<!-- realignment&#45;&gt;skullstrip -->
<g id="edge5" class="edge"><title>realignment&#45;&gt;skullstrip</title>
<path fill="none" stroke="black" d="M517.426,-359.871C517.426,-335.67 517.426,-291.211 517.426,-262.393"/>
<polygon fill="black" stroke="black" points="520.926,-262.189 517.426,-252.189 513.926,-262.189 520.926,-262.189"/>
</g>
<!-- bbregister -->
<g id="node12" class="node"><title>bbregister</title>
<ellipse fill="none" stroke="black" cx="297.426" cy="-306" rx="49.7962" ry="18"/>
<text text-anchor="middle" x="297.426" y="-301.8" font-family="Times,serif" font-size="14.00">bbregister</text>
</g>
<!-- realignment&#45;&gt;bbregister -->
<g id="edge3" class="edge"><title>realignment&#45;&gt;bbregister</title>
<path fill="none" stroke="black" d="M478.601,-364.647C440.847,-352.634 383.489,-334.384 343.456,-321.646"/>
<polygon fill="black" stroke="black" points="344.264,-318.23 333.674,-318.533 342.142,-324.901 344.264,-318.23"/>
</g>
<!-- artifacts (preproc)&#45;&gt;outputs (utility) -->
<g id="edge6" class="edge"><title>artifacts (preproc)&#45;&gt;outputs (utility)</title>
<path fill="none" stroke="black" d="M662.177,-74.3257C632.081,-63.3535 590.8,-48.3028 558.89,-36.6692"/>
<polygon fill="black" stroke="black" points="559.905,-33.3138 549.311,-33.1767 557.507,-39.8904 559.905,-33.3138"/>
</g>
<!-- filter_rough -->
<g id="node4" class="node"><title>filter_rough</title>
<ellipse fill="none" stroke="black" cx="641.426" cy="-162" rx="57.3224" ry="18"/>
<text text-anchor="middle" x="641.426" y="-157.8" font-family="Times,serif" font-size="14.00">filter_rough</text>
</g>
<!-- filter_rough&#45;&gt;artifacts (preproc) -->
<g id="edge8" class="edge"><title>filter_rough&#45;&gt;artifacts (preproc)</title>
<path fill="none" stroke="black" d="M655.882,-144.411C663.369,-135.82 672.659,-125.159 680.965,-115.627"/>
<polygon fill="black" stroke="black" points="683.719,-117.795 687.65,-107.956 678.442,-113.196 683.719,-117.795"/>
</g>
<!-- filter_rough&#45;&gt;outputs (utility) -->
<g id="edge9" class="edge"><title>filter_rough&#45;&gt;outputs (utility)</title>
<path fill="none" stroke="black" d="M629.41,-144.216C615.9,-125.774 592.902,-95.6323 570.426,-72 560.504,-61.5669 548.787,-50.8987 538.352,-41.8941"/>
<polygon fill="black" stroke="black" points="540.559,-39.1764 530.674,-35.364 536.024,-44.5088 540.559,-39.1764"/>
</g>
<!-- confounds -->
<g id="node8" class="node"><title>confounds</title>
<ellipse fill="none" stroke="black" cx="333.426" cy="-90" rx="51.03" ry="18"/>
<text text-anchor="middle" x="333.426" y="-85.8" font-family="Times,serif" font-size="14.00">confounds</text>
</g>
<!-- filter_rough&#45;&gt;confounds -->
<g id="edge7" class="edge"><title>filter_rough&#45;&gt;confounds</title>
<path fill="none" stroke="black" d="M594.133,-151.853C544.074,-141.946 462.864,-125.237 393.426,-108 389.407,-107.002 385.249,-105.923 381.084,-104.809"/>
<polygon fill="black" stroke="black" points="381.983,-101.427 371.414,-102.169 380.139,-108.18 381.983,-101.427"/>
</g>
<!-- prep_timeseries (preproc) -->
<g id="node5" class="node"><title>prep_timeseries (preproc)</title>
<ellipse fill="none" stroke="black" cx="515.426" cy="-450" rx="110.51" ry="18"/>
<text text-anchor="middle" x="515.426" y="-445.8" font-family="Times,serif" font-size="14.00">prep_timeseries (preproc)</text>
</g>
<!-- prep_timeseries (preproc)&#45;&gt;realignment -->
<g id="edge10" class="edge"><title>prep_timeseries (preproc)&#45;&gt;realignment</title>
<path fill="none" stroke="black" d="M515.921,-431.697C516.141,-423.983 516.406,-414.712 516.652,-406.112"/>
<polygon fill="black" stroke="black" points="520.15,-406.2 516.937,-396.104 513.153,-406 520.15,-406.2"/>
</g>
<!-- skullstrip&#45;&gt;artifacts (preproc) -->
<g id="edge11" class="edge"><title>skullstrip&#45;&gt;artifacts (preproc)</title>
<path fill="none" stroke="black" d="M560.943,-226.994C611.355,-219.041 689.773,-203.252 707.426,-180 720.753,-162.447 717.706,-136.883 712.378,-117.651"/>
<polygon fill="black" stroke="black" points="715.681,-116.486 709.366,-107.979 708.997,-118.567 715.681,-116.486"/>
</g>
<!-- skullstrip&#45;&gt;filter_rough -->
<g id="edge12" class="edge"><title>skullstrip&#45;&gt;filter_rough</title>
<path fill="none" stroke="black" d="M542.819,-218.666C561.006,-208.398 585.742,-194.435 605.889,-183.062"/>
<polygon fill="black" stroke="black" points="607.795,-186.005 614.782,-178.041 604.353,-179.909 607.795,-186.005"/>
</g>
<!-- skullstrip&#45;&gt;outputs (utility) -->
<g id="edge13" class="edge"><title>skullstrip&#45;&gt;outputs (utility)</title>
<path fill="none" stroke="black" d="M523.526,-215.855C533.206,-186.182 549.786,-123.49 537.426,-72 535.185,-62.6616 531.008,-53.1135 526.599,-44.7405"/>
<polygon fill="black" stroke="black" points="529.56,-42.8659 521.612,-35.8603 523.457,-46.2933 529.56,-42.8659"/>
</g>
<!-- skullstrip&#45;&gt;confounds -->
<g id="edge15" class="edge"><title>skullstrip&#45;&gt;confounds</title>
<path fill="none" stroke="black" d="M470.837,-231.023C432.549,-226.801 379.83,-214.558 349.426,-180 334.727,-163.292 331.4,-137.8 331.359,-118.374"/>
<polygon fill="black" stroke="black" points="334.86,-118.388 331.622,-108.3 327.862,-118.205 334.86,-118.388"/>
</g>
<!-- filter_smooth -->
<g id="node10" class="node"><title>filter_smooth</title>
<ellipse fill="none" stroke="black" cx="465.426" cy="-90" rx="63.1383" ry="18"/>
<text text-anchor="middle" x="465.426" y="-85.8" font-family="Times,serif" font-size="14.00">filter_smooth</text>
</g>
<!-- skullstrip&#45;&gt;filter_smooth -->
<g id="edge16" class="edge"><title>skullstrip&#45;&gt;filter_smooth</title>
<path fill="none" stroke="black" d="M515.846,-215.726C513.735,-197.385 509.076,-167.815 499.426,-144 495.526,-134.375 489.838,-124.595 484.227,-116.1"/>
<polygon fill="black" stroke="black" points="487.043,-114.019 478.485,-107.773 481.281,-117.993 487.043,-114.019"/>
</g>
<!-- susan_smooth -->
<g id="node11" class="node"><title>susan_smooth</title>
<ellipse fill="none" stroke="black" cx="424.426" cy="-162" rx="65.5141" ry="18"/>
<text text-anchor="middle" x="424.426" y="-157.8" font-family="Times,serif" font-size="14.00">susan_smooth</text>
</g>
<!-- skullstrip&#45;&gt;susan_smooth -->
<g id="edge14" class="edge"><title>skullstrip&#45;&gt;susan_smooth</title>
<path fill="none" stroke="black" d="M496.786,-217.465C484.29,-208.058 468.139,-195.902 454.267,-185.461"/>
<polygon fill="black" stroke="black" points="456.072,-182.439 445.978,-179.222 451.863,-188.032 456.072,-182.439"/>
</g>
<!-- confounds&#45;&gt;outputs (utility) -->
<g id="edge17" class="edge"><title>confounds&#45;&gt;outputs (utility)</title>
<path fill="none" stroke="black" d="M366.304,-75.9976C393.818,-65.1161 433.395,-49.4641 464.117,-37.3143"/>
<polygon fill="black" stroke="black" points="465.742,-40.4355 473.754,-33.503 463.168,-33.926 465.742,-40.4355"/>
</g>
<!-- inputs (utility) -->
<g id="node9" class="node"><title>inputs (utility)</title>
<ellipse fill="none" stroke="black" cx="297.426" cy="-522" rx="66.6279" ry="18"/>
<text text-anchor="middle" x="297.426" y="-517.8" font-family="Times,serif" font-size="14.00">inputs (utility)</text>
</g>
<!-- inputs (utility)&#45;&gt;saveparams (fileutils) -->
<g id="edge18" class="edge"><title>inputs (utility)&#45;&gt;saveparams (fileutils)</title>
<path fill="none" stroke="black" d="M267.075,-505.861C248.002,-495.916 223.171,-482.164 202.426,-468 172.891,-447.834 141.615,-421.435 120.364,-402.637"/>
<polygon fill="black" stroke="black" points="122.528,-399.877 112.735,-395.833 117.869,-405.101 122.528,-399.877"/>
</g>
<!-- inputs (utility)&#45;&gt;prep_timeseries (preproc) -->
<g id="edge21" class="edge"><title>inputs (utility)&#45;&gt;prep_timeseries (preproc)</title>
<path fill="none" stroke="black" d="M338.687,-507.751C372.454,-496.909 420.591,-481.452 458.103,-469.407"/>
<polygon fill="black" stroke="black" points="459.436,-472.655 467.887,-466.265 457.296,-465.99 459.436,-472.655"/>
</g>
<!-- inputs (utility)&#45;&gt;skullstrip -->
<g id="edge19" class="edge"><title>inputs (utility)&#45;&gt;skullstrip</title>
<path fill="none" stroke="black" d="M310.529,-503.966C347.836,-455.467 454.74,-316.491 498.453,-259.665"/>
<polygon fill="black" stroke="black" points="501.344,-261.647 504.667,-251.587 495.796,-257.379 501.344,-261.647"/>
</g>
<!-- inputs (utility)&#45;&gt;confounds -->
<g id="edge20" class="edge"><title>inputs (utility)&#45;&gt;confounds</title>
<path fill="none" stroke="black" d="M280.248,-504.393C256.471,-479.535 216.426,-430.087 216.426,-379 216.426,-379 216.426,-379 216.426,-233 216.426,-179.995 265.584,-136.043 300.173,-111.678"/>
<polygon fill="black" stroke="black" points="302.33,-114.443 308.613,-105.912 298.382,-108.663 302.33,-114.443"/>
</g>
<!-- inputs (utility)&#45;&gt;bbregister -->
<g id="edge22" class="edge"><title>inputs (utility)&#45;&gt;bbregister</title>
<path fill="none" stroke="black" d="M297.426,-503.849C297.426,-466.832 297.426,-379.181 297.426,-334.386"/>
<polygon fill="black" stroke="black" points="300.926,-334.232 297.426,-324.232 293.926,-334.232 300.926,-334.232"/>
</g>
<!-- filter_smooth&#45;&gt;outputs (utility) -->
<g id="edge23" class="edge"><title>filter_smooth&#45;&gt;outputs (utility)</title>
<path fill="none" stroke="black" d="M476.319,-72.055C481.548,-63.922 487.927,-53.998 493.749,-44.9426"/>
<polygon fill="black" stroke="black" points="496.857,-46.5798 499.321,-36.2753 490.969,-42.7944 496.857,-46.5798"/>
</g>
<!-- susan_smooth&#45;&gt;filter_smooth -->
<g id="edge24" class="edge"><title>susan_smooth&#45;&gt;filter_smooth</title>
<path fill="none" stroke="black" d="M434.351,-144.055C439.186,-135.801 445.101,-125.701 450.468,-116.538"/>
<polygon fill="black" stroke="black" points="453.559,-118.187 455.593,-107.789 447.518,-114.649 453.559,-118.187"/>
</g>
<!-- bbregister&#45;&gt;outputs (utility) -->
<g id="edge27" class="edge"><title>bbregister&#45;&gt;outputs (utility)</title>
<path fill="none" stroke="black" d="M288.438,-288.079C267.596,-246.26 221.561,-136.745 273.426,-72 293.371,-47.1025 372.548,-33.1204 433.963,-25.8489"/>
<polygon fill="black" stroke="black" points="434.504,-29.3099 444.041,-24.6961 433.708,-22.3553 434.504,-29.3099"/>
</g>
<!-- bbregister&#45;&gt;skullstrip -->
<g id="edge26" class="edge"><title>bbregister&#45;&gt;skullstrip</title>
<path fill="none" stroke="black" d="M333.755,-293.441C371.863,-281.315 431.804,-262.243 472.774,-249.208"/>
<polygon fill="black" stroke="black" points="474.03,-252.481 482.498,-246.113 471.908,-245.81 474.03,-252.481"/>
</g>
<!-- bbregister&#45;&gt;confounds -->
<g id="edge25" class="edge"><title>bbregister&#45;&gt;confounds</title>
<path fill="none" stroke="black" d="M300.311,-287.849C306.552,-250.753 321.346,-162.81 328.867,-118.103"/>
<polygon fill="black" stroke="black" points="332.32,-118.675 330.527,-108.232 325.417,-117.513 332.32,-118.675"/>
</g>
</g>
</svg>
