<?xml version="1.0" encoding="UTF-8" standalone="no"?>
<!DOCTYPE svg PUBLIC "-//W3C//DTD SVG 1.1//EN"
 "http://www.w3.org/Graphics/SVG/1.1/DTD/svg11.dtd">
<!-- Generated by graphviz version 2.38.0 (20140413.2041)
 -->
<!-- Pages: 1 -->
<svg width="211pt" height="188pt"
 viewBox="0.00 0.00 210.80 188.00" xmlns="http://www.w3.org/2000/svg" xmlns:xlink="http://www.w3.org/1999/xlink">
<g id="graph0" class="graph" transform="scale(1 1) rotate(0) translate(4 184)">
<polygon fill="white" stroke="none" points="-4,4 -4,-184 206.797,-184 206.797,4 -4,4"/>
<!-- outputnode (utility) -->
<g id="node1" class="node"><title>outputnode (utility)</title>
<ellipse fill="none" stroke="black" cx="101.398" cy="-18" rx="86.318" ry="18"/>
<text text-anchor="middle" x="101.398" y="-13.8" font-family="Times,serif" font-size="14.00">outputnode (utility)</text>
</g>
<!-- transform (registration) -->
<g id="node2" class="node"><title>transform (registration)</title>
<ellipse fill="none" stroke="black" cx="101.398" cy="-90" rx="101.297" ry="18"/>
<text text-anchor="middle" x="101.398" y="-85.8" font-family="Times,serif" font-size="14.00">transform (registration)</text>
</g>
<!-- transform (registration)&#45;&gt;outputnode (utility) -->
<g id="edge1" class="edge"><title>transform (registration)&#45;&gt;outputnode (utility)</title>
<path fill="none" stroke="black" d="M101.398,-71.6966C101.398,-63.9827 101.398,-54.7125 101.398,-46.1124"/>
<polygon fill="black" stroke="black" points="104.899,-46.1043 101.398,-36.1043 97.8986,-46.1044 104.899,-46.1043"/>
</g>
<!-- inputnode (utility) -->
<g id="node3" class="node"><title>inputnode (utility)</title>
<ellipse fill="none" stroke="black" cx="101.398" cy="-162" rx="81.6611" ry="18"/>
<text text-anchor="middle" x="101.398" y="-157.8" font-family="Times,serif" font-size="14.00">inputnode (utility)</text>
</g>
<!-- inputnode (utility)&#45;&gt;transform (registration) -->
<g id="edge2" class="edge"><title>inputnode (utility)&#45;&gt;transform (registration)</title>
<path fill="none" stroke="black" d="M101.398,-143.697C101.398,-135.983 101.398,-126.712 101.398,-118.112"/>
<polygon fill="black" stroke="black" points="104.899,-118.104 101.398,-108.104 97.8986,-118.104 104.899,-118.104"/>
</g>
</g>
</svg>
