<?xml version="1.0" encoding="UTF-8" standalone="no"?>
<!DOCTYPE svg PUBLIC "-//W3C//DTD SVG 1.1//EN"
 "http://www.w3.org/Graphics/SVG/1.1/DTD/svg11.dtd">
<!-- Generated by graphviz version 2.38.0 (20140413.2041)
 -->
<!-- Title: structs Pages: 1 -->
<svg width="606pt" height="604pt"
 viewBox="0.00 0.00 606.42 603.80" xmlns="http://www.w3.org/2000/svg" xmlns:xlink="http://www.w3.org/1999/xlink">
<g id="graph0" class="graph" transform="scale(1 1) rotate(0) translate(4 599.8)">
<title>structs</title>
<polygon fill="white" stroke="none" points="-4,4 -4,-599.8 602.415,-599.8 602.415,4 -4,4"/>
<!-- reginputnode -->
<g id="node1" class="node"><title>reginputnode</title>
<polygon fill="none" stroke="black" points="-1.42109e-14,-372.1 -1.42109e-14,-595.3 184.077,-595.3 184.077,-372.1 -1.42109e-14,-372.1"/>
<text text-anchor="middle" x="15.3836" y="-479.7" font-family="Times,serif" font-size="14.00">IN</text>
<polyline fill="none" stroke="black" points="30.7672,-372.1 30.7672,-595.3 "/>
<text text-anchor="middle" x="66.7651" y="-554.2" font-family="Times,serif" font-size="14.00">inputnode</text>
<polyline fill="none" stroke="black" points="30.7672,-521.5 102.763,-521.5 "/>
<text text-anchor="middle" x="66.7651" y="-479.9" font-family="Times,serif" font-size="14.00">utility</text>
<polyline fill="none" stroke="black" points="30.7672,-446.7 102.763,-446.7 "/>
<text text-anchor="middle" x="66.7651" y="-405.6" font-family="Times,serif" font-size="14.00"> </text>
<polyline fill="none" stroke="black" points="102.763,-372.1 102.763,-595.3 "/>
<text text-anchor="middle" x="143.42" y="-578.7" font-family="Times,serif" font-size="14.00">OUT</text>
<polyline fill="none" stroke="black" points="102.763,-570.5 184.077,-570.5 "/>
<text text-anchor="middle" x="143.42" y="-553.9" font-family="Times,serif" font-size="14.00">affine</text>
<polyline fill="none" stroke="black" points="102.763,-545.7 184.077,-545.7 "/>
<text text-anchor="middle" x="143.42" y="-529.1" font-family="Times,serif" font-size="14.00">copes</text>
<polyline fill="none" stroke="black" points="102.763,-520.9 184.077,-520.9 "/>
<text text-anchor="middle" x="143.42" y="-504.3" font-family="Times,serif" font-size="14.00">masks</text>
<polyline fill="none" stroke="black" points="102.763,-496.1 184.077,-496.1 "/>
<text text-anchor="middle" x="143.42" y="-479.5" font-family="Times,serif" font-size="14.00">means</text>
<polyline fill="none" stroke="black" points="102.763,-471.3 184.077,-471.3 "/>
<text text-anchor="middle" x="143.42" y="-454.7" font-family="Times,serif" font-size="14.00">rigids</text>
<polyline fill="none" stroke="black" points="102.763,-446.5 184.077,-446.5 "/>
<text text-anchor="middle" x="143.42" y="-429.9" font-family="Times,serif" font-size="14.00">sumsquares</text>
<polyline fill="none" stroke="black" points="102.763,-421.7 184.077,-421.7 "/>
<text text-anchor="middle" x="143.42" y="-405.1" font-family="Times,serif" font-size="14.00">varcopes</text>
<polyline fill="none" stroke="black" points="102.763,-396.9 184.077,-396.9 "/>
<text text-anchor="middle" x="143.42" y="-380.3" font-family="Times,serif" font-size="14.00">warpfield</text>
</g>
<!-- regtransform -->
<g id="node2" class="node"><title>regtransform</title>
<polygon fill="none" stroke="black" points="184.007,-111.9 184.007,-335.1 410.07,-335.1 410.07,-111.9 184.007,-111.9"/>
<text text-anchor="middle" x="224.664" y="-318.5" font-family="Times,serif" font-size="14.00">IN</text>
<polyline fill="none" stroke="black" points="184.007,-310.3 265.321,-310.3 "/>
<text text-anchor="middle" x="224.664" y="-293.7" font-family="Times,serif" font-size="14.00">affine</text>
<polyline fill="none" stroke="black" points="184.007,-285.5 265.321,-285.5 "/>
<text text-anchor="middle" x="224.664" y="-268.9" font-family="Times,serif" font-size="14.00">copes</text>
<polyline fill="none" stroke="black" points="184.007,-260.7 265.321,-260.7 "/>
<text text-anchor="middle" x="224.664" y="-244.1" font-family="Times,serif" font-size="14.00">masks</text>
<polyline fill="none" stroke="black" points="184.007,-235.9 265.321,-235.9 "/>
<text text-anchor="middle" x="224.664" y="-219.3" font-family="Times,serif" font-size="14.00">means</text>
<polyline fill="none" stroke="black" points="184.007,-211.1 265.321,-211.1 "/>
<text text-anchor="middle" x="224.664" y="-194.5" font-family="Times,serif" font-size="14.00">rigids</text>
<polyline fill="none" stroke="black" points="184.007,-186.3 265.321,-186.3 "/>
<text text-anchor="middle" x="224.664" y="-169.7" font-family="Times,serif" font-size="14.00">sumsquares</text>
<polyline fill="none" stroke="black" points="184.007,-161.5 265.321,-161.5 "/>
<text text-anchor="middle" x="224.664" y="-144.9" font-family="Times,serif" font-size="14.00">varcopes</text>
<polyline fill="none" stroke="black" points="184.007,-136.7 265.321,-136.7 "/>
<text text-anchor="middle" x="224.664" y="-120.1" font-family="Times,serif" font-size="14.00">warpfield</text>
<polyline fill="none" stroke="black" points="265.321,-111.9 265.321,-335.1 "/>
<text text-anchor="middle" x="305.2" y="-294" font-family="Times,serif" font-size="14.00">transform</text>
<polyline fill="none" stroke="black" points="265.321,-261.3 345.079,-261.3 "/>
<text text-anchor="middle" x="305.2" y="-219.7" font-family="Times,serif" font-size="14.00">registration</text>
<polyline fill="none" stroke="black" points="265.321,-186.5 345.079,-186.5 "/>
<text text-anchor="middle" x="305.2" y="-145.4" font-family="Times,serif" font-size="14.00"> </text>
<polyline fill="none" stroke="black" points="345.079,-111.9 345.079,-335.1 "/>
<text text-anchor="middle" x="377.574" y="-275.5" font-family="Times,serif" font-size="14.00">OUT</text>
<polyline fill="none" stroke="black" points="345.079,-224.3 410.07,-224.3 "/>
<text text-anchor="middle" x="377.574" y="-164.2" font-family="Times,serif" font-size="14.00">out_files</text>
</g>
<!-- reginputnode&#45;&gt;regtransform -->
<g id="edge1" class="edge"><title>reginputnode:outaffine:e&#45;&gt;regtransform:inaffine:w</title>
<path fill="none" stroke="black" d="M185.039,-557.7C267.751,-557.7 184.819,-454.309 184.039,-371.6 183.769,-343.039 158.446,-308.289 173.204,-299.563"/>
<polygon fill="black" stroke="black" points="173.97,-302.978 183.039,-297.5 172.533,-296.127 173.97,-302.978"/>
</g>
<!-- reginputnode&#45;&gt;regtransform -->
<g id="edge2" class="edge"><title>reginputnode:outcopes:e&#45;&gt;regtransform:incopes:w</title>
<path fill="none" stroke="black" d="M185.039,-533.7C257.084,-533.7 184.628,-443.643 184.039,-371.6 183.715,-332.087 147.347,-283.623 172.983,-274.883"/>
<polygon fill="black" stroke="black" points="173.609,-278.33 183.039,-273.5 172.655,-271.395 173.609,-278.33"/>
</g>
<!-- reginputnode&#45;&gt;regtransform -->
<g id="edge3" class="edge"><title>reginputnode:outmasks:e&#45;&gt;regtransform:inmasks:w</title>
<path fill="none" stroke="black" d="M185.039,-508.7C245.974,-508.7 184.508,-432.533 184.039,-371.6 183.647,-320.736 135.83,-258.05 173.072,-249.486"/>
<polygon fill="black" stroke="black" points="173.432,-252.967 183.039,-248.5 172.743,-246.001 173.432,-252.967"/>
</g>
<!-- reginputnode&#45;&gt;regtransform -->
<g id="edge4" class="edge"><title>reginputnode:outmeans:e&#45;&gt;regtransform:inmeans:w</title>
<path fill="none" stroke="black" d="M185.039,-483.7C296.96,-483.7 82.065,-240 172.922,-224.293"/>
<polygon fill="black" stroke="black" points="173.343,-227.771 183.039,-223.5 172.796,-220.793 173.343,-227.771"/>
</g>
<!-- reginputnode&#45;&gt;regtransform -->
<g id="edge5" class="edge"><title>reginputnode:outrigids:e&#45;&gt;regtransform:inrigids:w</title>
<path fill="none" stroke="black" d="M185.039,-458.7C239.752,-458.7 184.46,-390.311 184.039,-335.6 183.598,-278.475 129.549,-207.961 173.003,-199.37"/>
<polygon fill="black" stroke="black" points="173.378,-202.851 183.039,-198.5 172.774,-195.877 173.378,-202.851"/>
</g>
<!-- reginputnode&#45;&gt;regtransform -->
<g id="edge6" class="edge"><title>reginputnode:outsumsquares:e&#45;&gt;regtransform:insumsquares:w</title>
<path fill="none" stroke="black" d="M185.039,-433.7C228.641,-433.7 184.395,-379.201 184.039,-335.6 183.48,-267.356 118.435,-182.948 172.815,-174.235"/>
<polygon fill="black" stroke="black" points="173.316,-177.709 183.039,-173.5 172.813,-170.727 173.316,-177.709"/>
</g>
<!-- reginputnode&#45;&gt;regtransform -->
<g id="edge7" class="edge"><title>reginputnode:outvarcopes:e&#45;&gt;regtransform:invarcopes:w</title>
<path fill="none" stroke="black" d="M185.039,-409.7C217.975,-409.7 184.349,-368.535 184.039,-335.6 183.293,-256.607 107.611,-158.747 172.872,-150.115"/>
<polygon fill="black" stroke="black" points="173.268,-153.597 183.039,-149.5 172.846,-146.61 173.268,-153.597"/>
</g>
<!-- reginputnode&#45;&gt;regtransform -->
<g id="edge8" class="edge"><title>reginputnode:outwarpfield:e&#45;&gt;regtransform:inwarpfield:w</title>
<path fill="none" stroke="black" d="M185.039,-384.7C206.865,-384.7 184.313,-357.425 184.039,-335.6 182.907,-245.449 96.3903,-133.627 172.885,-125.028"/>
<polygon fill="black" stroke="black" points="173.234,-128.515 183.039,-124.5 172.87,-121.525 173.234,-128.515"/>
</g>
<!-- regoutputnode -->
<g id="node3" class="node"><title>regoutputnode</title>
<polygon fill="none" stroke="black" points="409.662,-0.5 409.662,-74.9 598.415,-74.9 598.415,-0.5 409.662,-0.5"/>
<text text-anchor="middle" x="442.158" y="-52.3" font-family="Times,serif" font-size="14.00">IN</text>
<polyline fill="none" stroke="black" points="409.662,-38.1 474.654,-38.1 "/>
<text text-anchor="middle" x="442.158" y="-15.5" font-family="Times,serif" font-size="14.00">out_files</text>
<polyline fill="none" stroke="black" points="474.654,-0.5 474.654,-74.9 "/>
<text text-anchor="middle" x="514.151" y="-58.3" font-family="Times,serif" font-size="14.00">outputnode</text>
<polyline fill="none" stroke="black" points="474.654,-50.1 553.649,-50.1 "/>
<text text-anchor="middle" x="514.151" y="-33.5" font-family="Times,serif" font-size="14.00">utility</text>
<polyline fill="none" stroke="black" points="474.654,-25.3 553.649,-25.3 "/>
<text text-anchor="middle" x="514.151" y="-8.7" font-family="Times,serif" font-size="14.00"> </text>
<polyline fill="none" stroke="black" points="553.649,-0.5 553.649,-74.9 "/>
<text text-anchor="middle" x="576.032" y="-33.8" font-family="Times,serif" font-size="14.00">OUT</text>
</g>
<!-- regtransform&#45;&gt;regoutputnode -->
<g id="edge9" class="edge"><title>regtransform:outoutfiles:e&#45;&gt;regoutputnode:inoutfiles:w</title>
<path fill="none" stroke="black" d="M411.039,-168.5C473.173,-168.5 358.425,-37.1733 399.14,-21.2704"/>
<polygon fill="black" stroke="black" points="399.711,-24.7238 409.039,-19.7 398.614,-17.8103 399.711,-24.7238"/>
</g>
</g>
</svg>
