<?xml version="1.0" encoding="UTF-8" standalone="no"?>
<!DOCTYPE svg PUBLIC "-//W3C//DTD SVG 1.1//EN"
 "http://www.w3.org/Graphics/SVG/1.1/DTD/svg11.dtd">
<!-- Generated by graphviz version 2.38.0 (20140413.2041)
 -->
<!-- Title: structs Pages: 1 -->
<svg width="1083pt" height="826pt"
 viewBox="0.00 0.00 1083.20 826.20" xmlns="http://www.w3.org/2000/svg" xmlns:xlink="http://www.w3.org/1999/xlink">
<g id="graph0" class="graph" transform="scale(1 1) rotate(0) translate(4 822.2)">
<title>structs</title>
<polygon fill="white" stroke="none" points="-4,4 -4,-822.2 1079.2,-822.2 1079.2,4 -4,4"/>
<!-- surface_grouphemisource -->
<g id="node1" class="node"><title>surface_grouphemisource</title>
<polygon fill="none" stroke="black" points="462.123,-730.9 462.123,-805.3 618.186,-805.3 618.186,-730.9 462.123,-730.9"/>
<text text-anchor="middle" x="477.506" y="-764.2" font-family="Times,serif" font-size="14.00">IN</text>
<polyline fill="none" stroke="black" points="492.89,-730.9 492.89,-805.3 "/>
<text text-anchor="middle" x="533.155" y="-788.7" font-family="Times,serif" font-size="14.00">hemisource</text>
<polyline fill="none" stroke="black" points="492.89,-780.5 573.42,-780.5 "/>
<text text-anchor="middle" x="533.155" y="-763.9" font-family="Times,serif" font-size="14.00">utility</text>
<polyline fill="none" stroke="black" points="492.89,-755.7 573.42,-755.7 "/>
<text text-anchor="middle" x="533.155" y="-739.1" font-family="Times,serif" font-size="14.00"> </text>
<polyline fill="none" stroke="black" points="573.42,-730.9 573.42,-805.3 "/>
<text text-anchor="middle" x="595.803" y="-782.7" font-family="Times,serif" font-size="14.00">OUT</text>
<polyline fill="none" stroke="black" points="573.42,-768.5 618.186,-768.5 "/>
<text text-anchor="middle" x="595.803" y="-745.9" font-family="Times,serif" font-size="14.00">hemi</text>
</g>
<!-- surface_groupsurfsample -->
<g id="node3" class="node"><title>surface_groupsurfsample</title>
<polygon fill="none" stroke="black" points="176.575,-557.5 176.575,-681.5 391.734,-681.5 391.734,-557.5 176.575,-557.5"/>
<text text-anchor="middle" x="215.67" y="-664.9" font-family="Times,serif" font-size="14.00">IN</text>
<polyline fill="none" stroke="black" points="176.575,-656.7 254.766,-656.7 "/>
<text text-anchor="middle" x="215.67" y="-640.1" font-family="Times,serif" font-size="14.00">hemi</text>
<polyline fill="none" stroke="black" points="176.575,-631.9 254.766,-631.9 "/>
<text text-anchor="middle" x="215.67" y="-615.3" font-family="Times,serif" font-size="14.00">reg_file</text>
<polyline fill="none" stroke="black" points="176.575,-607.1 254.766,-607.1 "/>
<text text-anchor="middle" x="215.67" y="-590.5" font-family="Times,serif" font-size="14.00">source_file</text>
<polyline fill="none" stroke="black" points="176.575,-582.3 254.766,-582.3 "/>
<text text-anchor="middle" x="215.67" y="-565.7" font-family="Times,serif" font-size="14.00">subject_id</text>
<polyline fill="none" stroke="black" points="254.766,-557.5 254.766,-681.5 "/>
<text text-anchor="middle" x="293.476" y="-656.9" font-family="Times,serif" font-size="14.00">surfsample</text>
<polyline fill="none" stroke="black" points="254.766,-640.7 332.187,-640.7 "/>
<text text-anchor="middle" x="293.476" y="-615.6" font-family="Times,serif" font-size="14.00">freesurfer</text>
<polyline fill="none" stroke="black" points="254.766,-598.9 332.187,-598.9 "/>
<text text-anchor="middle" x="293.476" y="-574.3" font-family="Times,serif" font-size="14.00"> </text>
<polyline fill="none" stroke="black" points="332.187,-557.5 332.187,-681.5 "/>
<text text-anchor="middle" x="361.96" y="-646.4" font-family="Times,serif" font-size="14.00">OUT</text>
<polyline fill="none" stroke="black" points="332.187,-619.7 391.734,-619.7 "/>
<text text-anchor="middle" x="361.96" y="-584.6" font-family="Times,serif" font-size="14.00">out_file</text>
</g>
<!-- surface_grouphemisource&#45;&gt;surface_groupsurfsample -->
<g id="edge5" class="edge"><title>surface_grouphemisource:outhemi:e&#45;&gt;surface_groupsurfsample:inhemi:w</title>
<path fill="none" stroke="black" d="M619.154,-750.1C627.921,-750.1 624.17,-736.777 618.154,-730.4 550.353,-658.523 243.086,-754.687 176.154,-682 167.949,-673.089 162.338,-657.331 166.277,-649.379"/>
<polygon fill="black" stroke="black" points="168.077,-652.384 175.154,-644.5 164.705,-646.25 168.077,-652.384"/>
</g>
<!-- surface_groupglmfit -->
<g id="node6" class="node"><title>surface_groupglmfit</title>
<polygon fill="none" stroke="black" points="685.519,-223.3 685.519,-297.7 868.79,-297.7 868.79,-223.3 685.519,-223.3"/>
<text text-anchor="middle" x="711.792" y="-281.1" font-family="Times,serif" font-size="14.00">IN</text>
<polyline fill="none" stroke="black" points="685.519,-272.9 738.066,-272.9 "/>
<text text-anchor="middle" x="711.792" y="-256.3" font-family="Times,serif" font-size="14.00">hemi</text>
<polyline fill="none" stroke="black" points="685.519,-248.1 738.066,-248.1 "/>
<text text-anchor="middle" x="711.792" y="-231.5" font-family="Times,serif" font-size="14.00">in_file</text>
<polyline fill="none" stroke="black" points="738.066,-223.3 738.066,-297.7 "/>
<text text-anchor="middle" x="773.262" y="-281.1" font-family="Times,serif" font-size="14.00">glmfit</text>
<polyline fill="none" stroke="black" points="738.066,-272.9 808.457,-272.9 "/>
<text text-anchor="middle" x="773.262" y="-256.3" font-family="Times,serif" font-size="14.00">freesurfer</text>
<polyline fill="none" stroke="black" points="738.066,-248.1 808.457,-248.1 "/>
<text text-anchor="middle" x="773.262" y="-231.5" font-family="Times,serif" font-size="14.00"> </text>
<polyline fill="none" stroke="black" points="808.457,-223.3 808.457,-297.7 "/>
<text text-anchor="middle" x="838.623" y="-275.1" font-family="Times,serif" font-size="14.00">OUT</text>
<polyline fill="none" stroke="black" points="808.457,-260.9 868.79,-260.9 "/>
<text text-anchor="middle" x="838.623" y="-238.3" font-family="Times,serif" font-size="14.00">glm_dir</text>
</g>
<!-- surface_grouphemisource&#45;&gt;surface_groupglmfit -->
<g id="edge4" class="edge"><title>surface_grouphemisource:outhemi:e&#45;&gt;surface_groupglmfit:inhemi:w</title>
<path fill="none" stroke="black" d="M619.154,-750.1C771.923,-750.1 646.554,-561.106 666.154,-409.6 667.058,-402.618 673.311,-301.272 680.255,-269.772"/>
<polygon fill="black" stroke="black" points="683.504,-271.075 684.154,-260.5 677.051,-268.361 683.504,-271.075"/>
</g>
<!-- surface_groupinputnode -->
<g id="node2" class="node"><title>surface_groupinputnode</title>
<polygon fill="none" stroke="black" points="-8.52651e-14,-718.5 -8.52651e-14,-817.7 176.309,-817.7 176.309,-718.5 -8.52651e-14,-718.5"/>
<text text-anchor="middle" x="15.3836" y="-764.1" font-family="Times,serif" font-size="14.00">IN</text>
<polyline fill="none" stroke="black" points="30.7672,-718.5 30.7672,-817.7 "/>
<text text-anchor="middle" x="66.7651" y="-797.1" font-family="Times,serif" font-size="14.00">inputnode</text>
<polyline fill="none" stroke="black" points="30.7672,-784.9 102.763,-784.9 "/>
<text text-anchor="middle" x="66.7651" y="-764.3" font-family="Times,serif" font-size="14.00">utility</text>
<polyline fill="none" stroke="black" points="30.7672,-752.1 102.763,-752.1 "/>
<text text-anchor="middle" x="66.7651" y="-731.5" font-family="Times,serif" font-size="14.00"> </text>
<polyline fill="none" stroke="black" points="102.763,-718.5 102.763,-817.7 "/>
<text text-anchor="middle" x="139.536" y="-801.1" font-family="Times,serif" font-size="14.00">OUT</text>
<polyline fill="none" stroke="black" points="102.763,-792.9 176.309,-792.9 "/>
<text text-anchor="middle" x="139.536" y="-776.3" font-family="Times,serif" font-size="14.00">copes</text>
<polyline fill="none" stroke="black" points="102.763,-768.1 176.309,-768.1 "/>
<text text-anchor="middle" x="139.536" y="-751.5" font-family="Times,serif" font-size="14.00">reg_file</text>
<polyline fill="none" stroke="black" points="102.763,-743.3 176.309,-743.3 "/>
<text text-anchor="middle" x="139.536" y="-726.7" font-family="Times,serif" font-size="14.00">subject_id</text>
</g>
<!-- surface_groupinputnode&#45;&gt;surface_groupsurfsample -->
<g id="edge6" class="edge"><title>surface_groupinputnode:outcopes:e&#45;&gt;surface_groupsurfsample:insourcefile:w</title>
<path fill="none" stroke="black" d="M177.154,-780.1C255.781,-780.1 107.768,-611.492 165.147,-595.685"/>
<polygon fill="black" stroke="black" points="165.635,-599.152 175.154,-594.5 164.812,-592.2 165.635,-599.152"/>
</g>
<!-- surface_groupinputnode&#45;&gt;surface_groupsurfsample -->
<g id="edge7" class="edge"><title>surface_groupinputnode:outregfile:e&#45;&gt;surface_groupsurfsample:inregfile:w</title>
<path fill="none" stroke="black" d="M177.154,-756.1C233.603,-756.1 130.884,-638.034 164.95,-621.431"/>
<polygon fill="black" stroke="black" points="165.979,-624.798 175.154,-619.5 164.678,-617.92 165.979,-624.798"/>
</g>
<!-- surface_groupinputnode&#45;&gt;surface_groupsurfsample -->
<g id="edge8" class="edge"><title>surface_groupinputnode:outsubjectid:e&#45;&gt;surface_groupsurfsample:insubjectid:w</title>
<path fill="none" stroke="black" d="M177.154,-731.1C198.981,-731.1 176.474,-703.824 176.154,-682 175.48,-635.909 132.705,-579.19 165.2,-570.609"/>
<polygon fill="black" stroke="black" points="165.603,-574.085 175.154,-569.5 164.828,-567.129 165.603,-574.085"/>
</g>
<!-- surface_groupremoveempty -->
<g id="node4" class="node"><title>surface_groupremoveempty</title>
<polygon fill="none" stroke="black" points="258.175,-446.1 258.175,-520.5 474.134,-520.5 474.134,-446.1 258.175,-446.1"/>
<text text-anchor="middle" x="287.17" y="-497.9" font-family="Times,serif" font-size="14.00">IN</text>
<polyline fill="none" stroke="black" points="258.175,-483.7 316.166,-483.7 "/>
<text text-anchor="middle" x="287.17" y="-461.1" font-family="Times,serif" font-size="14.00">in_files</text>
<polyline fill="none" stroke="black" points="316.166,-446.1 316.166,-520.5 "/>
<text text-anchor="middle" x="362.654" y="-503.9" font-family="Times,serif" font-size="14.00">removeempty</text>
<polyline fill="none" stroke="black" points="316.166,-495.7 409.142,-495.7 "/>
<text text-anchor="middle" x="362.654" y="-479.1" font-family="Times,serif" font-size="14.00">surfols</text>
<polyline fill="none" stroke="black" points="316.166,-470.9 409.142,-470.9 "/>
<text text-anchor="middle" x="362.654" y="-454.3" font-family="Times,serif" font-size="14.00"> </text>
<polyline fill="none" stroke="black" points="409.142,-446.1 409.142,-520.5 "/>
<text text-anchor="middle" x="441.638" y="-497.9" font-family="Times,serif" font-size="14.00">OUT</text>
<polyline fill="none" stroke="black" points="409.142,-483.7 474.134,-483.7 "/>
<text text-anchor="middle" x="441.638" y="-461.1" font-family="Times,serif" font-size="14.00">out_files</text>
</g>
<!-- surface_groupsurfsample&#45;&gt;surface_groupremoveempty -->
<g id="edge12" class="edge"><title>surface_groupsurfsample:outoutfile:e&#45;&gt;surface_groupremoveempty:ininfiles:w</title>
<path fill="none" stroke="black" d="M393.154,-588.5C407.161,-588.5 400.853,-567.979 392.154,-557 353.858,-508.665 296.117,-569.598 258.154,-521 245.532,-504.842 236.15,-477.247 247.359,-468.239"/>
<polygon fill="black" stroke="black" points="248.582,-471.526 257.154,-465.3 246.57,-464.821 248.582,-471.526"/>
</g>
<!-- surface_groupmergecope -->
<g id="node5" class="node"><title>surface_groupmergecope</title>
<polygon fill="none" stroke="black" points="407.091,-334.7 407.091,-409.1 657.217,-409.1 657.217,-334.7 407.091,-334.7"/>
<text text-anchor="middle" x="436.087" y="-386.5" font-family="Times,serif" font-size="14.00">IN</text>
<polyline fill="none" stroke="black" points="407.091,-372.3 465.083,-372.3 "/>
<text text-anchor="middle" x="436.087" y="-349.7" font-family="Times,serif" font-size="14.00">in_files</text>
<polyline fill="none" stroke="black" points="465.083,-334.7 465.083,-409.1 "/>
<text text-anchor="middle" x="503.787" y="-392.5" font-family="Times,serif" font-size="14.00">mergecope</text>
<polyline fill="none" stroke="black" points="465.083,-384.3 542.492,-384.3 "/>
<text text-anchor="middle" x="503.787" y="-367.7" font-family="Times,serif" font-size="14.00">freesurfer</text>
<polyline fill="none" stroke="black" points="465.083,-359.5 542.492,-359.5 "/>
<text text-anchor="middle" x="503.787" y="-342.9" font-family="Times,serif" font-size="14.00"> </text>
<polyline fill="none" stroke="black" points="542.492,-334.7 542.492,-409.1 "/>
<text text-anchor="middle" x="599.855" y="-386.5" font-family="Times,serif" font-size="14.00">OUT</text>
<polyline fill="none" stroke="black" points="542.492,-372.3 657.217,-372.3 "/>
<text text-anchor="middle" x="599.855" y="-349.7" font-family="Times,serif" font-size="14.00">concatenated_file</text>
</g>
<!-- surface_groupremoveempty&#45;&gt;surface_groupmergecope -->
<g id="edge11" class="edge"><title>surface_groupremoveempty:outoutfiles:e&#45;&gt;surface_groupmergecope:ininfiles:w</title>
<path fill="none" stroke="black" d="M475.154,-465.3C483.921,-465.3 478.843,-453.008 474.154,-445.6 456.077,-417.036 424.761,-438.457 407.154,-409.6 396.475,-392.097 385.818,-365.385 396.531,-356.72"/>
<polygon fill="black" stroke="black" points="397.542,-360.071 406.154,-353.9 395.574,-353.353 397.542,-360.071"/>
</g>
<!-- surface_groupmergecope&#45;&gt;surface_groupglmfit -->
<g id="edge10" class="edge"><title>surface_groupmergecope:outconcatenatedfile:e&#45;&gt;surface_groupglmfit:ininfile:w</title>
<path fill="none" stroke="black" d="M658.154,-353.9C670.865,-353.9 668.419,-310.613 671.154,-298.2 673.498,-287.561 671.532,-256.459 676.868,-242.465"/>
<polygon fill="black" stroke="black" points="679.344,-244.94 684.154,-235.5 674.507,-239.88 679.344,-244.94"/>
</g>
<!-- surface_groupcluster -->
<g id="node7" class="node"><title>surface_groupcluster</title>
<polygon fill="none" stroke="black" points="656.844,-111.9 656.844,-186.3 877.464,-186.3 877.464,-111.9 656.844,-111.9"/>
<text text-anchor="middle" x="687.01" y="-169.7" font-family="Times,serif" font-size="14.00">IN</text>
<polyline fill="none" stroke="black" points="656.844,-161.5 717.177,-161.5 "/>
<text text-anchor="middle" x="687.01" y="-144.9" font-family="Times,serif" font-size="14.00">glm_dir</text>
<polyline fill="none" stroke="black" points="656.844,-136.7 717.177,-136.7 "/>
<text text-anchor="middle" x="687.01" y="-120.1" font-family="Times,serif" font-size="14.00">y_file</text>
<polyline fill="none" stroke="black" points="717.177,-111.9 717.177,-186.3 "/>
<text text-anchor="middle" x="743.834" y="-169.7" font-family="Times,serif" font-size="14.00">cluster</text>
<polyline fill="none" stroke="black" points="717.177,-161.5 770.492,-161.5 "/>
<text text-anchor="middle" x="743.834" y="-144.9" font-family="Times,serif" font-size="14.00">utility</text>
<polyline fill="none" stroke="black" points="717.177,-136.7 770.492,-136.7 "/>
<text text-anchor="middle" x="743.834" y="-120.1" font-family="Times,serif" font-size="14.00"> </text>
<polyline fill="none" stroke="black" points="770.492,-111.9 770.492,-186.3 "/>
<text text-anchor="middle" x="823.978" y="-163.7" font-family="Times,serif" font-size="14.00">OUT</text>
<polyline fill="none" stroke="black" points="770.492,-149.5 877.464,-149.5 "/>
<text text-anchor="middle" x="823.978" y="-126.9" font-family="Times,serif" font-size="14.00">thresholded_file</text>
</g>
<!-- surface_groupmergecope&#45;&gt;surface_groupcluster -->
<g id="edge9" class="edge"><title>surface_groupmergecope:outconcatenatedfile:e&#45;&gt;surface_groupcluster:inyfile:w</title>
<path fill="none" stroke="black" d="M658.154,-353.9C680.796,-353.9 641.635,-173.215 650.274,-132.279"/>
<polygon fill="black" stroke="black" points="653.159,-134.263 656.154,-124.1 647.475,-130.176 653.159,-134.263"/>
</g>
<!-- surface_groupglmfit&#45;&gt;surface_groupcluster -->
<g id="edge2" class="edge"><title>surface_groupglmfit:outglmdir:e&#45;&gt;surface_groupcluster:inglmdir:w</title>
<path fill="none" stroke="black" d="M870.154,-242.5C878.921,-242.5 874.979,-229.352 869.154,-222.8 805.66,-151.37 719.78,-258.993 657.154,-186.8 649.174,-177.601 643.414,-161.868 647.289,-153.951"/>
<polygon fill="black" stroke="black" points="649.062,-156.971 656.154,-149.1 645.702,-150.83 649.062,-156.971"/>
</g>
<!-- surface_groupoutputnode -->
<g id="node8" class="node"><title>surface_groupoutputnode</title>
<polygon fill="none" stroke="black" points="891.107,-0.5 891.107,-74.9 1075.2,-74.9 1075.2,-0.5 891.107,-0.5"/>
<text text-anchor="middle" x="921.273" y="-58.3" font-family="Times,serif" font-size="14.00">IN</text>
<polyline fill="none" stroke="black" points="891.107,-50.1 951.44,-50.1 "/>
<text text-anchor="middle" x="921.273" y="-33.5" font-family="Times,serif" font-size="14.00">glm_dir</text>
<polyline fill="none" stroke="black" points="891.107,-25.3 951.44,-25.3 "/>
<text text-anchor="middle" x="921.273" y="-8.7" font-family="Times,serif" font-size="14.00">sig_file</text>
<polyline fill="none" stroke="black" points="951.44,-0.5 951.44,-74.9 "/>
<text text-anchor="middle" x="990.938" y="-58.3" font-family="Times,serif" font-size="14.00">outputnode</text>
<polyline fill="none" stroke="black" points="951.44,-50.1 1030.44,-50.1 "/>
<text text-anchor="middle" x="990.938" y="-33.5" font-family="Times,serif" font-size="14.00">utility</text>
<polyline fill="none" stroke="black" points="951.44,-25.3 1030.44,-25.3 "/>
<text text-anchor="middle" x="990.938" y="-8.7" font-family="Times,serif" font-size="14.00"> </text>
<polyline fill="none" stroke="black" points="1030.44,-0.5 1030.44,-74.9 "/>
<text text-anchor="middle" x="1052.82" y="-33.8" font-family="Times,serif" font-size="14.00">OUT</text>
</g>
<!-- surface_groupglmfit&#45;&gt;surface_groupoutputnode -->
<g id="edge3" class="edge"><title>surface_groupglmfit:outglmdir:e&#45;&gt;surface_groupoutputnode:inglmdir:w</title>
<path fill="none" stroke="black" d="M870.154,-242.5C895.911,-242.5 882.222,-212.255 886.154,-186.8 886.686,-183.361 886.223,-80.5327 888.516,-47.6836"/>
<polygon fill="black" stroke="black" points="891.989,-48.1348 890.154,-37.7 885.081,-47.0013 891.989,-48.1348"/>
</g>
<!-- surface_groupcluster&#45;&gt;surface_groupoutputnode -->
<g id="edge1" class="edge"><title>surface_groupcluster:outthresholdedfile:e&#45;&gt;surface_groupoutputnode:insigfile:w</title>
<path fill="none" stroke="black" d="M878.154,-131.1C900.778,-131.1 874.122,-44.4517 882.501,-19.4049"/>
<polygon fill="black" stroke="black" points="884.939,-21.9223 890.154,-12.7 880.326,-16.657 884.939,-21.9223"/>
</g>
</g>
</svg>
