<?xml version="1.0" encoding="UTF-8" standalone="no"?>
<!DOCTYPE svg PUBLIC "-//W3C//DTD SVG 1.1//EN"
 "http://www.w3.org/Graphics/SVG/1.1/DTD/svg11.dtd">
<!-- Generated by graphviz version 2.38.0 (20140413.2041)
 -->
<!-- Pages: 1 -->
<svg width="364pt" height="476pt"
 viewBox="0.00 0.00 364.05 476.00" xmlns="http://www.w3.org/2000/svg" xmlns:xlink="http://www.w3.org/1999/xlink">
<g id="graph0" class="graph" transform="scale(1 1) rotate(0) translate(4 472)">
<polygon fill="white" stroke="none" points="-4,4 -4,-472 360.048,-472 360.048,4 -4,4"/>
<!-- surfsample (freesurfer) -->
<g id="node1" class="node"><title>surfsample (freesurfer)</title>
<ellipse fill="none" stroke="black" cx="140.58" cy="-378" rx="99.5315" ry="18"/>
<text text-anchor="middle" x="140.58" y="-373.8" font-family="Times,serif" font-size="14.00">surfsample (freesurfer)</text>
</g>
<!-- removeempty (surfols) -->
<g id="node7" class="node"><title>removeempty (surfols)</title>
<ellipse fill="none" stroke="black" cx="140.58" cy="-306" rx="99.0176" ry="18"/>
<text text-anchor="middle" x="140.58" y="-301.8" font-family="Times,serif" font-size="14.00">removeempty (surfols)</text>
</g>
<!-- surfsample (freesurfer)&#45;&gt;removeempty (surfols) -->
<g id="edge1" class="edge"><title>surfsample (freesurfer)&#45;&gt;removeempty (surfols)</title>
<path fill="none" stroke="black" d="M140.58,-359.697C140.58,-351.983 140.58,-342.712 140.58,-334.112"/>
<polygon fill="black" stroke="black" points="144.081,-334.104 140.58,-324.104 137.081,-334.104 144.081,-334.104"/>
</g>
<!-- outputnode (utility) -->
<g id="node2" class="node"><title>outputnode (utility)</title>
<ellipse fill="none" stroke="black" cx="200.58" cy="-18" rx="86.318" ry="18"/>
<text text-anchor="middle" x="200.58" y="-13.8" font-family="Times,serif" font-size="14.00">outputnode (utility)</text>
</g>
<!-- hemisource (utility) -->
<g id="node3" class="node"><title>hemisource (utility)</title>
<ellipse fill="none" stroke="black" cx="268.58" cy="-450" rx="87.4347" ry="18"/>
<text text-anchor="middle" x="268.58" y="-445.8" font-family="Times,serif" font-size="14.00">hemisource (utility)</text>
</g>
<!-- hemisource (utility)&#45;&gt;surfsample (freesurfer) -->
<g id="edge2" class="edge"><title>hemisource (utility)&#45;&gt;surfsample (freesurfer)</title>
<path fill="none" stroke="black" d="M239.215,-432.941C221.374,-423.184 198.394,-410.617 179.105,-400.068"/>
<polygon fill="black" stroke="black" points="180.706,-396.954 170.253,-395.227 177.347,-403.096 180.706,-396.954"/>
</g>
<!-- glmfit (freesurfer) -->
<g id="node8" class="node"><title>glmfit (freesurfer)</title>
<ellipse fill="none" stroke="black" cx="249.58" cy="-162" rx="81.0099" ry="18"/>
<text text-anchor="middle" x="249.58" y="-157.8" font-family="Times,serif" font-size="14.00">glmfit (freesurfer)</text>
</g>
<!-- hemisource (utility)&#45;&gt;glmfit (freesurfer) -->
<g id="edge3" class="edge"><title>hemisource (utility)&#45;&gt;glmfit (freesurfer)</title>
<path fill="none" stroke="black" d="M267.449,-431.966C264.282,-384.291 255.306,-249.185 251.416,-190.63"/>
<polygon fill="black" stroke="black" points="254.885,-190.052 250.73,-180.306 247.901,-190.516 254.885,-190.052"/>
</g>
<!-- cluster (utility) -->
<g id="node4" class="node"><title>cluster (utility)</title>
<ellipse fill="none" stroke="black" cx="152.58" cy="-90" rx="68.891" ry="18"/>
<text text-anchor="middle" x="152.58" y="-85.8" font-family="Times,serif" font-size="14.00">cluster (utility)</text>
</g>
<!-- cluster (utility)&#45;&gt;outputnode (utility) -->
<g id="edge4" class="edge"><title>cluster (utility)&#45;&gt;outputnode (utility)</title>
<path fill="none" stroke="black" d="M164.2,-72.055C169.835,-63.8373 176.724,-53.7911 182.985,-44.6599"/>
<polygon fill="black" stroke="black" points="185.966,-46.502 188.735,-36.2753 180.193,-42.5432 185.966,-46.502"/>
</g>
<!-- mergecope (freesurfer) -->
<g id="node5" class="node"><title>mergecope (freesurfer)</title>
<ellipse fill="none" stroke="black" cx="140.58" cy="-234" rx="99.5161" ry="18"/>
<text text-anchor="middle" x="140.58" y="-229.8" font-family="Times,serif" font-size="14.00">mergecope (freesurfer)</text>
</g>
<!-- mergecope (freesurfer)&#45;&gt;cluster (utility) -->
<g id="edge6" class="edge"><title>mergecope (freesurfer)&#45;&gt;cluster (utility)</title>
<path fill="none" stroke="black" d="M142.028,-215.871C144.073,-191.67 147.83,-147.211 150.266,-118.393"/>
<polygon fill="black" stroke="black" points="153.773,-118.449 151.128,-108.189 146.798,-117.859 153.773,-118.449"/>
</g>
<!-- mergecope (freesurfer)&#45;&gt;glmfit (freesurfer) -->
<g id="edge5" class="edge"><title>mergecope (freesurfer)&#45;&gt;glmfit (freesurfer)</title>
<path fill="none" stroke="black" d="M166.136,-216.588C180.896,-207.109 199.645,-195.068 215.631,-184.802"/>
<polygon fill="black" stroke="black" points="217.662,-187.658 224.185,-179.309 213.879,-181.768 217.662,-187.658"/>
</g>
<!-- inputnode (utility) -->
<g id="node6" class="node"><title>inputnode (utility)</title>
<ellipse fill="none" stroke="black" cx="81.5805" cy="-450" rx="81.6611" ry="18"/>
<text text-anchor="middle" x="81.5805" y="-445.8" font-family="Times,serif" font-size="14.00">inputnode (utility)</text>
</g>
<!-- inputnode (utility)&#45;&gt;surfsample (freesurfer) -->
<g id="edge7" class="edge"><title>inputnode (utility)&#45;&gt;surfsample (freesurfer)</title>
<path fill="none" stroke="black" d="M95.8627,-432.055C102.932,-423.668 111.606,-413.376 119.428,-404.096"/>
<polygon fill="black" stroke="black" points="122.251,-406.177 126.02,-396.275 116.899,-401.666 122.251,-406.177"/>
</g>
<!-- removeempty (surfols)&#45;&gt;mergecope (freesurfer) -->
<g id="edge8" class="edge"><title>removeempty (surfols)&#45;&gt;mergecope (freesurfer)</title>
<path fill="none" stroke="black" d="M140.58,-287.697C140.58,-279.983 140.58,-270.712 140.58,-262.112"/>
<polygon fill="black" stroke="black" points="144.081,-262.104 140.58,-252.104 137.081,-262.104 144.081,-262.104"/>
</g>
<!-- glmfit (freesurfer)&#45;&gt;outputnode (utility) -->
<g id="edge9" class="edge"><title>glmfit (freesurfer)&#45;&gt;outputnode (utility)</title>
<path fill="none" stroke="black" d="M247.497,-143.83C244.922,-125.576 239.718,-96.0778 230.58,-72 227.054,-62.7078 222.073,-53.0937 217.18,-44.647"/>
<polygon fill="black" stroke="black" points="220.136,-42.7712 211.979,-36.0101 214.14,-46.3823 220.136,-42.7712"/>
</g>
<!-- glmfit (freesurfer)&#45;&gt;cluster (utility) -->
<g id="edge10" class="edge"><title>glmfit (freesurfer)&#45;&gt;cluster (utility)</title>
<path fill="none" stroke="black" d="M226.593,-144.411C213.695,-135.103 197.432,-123.367 183.438,-113.268"/>
<polygon fill="black" stroke="black" points="185.226,-110.242 175.069,-107.228 181.129,-115.919 185.226,-110.242"/>
</g>
</g>
</svg>
