<?xml version="1.0" encoding="UTF-8" standalone="no"?>
<!DOCTYPE svg PUBLIC "-//W3C//DTD SVG 1.1//EN"
 "http://www.w3.org/Graphics/SVG/1.1/DTD/svg11.dtd">
<!-- Generated by graphviz version 2.38.0 (20140413.2041)
 -->
<!-- Title: structs Pages: 1 -->
<svg width="1210pt" height="1644pt"
 viewBox="0.00 0.00 1209.95 1644.20" xmlns="http://www.w3.org/2000/svg" xmlns:xlink="http://www.w3.org/1999/xlink">
<g id="graph0" class="graph" transform="scale(1 1) rotate(0) translate(4 1640.2)">
<title>structs</title>
<polygon fill="white" stroke="none" points="-4,4 -4,-1640.2 1205.95,-1640.2 1205.95,4 -4,4"/>
<!-- volume_groupinputnode -->
<g id="node1" class="node"><title>volume_groupinputnode</title>
<polygon fill="none" stroke="black" points="40.0901,-1536.5 40.0901,-1635.7 208.602,-1635.7 208.602,-1536.5 40.0901,-1536.5"/>
<text text-anchor="middle" x="55.4737" y="-1582.1" font-family="Times,serif" font-size="14.00">IN</text>
<polyline fill="none" stroke="black" points="70.8573,-1536.5 70.8573,-1635.7 "/>
<text text-anchor="middle" x="106.855" y="-1615.1" font-family="Times,serif" font-size="14.00">inputnode</text>
<polyline fill="none" stroke="black" points="70.8573,-1602.9 142.853,-1602.9 "/>
<text text-anchor="middle" x="106.855" y="-1582.3" font-family="Times,serif" font-size="14.00">utility</text>
<polyline fill="none" stroke="black" points="70.8573,-1570.1 142.853,-1570.1 "/>
<text text-anchor="middle" x="106.855" y="-1549.5" font-family="Times,serif" font-size="14.00"> </text>
<polyline fill="none" stroke="black" points="142.853,-1536.5 142.853,-1635.7 "/>
<text text-anchor="middle" x="175.728" y="-1619.1" font-family="Times,serif" font-size="14.00">OUT</text>
<polyline fill="none" stroke="black" points="142.853,-1610.9 208.602,-1610.9 "/>
<text text-anchor="middle" x="175.728" y="-1594.3" font-family="Times,serif" font-size="14.00">copes</text>
<polyline fill="none" stroke="black" points="142.853,-1586.1 208.602,-1586.1 "/>
<text text-anchor="middle" x="175.728" y="-1569.5" font-family="Times,serif" font-size="14.00">dofs</text>
<polyline fill="none" stroke="black" points="142.853,-1561.3 208.602,-1561.3 "/>
<text text-anchor="middle" x="175.728" y="-1544.7" font-family="Times,serif" font-size="14.00">varcopes</text>
</g>
<!-- volume_groupmerge -->
<g id="node2" class="node"><title>volume_groupmerge</title>
<polygon fill="none" stroke="black" points="208.335,-1350.7 208.335,-1499.5 448.357,-1499.5 448.357,-1350.7 208.335,-1350.7"/>
<text text-anchor="middle" x="254.037" y="-1476.9" font-family="Times,serif" font-size="14.00">IN</text>
<polyline fill="none" stroke="black" points="208.335,-1462.7 299.74,-1462.7 "/>
<text text-anchor="middle" x="254.037" y="-1440.1" font-family="Times,serif" font-size="14.00">cope_files</text>
<polyline fill="none" stroke="black" points="208.335,-1425.9 299.74,-1425.9 "/>
<text text-anchor="middle" x="254.037" y="-1402.8" font-family="Times,serif" font-size="14.00">dof_files</text>
<polyline fill="none" stroke="black" points="208.335,-1388.1 299.74,-1388.1 "/>
<text text-anchor="middle" x="254.037" y="-1365.5" font-family="Times,serif" font-size="14.00">varcope_files</text>
<polyline fill="none" stroke="black" points="299.74,-1350.7 299.74,-1499.5 "/>
<text text-anchor="middle" x="331.068" y="-1470.9" font-family="Times,serif" font-size="14.00">merge</text>
<polyline fill="none" stroke="black" points="299.74,-1450.7 362.397,-1450.7 "/>
<text text-anchor="middle" x="331.068" y="-1421.6" font-family="Times,serif" font-size="14.00">mixedfx</text>
<polyline fill="none" stroke="black" points="299.74,-1400.9 362.397,-1400.9 "/>
<text text-anchor="middle" x="331.068" y="-1371.8" font-family="Times,serif" font-size="14.00"> </text>
<polyline fill="none" stroke="black" points="362.397,-1350.7 362.397,-1499.5 "/>
<text text-anchor="middle" x="405.377" y="-1482.9" font-family="Times,serif" font-size="14.00">OUT</text>
<polyline fill="none" stroke="black" points="362.397,-1474.7 448.357,-1474.7 "/>
<text text-anchor="middle" x="405.377" y="-1458.1" font-family="Times,serif" font-size="14.00">cope_file</text>
<polyline fill="none" stroke="black" points="362.397,-1449.9 448.357,-1449.9 "/>
<text text-anchor="middle" x="405.377" y="-1433.3" font-family="Times,serif" font-size="14.00">dof_file</text>
<polyline fill="none" stroke="black" points="362.397,-1425.1 448.357,-1425.1 "/>
<text text-anchor="middle" x="405.377" y="-1408.5" font-family="Times,serif" font-size="14.00">mask_file</text>
<polyline fill="none" stroke="black" points="362.397,-1400.3 448.357,-1400.3 "/>
<text text-anchor="middle" x="405.377" y="-1383.7" font-family="Times,serif" font-size="14.00">regressors</text>
<polyline fill="none" stroke="black" points="362.397,-1375.5 448.357,-1375.5 "/>
<text text-anchor="middle" x="405.377" y="-1358.9" font-family="Times,serif" font-size="14.00">varcope_file</text>
</g>
<!-- volume_groupinputnode&#45;&gt;volume_groupmerge -->
<g id="edge15" class="edge"><title>volume_groupinputnode:outcopes:e&#45;&gt;volume_groupmerge:incopefiles:w</title>
<path fill="none" stroke="black" d="M209.346,-1598.1C273.786,-1598.1 154.461,-1461.62 197.366,-1445.62"/>
<polygon fill="black" stroke="black" points="197.989,-1449.07 207.346,-1444.1 196.932,-1442.15 197.989,-1449.07"/>
</g>
<!-- volume_groupinputnode&#45;&gt;volume_groupmerge -->
<g id="edge17" class="edge"><title>volume_groupinputnode:outdofs:e&#45;&gt;volume_groupmerge:indoffiles:w</title>
<path fill="none" stroke="black" d="M209.346,-1574.1C242.282,-1574.1 208.746,-1532.93 208.346,-1500 207.896,-1462.91 174.118,-1417.48 197.206,-1408.63"/>
<polygon fill="black" stroke="black" points="197.981,-1412.05 207.346,-1407.1 196.935,-1405.13 197.981,-1412.05"/>
</g>
<!-- volume_groupinputnode&#45;&gt;volume_groupmerge -->
<g id="edge18" class="edge"><title>volume_groupinputnode:outvarcopes:e&#45;&gt;volume_groupmerge:invarcopefiles:w</title>
<path fill="none" stroke="black" d="M209.346,-1549.1C231.173,-1549.1 208.652,-1521.82 208.346,-1500 207.59,-1446.1 157.052,-1379.62 197.324,-1371.03"/>
<polygon fill="black" stroke="black" points="197.712,-1374.51 207.346,-1370.1 197.066,-1367.54 197.712,-1374.51"/>
</g>
<!-- volume_groupsaveparams -->
<g id="node3" class="node"><title>volume_groupsaveparams</title>
<polygon fill="none" stroke="black" points="36.9274,-1226.9 36.9274,-1301.3 235.765,-1301.3 235.765,-1226.9 36.9274,-1226.9"/>
<text text-anchor="middle" x="63.2009" y="-1278.7" font-family="Times,serif" font-size="14.00">IN</text>
<polyline fill="none" stroke="black" points="36.9274,-1264.5 89.4744,-1264.5 "/>
<text text-anchor="middle" x="63.2009" y="-1241.9" font-family="Times,serif" font-size="14.00">in_file</text>
<polyline fill="none" stroke="black" points="89.4744,-1226.9 89.4744,-1301.3 "/>
<text text-anchor="middle" x="130.124" y="-1284.7" font-family="Times,serif" font-size="14.00">saveparams</text>
<polyline fill="none" stroke="black" points="89.4744,-1276.5 170.773,-1276.5 "/>
<text text-anchor="middle" x="130.124" y="-1259.9" font-family="Times,serif" font-size="14.00">fileutils</text>
<polyline fill="none" stroke="black" points="89.4744,-1251.7 170.773,-1251.7 "/>
<text text-anchor="middle" x="130.124" y="-1235.1" font-family="Times,serif" font-size="14.00"> </text>
<polyline fill="none" stroke="black" points="170.773,-1226.9 170.773,-1301.3 "/>
<text text-anchor="middle" x="203.269" y="-1278.7" font-family="Times,serif" font-size="14.00">OUT</text>
<polyline fill="none" stroke="black" points="170.773,-1264.5 235.765,-1264.5 "/>
<text text-anchor="middle" x="203.269" y="-1241.9" font-family="Times,serif" font-size="14.00">json_file</text>
</g>
<!-- volume_groupinputnode&#45;&gt;volume_groupsaveparams -->
<g id="edge16" class="edge"><title>volume_groupinputnode:outcopes:e&#45;&gt;volume_groupsaveparams:ininfile:w</title>
<path fill="none" stroke="black" d="M209.346,-1598.1C379.919,-1598.1 -115.879,-1261.06 26.0607,-1246.58"/>
<polygon fill="black" stroke="black" points="26.5203,-1250.06 36.3461,-1246.1 26.1936,-1243.07 26.5203,-1250.06"/>
</g>
<!-- volume_groupdesign -->
<g id="node4" class="node"><title>volume_groupdesign</title>
<polygon fill="none" stroke="black" points="448.426,-1214.5 448.426,-1313.7 654.266,-1313.7 654.266,-1214.5 448.426,-1214.5"/>
<text text-anchor="middle" x="484.798" y="-1285.1" font-family="Times,serif" font-size="14.00">IN</text>
<polyline fill="none" stroke="black" points="448.426,-1264.9 521.171,-1264.9 "/>
<text text-anchor="middle" x="484.798" y="-1235.8" font-family="Times,serif" font-size="14.00">regressors</text>
<polyline fill="none" stroke="black" points="521.171,-1214.5 521.171,-1313.7 "/>
<text text-anchor="middle" x="547.446" y="-1293.1" font-family="Times,serif" font-size="14.00">design</text>
<polyline fill="none" stroke="black" points="521.171,-1280.9 573.721,-1280.9 "/>
<text text-anchor="middle" x="547.446" y="-1260.3" font-family="Times,serif" font-size="14.00">fsl</text>
<polyline fill="none" stroke="black" points="521.171,-1248.1 573.721,-1248.1 "/>
<text text-anchor="middle" x="547.446" y="-1227.5" font-family="Times,serif" font-size="14.00"> </text>
<polyline fill="none" stroke="black" points="573.721,-1214.5 573.721,-1313.7 "/>
<text text-anchor="middle" x="613.993" y="-1297.1" font-family="Times,serif" font-size="14.00">OUT</text>
<polyline fill="none" stroke="black" points="573.721,-1288.9 654.266,-1288.9 "/>
<text text-anchor="middle" x="613.993" y="-1272.3" font-family="Times,serif" font-size="14.00">design_con</text>
<polyline fill="none" stroke="black" points="573.721,-1264.1 654.266,-1264.1 "/>
<text text-anchor="middle" x="613.993" y="-1247.5" font-family="Times,serif" font-size="14.00">design_grp</text>
<polyline fill="none" stroke="black" points="573.721,-1239.3 654.266,-1239.3 "/>
<text text-anchor="middle" x="613.993" y="-1222.7" font-family="Times,serif" font-size="14.00">design_mat</text>
</g>
<!-- volume_groupmerge&#45;&gt;volume_groupdesign -->
<g id="edge28" class="edge"><title>volume_groupmerge:outregressors:e&#45;&gt;volume_groupdesign:inregressors:w</title>
<path fill="none" stroke="black" d="M449.346,-1388.1C482.194,-1388.1 448.79,-1347.04 448.346,-1314.2 448.174,-1301.46 437.819,-1264.1 440.754,-1247.83"/>
<polygon fill="black" stroke="black" points="443.518,-1249.98 447.346,-1240.1 438.193,-1245.44 443.518,-1249.98"/>
</g>
<!-- volume_groupflameo -->
<g id="node5" class="node"><title>volume_groupflameo</title>
<polygon fill="none" stroke="black" points="635.882,-979.1 635.882,-1177.5 872.81,-1177.5 872.81,-979.1 635.882,-979.1"/>
<text text-anchor="middle" x="695.192" y="-1160.9" font-family="Times,serif" font-size="14.00">IN</text>
<polyline fill="none" stroke="black" points="635.882,-1152.7 754.503,-1152.7 "/>
<text text-anchor="middle" x="695.192" y="-1136.1" font-family="Times,serif" font-size="14.00">cope_file</text>
<polyline fill="none" stroke="black" points="635.882,-1127.9 754.503,-1127.9 "/>
<text text-anchor="middle" x="695.192" y="-1111.3" font-family="Times,serif" font-size="14.00">cov_split_file</text>
<polyline fill="none" stroke="black" points="635.882,-1103.1 754.503,-1103.1 "/>
<text text-anchor="middle" x="695.192" y="-1086.5" font-family="Times,serif" font-size="14.00">design_file</text>
<polyline fill="none" stroke="black" points="635.882,-1078.3 754.503,-1078.3 "/>
<text text-anchor="middle" x="695.192" y="-1061.7" font-family="Times,serif" font-size="14.00">dof_var_cope_file</text>
<polyline fill="none" stroke="black" points="635.882,-1053.5 754.503,-1053.5 "/>
<text text-anchor="middle" x="695.192" y="-1036.9" font-family="Times,serif" font-size="14.00">mask_file</text>
<polyline fill="none" stroke="black" points="635.882,-1028.7 754.503,-1028.7 "/>
<text text-anchor="middle" x="695.192" y="-1012.1" font-family="Times,serif" font-size="14.00">t_con_file</text>
<polyline fill="none" stroke="black" points="635.882,-1003.9 754.503,-1003.9 "/>
<text text-anchor="middle" x="695.192" y="-987.3" font-family="Times,serif" font-size="14.00">var_cope_file</text>
<polyline fill="none" stroke="black" points="754.503,-979.1 754.503,-1177.5 "/>
<text text-anchor="middle" x="781.939" y="-1140.4" font-family="Times,serif" font-size="14.00">flameo</text>
<polyline fill="none" stroke="black" points="754.503,-1111.7 809.374,-1111.7 "/>
<text text-anchor="middle" x="781.939" y="-1074.6" font-family="Times,serif" font-size="14.00">fsl</text>
<polyline fill="none" stroke="black" points="754.503,-1045.9 809.374,-1045.9 "/>
<text text-anchor="middle" x="781.939" y="-1008.3" font-family="Times,serif" font-size="14.00"> </text>
<polyline fill="none" stroke="black" points="809.374,-979.1 809.374,-1177.5 "/>
<text text-anchor="middle" x="841.092" y="-1140.4" font-family="Times,serif" font-size="14.00">OUT</text>
<polyline fill="none" stroke="black" points="809.374,-1111.7 872.81,-1111.7 "/>
<text text-anchor="middle" x="841.092" y="-1074.6" font-family="Times,serif" font-size="14.00">stats_dir</text>
<polyline fill="none" stroke="black" points="809.374,-1045.9 872.81,-1045.9 "/>
<text text-anchor="middle" x="841.092" y="-1008.3" font-family="Times,serif" font-size="14.00">zstats</text>
</g>
<!-- volume_groupmerge&#45;&gt;volume_groupflameo -->
<g id="edge19" class="edge"><title>volume_groupmerge:outcopefile:e&#45;&gt;volume_groupflameo:incopefile:w</title>
<path fill="none" stroke="black" d="M449.346,-1462.1C559.702,-1462.1 376.528,-1304.73 439.346,-1214 464.075,-1178.28 572.905,-1145.02 625.115,-1140.76"/>
<polygon fill="black" stroke="black" points="625.513,-1144.25 635.346,-1140.3 625.199,-1137.25 625.513,-1144.25"/>
</g>
<!-- volume_groupmerge&#45;&gt;volume_groupflameo -->
<g id="edge22" class="edge"><title>volume_groupmerge:outdoffile:e&#45;&gt;volume_groupflameo:indofvarcopefile:w</title>
<path fill="none" stroke="black" d="M449.346,-1437.1C559.026,-1437.1 608.397,-1409.12 663.346,-1314.2 685.657,-1275.66 677.429,-1256.25 663.346,-1214 657.022,-1195.03 642.756,-1196.95 636.346,-1178 621.679,-1134.65 591.012,-1076.3 625.206,-1067.44"/>
<polygon fill="black" stroke="black" points="625.802,-1070.9 635.346,-1066.3 625.017,-1063.94 625.802,-1070.9"/>
</g>
<!-- volume_groupmerge&#45;&gt;volume_groupflameo -->
<g id="edge23" class="edge"><title>volume_groupmerge:outmaskfile:e&#45;&gt;volume_groupflameo:inmaskfile:w</title>
<path fill="none" stroke="black" d="M449.346,-1413.1C562.663,-1413.1 621.657,-1408.6 684.346,-1314.2 708.983,-1277.1 704.262,-1253.83 684.346,-1214 672.42,-1190.15 648.359,-1201.81 636.346,-1178 610.633,-1127.04 578.727,-1051.18 625.334,-1042.18"/>
<polygon fill="black" stroke="black" points="625.692,-1045.66 635.346,-1041.3 625.077,-1038.69 625.692,-1045.66"/>
</g>
<!-- volume_groupmerge&#45;&gt;volume_groupflameo -->
<g id="edge29" class="edge"><title>volume_groupmerge:outvarcopefile:e&#45;&gt;volume_groupflameo:invarcopefile:w</title>
<path fill="none" stroke="black" d="M449.346,-1363.1C507.7,-1363.1 670.123,-1359.14 707.346,-1314.2 735.753,-1279.9 730.652,-1251.95 707.346,-1214 688.83,-1183.85 654.943,-1208.1 636.346,-1178 594.605,-1110.44 555.842,-1001.19 625.323,-991.93"/>
<polygon fill="black" stroke="black" points="625.586,-995.421 635.346,-991.3 625.146,-988.435 625.586,-995.421"/>
</g>
<!-- volume_groupsmoothest -->
<g id="node6" class="node"><title>volume_groupsmoothest</title>
<polygon fill="none" stroke="black" points="410.357,-867.7 410.357,-942.1 612.335,-942.1 612.335,-867.7 410.357,-867.7"/>
<text text-anchor="middle" x="445.96" y="-925.5" font-family="Times,serif" font-size="14.00">IN</text>
<polyline fill="none" stroke="black" points="410.357,-917.3 481.563,-917.3 "/>
<text text-anchor="middle" x="445.96" y="-900.7" font-family="Times,serif" font-size="14.00">mask_file</text>
<polyline fill="none" stroke="black" points="410.357,-892.5 481.563,-892.5 "/>
<text text-anchor="middle" x="445.96" y="-875.9" font-family="Times,serif" font-size="14.00">zstat_file</text>
<polyline fill="none" stroke="black" points="481.563,-867.7 481.563,-942.1 "/>
<text text-anchor="middle" x="517.951" y="-925.5" font-family="Times,serif" font-size="14.00">smoothest</text>
<polyline fill="none" stroke="black" points="481.563,-917.3 554.339,-917.3 "/>
<text text-anchor="middle" x="517.951" y="-900.7" font-family="Times,serif" font-size="14.00">fsl</text>
<polyline fill="none" stroke="black" points="481.563,-892.5 554.339,-892.5 "/>
<text text-anchor="middle" x="517.951" y="-875.9" font-family="Times,serif" font-size="14.00"> </text>
<polyline fill="none" stroke="black" points="554.339,-867.7 554.339,-942.1 "/>
<text text-anchor="middle" x="583.337" y="-925.5" font-family="Times,serif" font-size="14.00">OUT</text>
<polyline fill="none" stroke="black" points="554.339,-917.3 612.335,-917.3 "/>
<text text-anchor="middle" x="583.337" y="-900.7" font-family="Times,serif" font-size="14.00">dlh</text>
<polyline fill="none" stroke="black" points="554.339,-892.5 612.335,-892.5 "/>
<text text-anchor="middle" x="583.337" y="-875.9" font-family="Times,serif" font-size="14.00">volume</text>
</g>
<!-- volume_groupmerge&#45;&gt;volume_groupsmoothest -->
<g id="edge26" class="edge"><title>volume_groupmerge:outmaskfile:e&#45;&gt;volume_groupsmoothest:inmaskfile:w</title>
<path fill="none" stroke="black" d="M449.346,-1413.1C521.191,-1413.1 423.188,-1316.67 422.346,-1314.2 394.102,-1231.44 324.105,-929.786 399.427,-906.346"/>
<polygon fill="black" stroke="black" points="399.956,-909.806 409.346,-904.9 398.946,-902.879 399.956,-909.806"/>
</g>
<!-- volume_groupsurfproj -->
<g id="node8" class="node"><title>volume_groupsurfproj</title>
<polygon fill="none" stroke="black" points="862.201,-434.3 862.201,-508.7 1150.49,-508.7 1150.49,-434.3 862.201,-434.3"/>
<text text-anchor="middle" x="916.667" y="-492.1" font-family="Times,serif" font-size="14.00">IN</text>
<polyline fill="none" stroke="black" points="862.201,-483.9 971.133,-483.9 "/>
<text text-anchor="middle" x="916.667" y="-467.3" font-family="Times,serif" font-size="14.00">inputs.mask_file</text>
<polyline fill="none" stroke="black" points="862.201,-459.1 971.133,-459.1 "/>
<text text-anchor="middle" x="916.667" y="-442.5" font-family="Times,serif" font-size="14.00">inputs.zstat_file</text>
<polyline fill="none" stroke="black" points="971.133,-434.3 971.133,-508.7 "/>
<text text-anchor="middle" x="1001.29" y="-492.1" font-family="Times,serif" font-size="14.00">surfproj</text>
<polyline fill="none" stroke="black" points="971.133,-483.9 1031.45,-483.9 "/>
<text text-anchor="middle" x="1001.29" y="-467.3" font-family="Times,serif" font-size="14.00"> </text>
<polyline fill="none" stroke="black" points="971.133,-459.1 1031.45,-459.1 "/>
<text text-anchor="middle" x="1001.29" y="-442.5" font-family="Times,serif" font-size="14.00"> </text>
<polyline fill="none" stroke="black" points="1031.45,-434.3 1031.45,-508.7 "/>
<text text-anchor="middle" x="1090.97" y="-492.1" font-family="Times,serif" font-size="14.00">OUT</text>
<polyline fill="none" stroke="black" points="1031.45,-483.9 1150.49,-483.9 "/>
<text text-anchor="middle" x="1090.97" y="-467.3" font-family="Times,serif" font-size="14.00">outputs.surf_mask</text>
<polyline fill="none" stroke="black" points="1031.45,-459.1 1150.49,-459.1 "/>
<text text-anchor="middle" x="1090.97" y="-442.5" font-family="Times,serif" font-size="14.00">outputs.surf_zstat</text>
</g>
<!-- volume_groupmerge&#45;&gt;volume_groupsurfproj -->
<g id="edge27" class="edge"><title>volume_groupmerge:outmaskfile:e&#45;&gt;volume_groupsurfproj:ininputsmaskfile:w</title>
<path fill="none" stroke="black" d="M449.346,-1413.1C541.775,-1413.1 783.275,-1374.48 853.346,-1314.2 937.515,-1241.8 938.346,-1190.32 938.346,-1079.3 938.346,-1079.3 938.346,-1079.3 938.346,-780.1 938.346,-748.349 847.666,-524.552 854.876,-479.42"/>
<polygon fill="black" stroke="black" points="857.73,-481.459 861.346,-471.5 852.309,-477.03 857.73,-481.459"/>
</g>
<!-- volume_groupreport -->
<g id="node10" class="node"><title>volume_groupreport</title>
<polygon fill="none" stroke="black" points="570.261,-384.7 570.261,-558.3 806.431,-558.3 806.431,-384.7 570.261,-384.7"/>
<text text-anchor="middle" x="624.522" y="-541.7" font-family="Times,serif" font-size="14.00">IN</text>
<polyline fill="none" stroke="black" points="570.261,-533.5 678.783,-533.5 "/>
<text text-anchor="middle" x="624.522" y="-516.9" font-family="Times,serif" font-size="14.00">cope_file</text>
<polyline fill="none" stroke="black" points="570.261,-508.7 678.783,-508.7 "/>
<text text-anchor="middle" x="624.522" y="-492.1" font-family="Times,serif" font-size="14.00">localmax_file</text>
<polyline fill="none" stroke="black" points="570.261,-483.9 678.783,-483.9 "/>
<text text-anchor="middle" x="624.522" y="-467.3" font-family="Times,serif" font-size="14.00">mask_file</text>
<polyline fill="none" stroke="black" points="570.261,-459.1 678.783,-459.1 "/>
<text text-anchor="middle" x="624.522" y="-442.5" font-family="Times,serif" font-size="14.00">seg_file</text>
<polyline fill="none" stroke="black" points="570.261,-434.3 678.783,-434.3 "/>
<text text-anchor="middle" x="624.522" y="-417.7" font-family="Times,serif" font-size="14.00">zstat_file</text>
<polyline fill="none" stroke="black" points="570.261,-409.5 678.783,-409.5 "/>
<text text-anchor="middle" x="624.522" y="-392.9" font-family="Times,serif" font-size="14.00">zstat_thresh_file</text>
<polyline fill="none" stroke="black" points="678.783,-384.7 678.783,-558.3 "/>
<text text-anchor="middle" x="710.111" y="-525.2" font-family="Times,serif" font-size="14.00">report</text>
<polyline fill="none" stroke="black" points="678.783,-500.5 741.439,-500.5 "/>
<text text-anchor="middle" x="710.111" y="-467.4" font-family="Times,serif" font-size="14.00">mixedfx</text>
<polyline fill="none" stroke="black" points="678.783,-442.7 741.439,-442.7 "/>
<text text-anchor="middle" x="710.111" y="-409.6" font-family="Times,serif" font-size="14.00"> </text>
<polyline fill="none" stroke="black" points="741.439,-384.7 741.439,-558.3 "/>
<text text-anchor="middle" x="773.935" y="-510.7" font-family="Times,serif" font-size="14.00">OUT</text>
<polyline fill="none" stroke="black" points="741.439,-471.5 806.431,-471.5 "/>
<text text-anchor="middle" x="773.935" y="-423.9" font-family="Times,serif" font-size="14.00">out_files</text>
</g>
<!-- volume_groupmerge&#45;&gt;volume_groupreport -->
<g id="edge21" class="edge"><title>volume_groupmerge:outcopefile:e&#45;&gt;volume_groupreport:incopefile:w</title>
<path fill="none" stroke="black" d="M449.346,-1462.1C499.081,-1462.1 472.373,-1393.75 448.346,-1350.2 434.052,-1324.29 409.251,-1338.48 392.346,-1314.2 331.466,-1226.75 344.346,-1185.86 344.346,-1079.3 344.346,-1079.3 344.346,-1079.3 344.346,-903.9 344.346,-794.879 423.813,-785.304 518.346,-731 572.191,-700.069 615.515,-744.242 653.346,-695 680.477,-659.686 677.78,-632.032 653.346,-594.8 631.284,-561.183 592.856,-592.118 570.346,-558.8 563.746,-549.031 557.643,-534.3 560.625,-526.599"/>
<polygon fill="black" stroke="black" points="562.48,-529.569 569.346,-521.5 558.947,-523.526 562.48,-529.569"/>
</g>
<!-- volume_groupmerge&#45;&gt;volume_groupreport -->
<g id="edge25" class="edge"><title>volume_groupmerge:outmaskfile:e&#45;&gt;volume_groupreport:inmaskfile:w</title>
<path fill="none" stroke="black" d="M449.346,-1413.1C698.72,-1413.1 900.346,-1328.67 900.346,-1079.3 900.346,-1079.3 900.346,-1079.3 900.346,-780.1 900.346,-688.929 885.607,-649.068 812.346,-594.8 724.968,-530.075 641.825,-640.745 570.346,-558.8 559.884,-546.807 552.858,-495.745 561.38,-477.781"/>
<polygon fill="black" stroke="black" points="563.661,-480.44 569.346,-471.5 559.327,-474.944 563.661,-480.44"/>
</g>
<!-- volume_groupoutputnode -->
<g id="node11" class="node"><title>volume_groupoutputnode</title>
<polygon fill="none" stroke="black" points="504.202,-0.5 504.202,-347.7 722.49,-347.7 722.49,-0.5 504.202,-0.5"/>
<text text-anchor="middle" x="551.465" y="-331.1" font-family="Times,serif" font-size="14.00">IN</text>
<polyline fill="none" stroke="black" points="504.202,-322.9 598.728,-322.9 "/>
<text text-anchor="middle" x="551.465" y="-306.3" font-family="Times,serif" font-size="14.00">cluster_image</text>
<polyline fill="none" stroke="black" points="504.202,-298.1 598.728,-298.1 "/>
<text text-anchor="middle" x="551.465" y="-281.5" font-family="Times,serif" font-size="14.00">copes</text>
<polyline fill="none" stroke="black" points="504.202,-273.3 598.728,-273.3 "/>
<text text-anchor="middle" x="551.465" y="-256.7" font-family="Times,serif" font-size="14.00">flameo_stats</text>
<polyline fill="none" stroke="black" points="504.202,-248.5 598.728,-248.5 "/>
<text text-anchor="middle" x="551.465" y="-231.9" font-family="Times,serif" font-size="14.00">json_file</text>
<polyline fill="none" stroke="black" points="504.202,-223.7 598.728,-223.7 "/>
<text text-anchor="middle" x="551.465" y="-207.1" font-family="Times,serif" font-size="14.00">lut_file</text>
<polyline fill="none" stroke="black" points="504.202,-198.9 598.728,-198.9 "/>
<text text-anchor="middle" x="551.465" y="-182.3" font-family="Times,serif" font-size="14.00">mask_file</text>
<polyline fill="none" stroke="black" points="504.202,-174.1 598.728,-174.1 "/>
<text text-anchor="middle" x="551.465" y="-157.5" font-family="Times,serif" font-size="14.00">peak_file</text>
<polyline fill="none" stroke="black" points="504.202,-149.3 598.728,-149.3 "/>
<text text-anchor="middle" x="551.465" y="-132.7" font-family="Times,serif" font-size="14.00">report</text>
<polyline fill="none" stroke="black" points="504.202,-124.5 598.728,-124.5 "/>
<text text-anchor="middle" x="551.465" y="-107.9" font-family="Times,serif" font-size="14.00">seg_file</text>
<polyline fill="none" stroke="black" points="504.202,-99.7 598.728,-99.7 "/>
<text text-anchor="middle" x="551.465" y="-83.1" font-family="Times,serif" font-size="14.00">surf_mask</text>
<polyline fill="none" stroke="black" points="504.202,-74.9 598.728,-74.9 "/>
<text text-anchor="middle" x="551.465" y="-58.3" font-family="Times,serif" font-size="14.00">surf_zstat</text>
<polyline fill="none" stroke="black" points="504.202,-50.1 598.728,-50.1 "/>
<text text-anchor="middle" x="551.465" y="-33.5" font-family="Times,serif" font-size="14.00">thresh_zstat</text>
<polyline fill="none" stroke="black" points="504.202,-25.3 598.728,-25.3 "/>
<text text-anchor="middle" x="551.465" y="-8.7" font-family="Times,serif" font-size="14.00">varcopes</text>
<polyline fill="none" stroke="black" points="598.728,-0.5 598.728,-347.7 "/>
<text text-anchor="middle" x="638.226" y="-286.1" font-family="Times,serif" font-size="14.00">outputnode</text>
<polyline fill="none" stroke="black" points="598.728,-232.9 677.724,-232.9 "/>
<text text-anchor="middle" x="638.226" y="-170.8" font-family="Times,serif" font-size="14.00">utility</text>
<polyline fill="none" stroke="black" points="598.728,-117.1 677.724,-117.1 "/>
<text text-anchor="middle" x="638.226" y="-55" font-family="Times,serif" font-size="14.00"> </text>
<polyline fill="none" stroke="black" points="677.724,-0.5 677.724,-347.7 "/>
<text text-anchor="middle" x="700.107" y="-170.1" font-family="Times,serif" font-size="14.00">OUT</text>
</g>
<!-- volume_groupmerge&#45;&gt;volume_groupoutputnode -->
<g id="edge20" class="edge"><title>volume_groupmerge:outcopefile:e&#45;&gt;volume_groupoutputnode:incopes:w</title>
<path fill="none" stroke="black" d="M449.346,-1462.1C499.081,-1462.1 479.482,-1388.98 448.346,-1350.2 403.8,-1294.71 339.42,-1367.56 292.346,-1314.2 222.919,-1235.5 268.346,-1184.24 268.346,-1079.3 268.346,-1079.3 268.346,-1079.3 268.346,-643.9 268.346,-527.986 225.575,-478.951 292.346,-384.2 349.941,-302.471 396.727,-287.079 493.226,-286.147"/>
<polygon fill="black" stroke="black" points="493.362,-289.646 503.346,-286.1 493.33,-282.647 493.362,-289.646"/>
</g>
<!-- volume_groupmerge&#45;&gt;volume_groupoutputnode -->
<g id="edge24" class="edge"><title>volume_groupmerge:outmaskfile:e&#45;&gt;volume_groupoutputnode:inmaskfile:w</title>
<path fill="none" stroke="black" d="M449.346,-1413.1C477.305,-1413.1 464.744,-1372.85 448.346,-1350.2 419.659,-1310.58 375.818,-1351.64 344.346,-1314.2 276.299,-1233.24 306.346,-1185.06 306.346,-1079.3 306.346,-1079.3 306.346,-1079.3 306.346,-643.9 306.346,-425.856 282.6,-193.481 493.142,-186.272"/>
<polygon fill="black" stroke="black" points="493.407,-189.768 503.346,-186.1 493.288,-182.769 493.407,-189.768"/>
</g>
<!-- volume_groupmerge&#45;&gt;volume_groupoutputnode -->
<g id="edge30" class="edge"><title>volume_groupmerge:outvarcopefile:e&#45;&gt;volume_groupoutputnode:invarcopes:w</title>
<path fill="none" stroke="black" d="M449.346,-1363.1C551.039,-1363.1 810.996,-1354.54 904.346,-1314.2 1051.59,-1250.57 1178.35,-1239.7 1178.35,-1079.3 1178.35,-1079.3 1178.35,-1079.3 1178.35,-643.9 1178.35,-528.169 1241.92,-465.289 1159.35,-384.2 1055.34,-282.06 604.714,-453.92 504.346,-348.2 404.206,-242.721 356.664,-23.6794 493.196,-13.4698"/>
<polygon fill="black" stroke="black" points="493.48,-16.9618 503.346,-13.1 493.225,-9.96648 493.48,-16.9618"/>
</g>
<!-- volume_groupsaveparams&#45;&gt;volume_groupoutputnode -->
<g id="edge32" class="edge"><title>volume_groupsaveparams:outjsonfile:e&#45;&gt;volume_groupoutputnode:injsonfile:w</title>
<path fill="none" stroke="black" d="M236.346,-1246.1C274.152,-1246.1 230.346,-943.706 230.346,-905.9 230.346,-905.9 230.346,-905.9 230.346,-643.9 230.346,-527.986 192.461,-482.212 254.346,-384.2 321.278,-278.195 371.857,-238.217 493.32,-236.182"/>
<polygon fill="black" stroke="black" points="493.375,-239.682 503.346,-236.1 493.318,-232.682 493.375,-239.682"/>
</g>
<!-- volume_groupdesign&#45;&gt;volume_groupflameo -->
<g id="edge8" class="edge"><title>volume_groupdesign:outdesigncon:e&#45;&gt;volume_groupflameo:intconfile:w</title>
<path fill="none" stroke="black" d="M655.346,-1276.1C669.148,-1276.1 657.625,-1227.41 654.346,-1214 650.096,-1196.62 640.51,-1195.4 636.346,-1178 620.467,-1111.66 569.078,-1025.57 625.366,-1017"/>
<polygon fill="black" stroke="black" points="625.614,-1020.49 635.346,-1016.3 625.127,-1013.5 625.614,-1020.49"/>
</g>
<!-- volume_groupdesign&#45;&gt;volume_groupflameo -->
<g id="edge9" class="edge"><title>volume_groupdesign:outdesigngrp:e&#45;&gt;volume_groupflameo:incovsplitfile:w</title>
<path fill="none" stroke="black" d="M655.346,-1252.1C672.285,-1252.1 658.454,-1230.43 654.346,-1214 650.008,-1196.65 640.595,-1195.38 636.346,-1178 630.813,-1155.37 614.356,-1126.76 625.386,-1117.98"/>
<polygon fill="black" stroke="black" points="626.6,-1121.28 635.346,-1115.3 624.78,-1114.52 626.6,-1121.28"/>
</g>
<!-- volume_groupdesign&#45;&gt;volume_groupflameo -->
<g id="edge10" class="edge"><title>volume_groupdesign:outdesignmat:e&#45;&gt;volume_groupflameo:indesignfile:w</title>
<path fill="none" stroke="black" d="M655.346,-1227.1C661.185,-1227.1 655.903,-1219.63 654.346,-1214 649.576,-1196.76 640.555,-1195.39 636.346,-1178 628.141,-1144.11 602.624,-1100.67 625.234,-1091.89"/>
<polygon fill="black" stroke="black" points="626.011,-1095.31 635.346,-1090.3 624.924,-1088.4 626.011,-1095.31"/>
</g>
<!-- volume_groupflameo&#45;&gt;volume_groupsmoothest -->
<g id="edge14" class="edge"><title>volume_groupflameo:outzstats:e&#45;&gt;volume_groupsmoothest:inzstatfile:w</title>
<path fill="none" stroke="black" d="M873.346,-1012.3C888.33,-1012.3 882.684,-989.447 872.346,-978.6 801.302,-904.054 480.877,-1017.63 410.346,-942.6 403.039,-934.826 398.166,-902.202 402.537,-887.337"/>
<polygon fill="black" stroke="black" points="405.175,-889.639 409.346,-879.9 400.012,-884.912 405.175,-889.639"/>
</g>
<!-- volume_groupcluster -->
<g id="node7" class="node"><title>volume_groupcluster</title>
<polygon fill="none" stroke="black" points="527.314,-731.5 527.314,-830.7 753.378,-830.7 753.378,-731.5 527.314,-731.5"/>
<text text-anchor="middle" x="556.312" y="-814.1" font-family="Times,serif" font-size="14.00">IN</text>
<polyline fill="none" stroke="black" points="527.314,-805.9 585.31,-805.9 "/>
<text text-anchor="middle" x="556.312" y="-789.3" font-family="Times,serif" font-size="14.00">dlh</text>
<polyline fill="none" stroke="black" points="527.314,-781.1 585.31,-781.1 "/>
<text text-anchor="middle" x="556.312" y="-764.5" font-family="Times,serif" font-size="14.00">in_file</text>
<polyline fill="none" stroke="black" points="527.314,-756.3 585.31,-756.3 "/>
<text text-anchor="middle" x="556.312" y="-739.7" font-family="Times,serif" font-size="14.00">volume</text>
<polyline fill="none" stroke="black" points="585.31,-731.5 585.31,-830.7 "/>
<text text-anchor="middle" x="611.967" y="-810.1" font-family="Times,serif" font-size="14.00">cluster</text>
<polyline fill="none" stroke="black" points="585.31,-797.9 638.625,-797.9 "/>
<text text-anchor="middle" x="611.967" y="-777.3" font-family="Times,serif" font-size="14.00">fsl</text>
<polyline fill="none" stroke="black" points="585.31,-765.1 638.625,-765.1 "/>
<text text-anchor="middle" x="611.967" y="-744.5" font-family="Times,serif" font-size="14.00"> </text>
<polyline fill="none" stroke="black" points="638.625,-731.5 638.625,-830.7 "/>
<text text-anchor="middle" x="696.002" y="-814.1" font-family="Times,serif" font-size="14.00">OUT</text>
<polyline fill="none" stroke="black" points="638.625,-805.9 753.378,-805.9 "/>
<text text-anchor="middle" x="696.002" y="-789.3" font-family="Times,serif" font-size="14.00">index_file</text>
<polyline fill="none" stroke="black" points="638.625,-781.1 753.378,-781.1 "/>
<text text-anchor="middle" x="696.002" y="-764.5" font-family="Times,serif" font-size="14.00">localmax_txt_file</text>
<polyline fill="none" stroke="black" points="638.625,-756.3 753.378,-756.3 "/>
<text text-anchor="middle" x="696.002" y="-739.7" font-family="Times,serif" font-size="14.00">threshold_file</text>
</g>
<!-- volume_groupflameo&#45;&gt;volume_groupcluster -->
<g id="edge12" class="edge"><title>volume_groupflameo:outzstats:e&#45;&gt;volume_groupcluster:ininfile:w</title>
<path fill="none" stroke="black" d="M873.346,-1012.3C888.33,-1012.3 881.143,-990.73 872.346,-978.6 844.614,-940.361 815.774,-961.183 772.346,-942.6 703.382,-913.089 690.009,-897.405 621.346,-867.2 580.396,-849.186 552.995,-867.854 527.346,-831.2 513.869,-811.941 502.603,-780.45 516.601,-771.526"/>
<polygon fill="black" stroke="black" points="517.488,-774.912 526.346,-769.1 515.797,-768.119 517.488,-774.912"/>
</g>
<!-- volume_groupflameo&#45;&gt;volume_groupreport -->
<g id="edge13" class="edge"><title>volume_groupflameo:outzstats:e&#45;&gt;volume_groupreport:inzstatfile:w</title>
<path fill="none" stroke="black" d="M873.346,-1012.3C885.941,-1012.3 906.956,-726.447 762.346,-594.8 698.145,-536.354 626.036,-625.407 570.346,-558.8 562.089,-548.925 556.193,-457.968 563.716,-429.785"/>
<polygon fill="black" stroke="black" points="566.62,-431.738 569.346,-421.5 560.831,-427.804 566.62,-431.738"/>
</g>
<!-- volume_groupflameo&#45;&gt;volume_groupoutputnode -->
<g id="edge11" class="edge"><title>volume_groupflameo:outstatsdir:e&#45;&gt;volume_groupoutputnode:inflameostats:w</title>
<path fill="none" stroke="black" d="M873.346,-1079.3C884.536,-1079.3 879.991,-986.77 872.346,-978.6 800.623,-901.952 476.763,-1015.62 401.346,-942.6 312.075,-856.169 323.017,-498.245 372.346,-384.2 402.639,-314.165 421.685,-265.619 492.939,-261.399"/>
<polygon fill="black" stroke="black" points="493.451,-264.886 503.346,-261.1 493.25,-257.889 493.451,-264.886"/>
</g>
<!-- volume_groupsmoothest&#45;&gt;volume_groupcluster -->
<g id="edge33" class="edge"><title>volume_groupsmoothest:outdlh:e&#45;&gt;volume_groupcluster:indlh:w</title>
<path fill="none" stroke="black" d="M613.346,-904.9C630.108,-904.9 621.787,-881.049 612.346,-867.2 589.237,-833.301 550.451,-865.102 527.346,-831.2 520.49,-821.139 514.222,-805.858 517.528,-798.059"/>
<polygon fill="black" stroke="black" points="519.345,-801.052 526.346,-793.1 515.914,-794.951 519.345,-801.052"/>
</g>
<!-- volume_groupsmoothest&#45;&gt;volume_groupcluster -->
<g id="edge34" class="edge"><title>volume_groupsmoothest:outvolume:e&#45;&gt;volume_groupcluster:involume:w</title>
<path fill="none" stroke="black" d="M613.346,-879.9C619.008,-879.9 615.656,-871.794 612.346,-867.2 588.362,-833.914 550.2,-865.272 527.346,-831.2 507.971,-802.314 491.354,-755.026 516.254,-745.719"/>
<polygon fill="black" stroke="black" points="517.027,-749.14 526.346,-744.1 515.918,-742.228 517.027,-749.14"/>
</g>
<!-- volume_groupcluster&#45;&gt;volume_groupsurfproj -->
<g id="edge6" class="edge"><title>volume_groupcluster:outthresholdfile:e&#45;&gt;volume_groupsurfproj:ininputszstatfile:w</title>
<path fill="none" stroke="black" d="M754.346,-744.1C797.589,-744.1 815.118,-731.475 838.346,-695 841.619,-689.861 851.551,-501.795 858.615,-456.323"/>
<polygon fill="black" stroke="black" points="862.039,-457.072 861.346,-446.5 855.295,-455.197 862.039,-457.072"/>
</g>
<!-- volume_groupwatershed -->
<g id="node9" class="node"><title>volume_groupwatershed</title>
<polygon fill="none" stroke="black" points="410.444,-595.3 410.444,-694.5 644.248,-694.5 644.248,-595.3 410.444,-595.3"/>
<text text-anchor="middle" x="456.93" y="-673.9" font-family="Times,serif" font-size="14.00">IN</text>
<polyline fill="none" stroke="black" points="410.444,-661.7 503.416,-661.7 "/>
<text text-anchor="middle" x="456.93" y="-641.1" font-family="Times,serif" font-size="14.00">localmax_file</text>
<polyline fill="none" stroke="black" points="410.444,-628.9 503.416,-628.9 "/>
<text text-anchor="middle" x="456.93" y="-608.3" font-family="Times,serif" font-size="14.00">zstat_file</text>
<polyline fill="none" stroke="black" points="503.416,-595.3 503.416,-694.5 "/>
<text text-anchor="middle" x="539.789" y="-673.9" font-family="Times,serif" font-size="14.00">watershed</text>
<polyline fill="none" stroke="black" points="503.416,-661.7 576.162,-661.7 "/>
<text text-anchor="middle" x="539.789" y="-641.1" font-family="Times,serif" font-size="14.00">mixedfx</text>
<polyline fill="none" stroke="black" points="503.416,-628.9 576.162,-628.9 "/>
<text text-anchor="middle" x="539.789" y="-608.3" font-family="Times,serif" font-size="14.00"> </text>
<polyline fill="none" stroke="black" points="576.162,-595.3 576.162,-694.5 "/>
<text text-anchor="middle" x="610.205" y="-677.9" font-family="Times,serif" font-size="14.00">OUT</text>
<polyline fill="none" stroke="black" points="576.162,-669.7 644.248,-669.7 "/>
<text text-anchor="middle" x="610.205" y="-653.1" font-family="Times,serif" font-size="14.00">lut_file</text>
<polyline fill="none" stroke="black" points="576.162,-644.9 644.248,-644.9 "/>
<text text-anchor="middle" x="610.205" y="-628.3" font-family="Times,serif" font-size="14.00">peak_file</text>
<polyline fill="none" stroke="black" points="576.162,-620.1 644.248,-620.1 "/>
<text text-anchor="middle" x="610.205" y="-603.5" font-family="Times,serif" font-size="14.00">seg_file</text>
</g>
<!-- volume_groupcluster&#45;&gt;volume_groupwatershed -->
<g id="edge3" class="edge"><title>volume_groupcluster:outlocalmaxtxtfile:e&#45;&gt;volume_groupwatershed:inlocalmaxfile:w</title>
<path fill="none" stroke="black" d="M754.346,-769.1C771.285,-769.1 764.846,-743.438 753.346,-731 701.316,-674.726 462.199,-751.437 410.346,-695 404.931,-689.106 401.031,-665.803 403.4,-653.161"/>
<polygon fill="black" stroke="black" points="406.345,-655.061 409.346,-644.9 400.664,-650.972 406.345,-655.061"/>
</g>
<!-- volume_groupcluster&#45;&gt;volume_groupwatershed -->
<g id="edge7" class="edge"><title>volume_groupcluster:outthresholdfile:e&#45;&gt;volume_groupwatershed:inzstatfile:w</title>
<path fill="none" stroke="black" d="M754.346,-744.1C760.185,-744.1 757.416,-735.187 753.346,-731 699.927,-676.043 461.979,-751.638 410.346,-695 400.359,-684.044 393.896,-636.693 401.61,-619.321"/>
<polygon fill="black" stroke="black" points="403.887,-621.98 409.346,-612.9 399.416,-616.593 403.887,-621.98"/>
</g>
<!-- volume_groupcluster&#45;&gt;volume_groupreport -->
<g id="edge2" class="edge"><title>volume_groupcluster:outlocalmaxtxtfile:e&#45;&gt;volume_groupreport:inlocalmaxfile:w</title>
<path fill="none" stroke="black" d="M754.346,-769.1C771.285,-769.1 757.634,-747.387 753.346,-731 748.766,-713.498 742.478,-711.161 734.346,-695 712.151,-650.89 723.713,-627.08 686.346,-594.8 645.496,-559.511 602.712,-602.002 570.346,-558.8 564.055,-550.402 558.773,-518.955 562.609,-504.215"/>
<polygon fill="black" stroke="black" points="565.405,-506.335 569.346,-496.5 560.132,-501.73 565.405,-506.335"/>
</g>
<!-- volume_groupcluster&#45;&gt;volume_groupreport -->
<g id="edge5" class="edge"><title>volume_groupcluster:outthresholdfile:e&#45;&gt;volume_groupreport:inzstatthreshfile:w</title>
<path fill="none" stroke="black" d="M754.346,-744.1C761.598,-744.1 804.232,-676.288 724.346,-594.8 675.14,-544.607 614.197,-613.734 570.346,-558.8 560.737,-546.763 553.669,-436.29 563.246,-405.458"/>
<polygon fill="black" stroke="black" points="566.04,-407.566 569.346,-397.5 560.484,-403.307 566.04,-407.566"/>
</g>
<!-- volume_groupcluster&#45;&gt;volume_groupoutputnode -->
<g id="edge1" class="edge"><title>volume_groupcluster:outindexfile:e&#45;&gt;volume_groupoutputnode:inclusterimage:w</title>
<path fill="none" stroke="black" d="M754.346,-793.1C781.95,-793.1 772.01,-751.338 753.346,-731 700.182,-673.066 454.042,-753.36 401.346,-695 375.867,-666.782 357.963,-477.205 405.346,-384.2 428.536,-338.681 446.317,-313.476 493.225,-310.417"/>
<polygon fill="black" stroke="black" points="493.46,-313.911 503.346,-310.1 493.242,-306.914 493.46,-313.911"/>
</g>
<!-- volume_groupcluster&#45;&gt;volume_groupoutputnode -->
<g id="edge4" class="edge"><title>volume_groupcluster:outthresholdfile:e&#45;&gt;volume_groupoutputnode:inthreshzstat:w</title>
<path fill="none" stroke="black" d="M754.346,-744.1C835.465,-744.1 869.307,-444.767 815.346,-384.2 722.785,-280.307 597.074,-451.944 504.346,-348.2 414.831,-248.051 367.938,-48.5617 493.203,-38.4959"/>
<polygon fill="black" stroke="black" points="493.49,-41.9875 503.346,-38.1 493.217,-34.9928 493.49,-41.9875"/>
</g>
<!-- volume_groupsurfproj&#45;&gt;volume_groupoutputnode -->
<g id="edge35" class="edge"><title>volume_groupsurfproj:outoutputssurfmask:e&#45;&gt;volume_groupoutputnode:insurfmask:w</title>
<path fill="none" stroke="black" d="M1151.35,-471.5C1168.11,-471.5 1161.36,-446.432 1150.35,-433.8 1060.94,-331.294 983.156,-402.309 848.346,-384.2 772.168,-373.967 555.899,-405.209 504.346,-348.2 428.869,-264.734 389.71,-97.6159 493.23,-87.5739"/>
<polygon fill="black" stroke="black" points="493.521,-91.0642 503.346,-87.1 493.193,-84.0719 493.521,-91.0642"/>
</g>
<!-- volume_groupsurfproj&#45;&gt;volume_groupoutputnode -->
<g id="edge36" class="edge"><title>volume_groupsurfproj:outoutputssurfzstat:e&#45;&gt;volume_groupoutputnode:insurfzstat:w</title>
<path fill="none" stroke="black" d="M1151.35,-446.5C1157.01,-446.5 1154.18,-437.969 1150.35,-433.8 1058.3,-333.656 983.156,-402.309 848.346,-384.2 772.168,-373.967 555.889,-405.218 504.346,-348.2 421.407,-256.452 378.567,-72.5147 493.294,-62.5242"/>
<polygon fill="black" stroke="black" points="493.503,-66.0187 503.346,-62.1 493.207,-59.0249 493.503,-66.0187"/>
</g>
<!-- volume_groupwatershed&#45;&gt;volume_groupreport -->
<g id="edge40" class="edge"><title>volume_groupwatershed:outsegfile:e&#45;&gt;volume_groupreport:insegfile:w</title>
<path fill="none" stroke="black" d="M645.346,-607.9C651.185,-607.9 647.629,-599.629 644.346,-594.8 623.782,-564.554 589.881,-589.72 570.346,-558.8 564.879,-550.146 559.312,-480.122 564.375,-455.236"/>
<polygon fill="black" stroke="black" points="567.443,-456.923 569.346,-446.5 561.359,-453.461 567.443,-456.923"/>
</g>
<!-- volume_groupwatershed&#45;&gt;volume_groupoutputnode -->
<g id="edge37" class="edge"><title>volume_groupwatershed:outlutfile:e&#45;&gt;volume_groupoutputnode:inlutfile:w</title>
<path fill="none" stroke="black" d="M645.346,-656.9C659.148,-656.9 653.01,-605.544 644.346,-594.8 600.223,-540.084 534.027,-613.869 490.346,-558.8 396.405,-440.365 350.776,-221.224 493.227,-211.439"/>
<polygon fill="black" stroke="black" points="493.469,-214.933 503.346,-211.1 493.234,-207.937 493.469,-214.933"/>
</g>
<!-- volume_groupwatershed&#45;&gt;volume_groupoutputnode -->
<g id="edge38" class="edge"><title>volume_groupwatershed:outpeakfile:e&#45;&gt;volume_groupoutputnode:inpeakfile:w</title>
<path fill="none" stroke="black" d="M645.346,-632.9C662.285,-632.9 654.571,-608.305 644.346,-594.8 611.761,-551.763 562.777,-600.375 528.346,-558.8 474.317,-493.56 419.69,-188.623 493.201,-163.718"/>
<polygon fill="black" stroke="black" points="494.022,-167.131 503.346,-162.1 492.92,-160.219 494.022,-167.131"/>
</g>
<!-- volume_groupwatershed&#45;&gt;volume_groupoutputnode -->
<g id="edge39" class="edge"><title>volume_groupwatershed:outsegfile:e&#45;&gt;volume_groupoutputnode:insegfile:w</title>
<path fill="none" stroke="black" d="M645.346,-607.9C651.185,-607.9 647.733,-599.556 644.346,-594.8 621.02,-562.048 587.645,-589.216 561.346,-558.8 557.382,-554.216 505.157,-354.206 504.346,-348.2 490.778,-247.765 404.602,-121.098 493.265,-112.557"/>
<polygon fill="black" stroke="black" points="493.515,-116.049 503.346,-112.1 493.198,-109.056 493.515,-116.049"/>
</g>
<!-- volume_groupreport&#45;&gt;volume_groupoutputnode -->
<g id="edge31" class="edge"><title>volume_groupreport:outoutfiles:e&#45;&gt;volume_groupoutputnode:inreport:w</title>
<path fill="none" stroke="black" d="M807.346,-428.5C827.04,-428.5 819.587,-398.778 806.346,-384.2 715.465,-284.139 594.332,-449.067 504.346,-348.2 444.327,-280.923 412.097,-148.014 492.923,-137.733"/>
<polygon fill="black" stroke="black" points="493.577,-141.2 503.346,-137.1 493.152,-134.213 493.577,-141.2"/>
</g>
</g>
</svg>
