<?xml version="1.0" encoding="UTF-8" standalone="no"?>
<!DOCTYPE svg PUBLIC "-//W3C//DTD SVG 1.1//EN"
 "http://www.w3.org/Graphics/SVG/1.1/DTD/svg11.dtd">
<!-- Generated by graphviz version 2.38.0 (20140413.2041)
 -->
<!-- Pages: 1 -->
<svg width="727pt" height="620pt"
 viewBox="0.00 0.00 727.43 620.00" xmlns="http://www.w3.org/2000/svg" xmlns:xlink="http://www.w3.org/1999/xlink">
<g id="graph0" class="graph" transform="scale(1 1) rotate(0) translate(4 616)">
<polygon fill="white" stroke="none" points="-4,4 -4,-616 723.426,-616 723.426,4 -4,4"/>
<!-- saveparams (fileutils) -->
<g id="node1" class="node"><title>saveparams (fileutils)</title>
<ellipse fill="none" stroke="black" cx="94.4262" cy="-450" rx="94.3524" ry="18"/>
<text text-anchor="middle" x="94.4262" y="-445.8" font-family="Times,serif" font-size="14.00">saveparams (fileutils)</text>
</g>
<!-- outputnode (utility) -->
<g id="node3" class="node"><title>outputnode (utility)</title>
<ellipse fill="none" stroke="black" cx="460.426" cy="-18" rx="86.318" ry="18"/>
<text text-anchor="middle" x="460.426" y="-13.8" font-family="Times,serif" font-size="14.00">outputnode (utility)</text>
</g>
<!-- saveparams (fileutils)&#45;&gt;outputnode (utility) -->
<g id="edge1" class="edge"><title>saveparams (fileutils)&#45;&gt;outputnode (utility)</title>
<path fill="none" stroke="black" d="M106.237,-431.958C122.932,-406.158 151.426,-355.082 151.426,-307 151.426,-307 151.426,-307 151.426,-161 151.426,-65.1134 275.795,-33.7381 366.729,-23.6129"/>
<polygon fill="black" stroke="black" points="367.224,-27.0804 376.806,-22.5616 366.497,-20.1182 367.224,-27.0804"/>
</g>
<!-- report (mixedfx) -->
<g id="node2" class="node"><title>report (mixedfx)</title>
<ellipse fill="none" stroke="black" cx="341.426" cy="-90" rx="75.2402" ry="18"/>
<text text-anchor="middle" x="341.426" y="-85.8" font-family="Times,serif" font-size="14.00">report (mixedfx)</text>
</g>
<!-- report (mixedfx)&#45;&gt;outputnode (utility) -->
<g id="edge2" class="edge"><title>report (mixedfx)&#45;&gt;outputnode (utility)</title>
<path fill="none" stroke="black" d="M368.429,-73.1159C384.78,-63.4979 405.853,-51.1017 423.705,-40.6008"/>
<polygon fill="black" stroke="black" points="425.859,-43.394 432.704,-35.307 422.31,-37.3605 425.859,-43.394"/>
</g>
<!-- smoothest (fsl) -->
<g id="node4" class="node"><title>smoothest (fsl)</title>
<ellipse fill="none" stroke="black" cx="438.426" cy="-306" rx="68.8949" ry="18"/>
<text text-anchor="middle" x="438.426" y="-301.8" font-family="Times,serif" font-size="14.00">smoothest (fsl)</text>
</g>
<!-- cluster (fsl) -->
<g id="node11" class="node"><title>cluster (fsl)</title>
<ellipse fill="none" stroke="black" cx="449.426" cy="-234" rx="55.0489" ry="18"/>
<text text-anchor="middle" x="449.426" y="-229.8" font-family="Times,serif" font-size="14.00">cluster (fsl)</text>
</g>
<!-- smoothest (fsl)&#45;&gt;cluster (fsl) -->
<g id="edge3" class="edge"><title>smoothest (fsl)&#45;&gt;cluster (fsl)</title>
<path fill="none" stroke="black" d="M441.145,-287.697C442.357,-279.983 443.814,-270.712 445.166,-262.112"/>
<polygon fill="black" stroke="black" points="448.643,-262.526 446.738,-252.104 441.728,-261.44 448.643,-262.526"/>
</g>
<!-- design (fsl) -->
<g id="node5" class="node"><title>design (fsl)</title>
<ellipse fill="none" stroke="black" cx="261.426" cy="-450" rx="54.9926" ry="18"/>
<text text-anchor="middle" x="261.426" y="-445.8" font-family="Times,serif" font-size="14.00">design (fsl)</text>
</g>
<!-- flameo (fsl) -->
<g id="node6" class="node"><title>flameo (fsl)</title>
<ellipse fill="none" stroke="black" cx="276.426" cy="-378" rx="56.1942" ry="18"/>
<text text-anchor="middle" x="276.426" y="-373.8" font-family="Times,serif" font-size="14.00">flameo (fsl)</text>
</g>
<!-- design (fsl)&#45;&gt;flameo (fsl) -->
<g id="edge4" class="edge"><title>design (fsl)&#45;&gt;flameo (fsl)</title>
<path fill="none" stroke="black" d="M265.134,-431.697C266.787,-423.983 268.773,-414.712 270.616,-406.112"/>
<polygon fill="black" stroke="black" points="274.088,-406.616 272.761,-396.104 267.243,-405.149 274.088,-406.616"/>
</g>
<!-- flameo (fsl)&#45;&gt;report (mixedfx) -->
<g id="edge6" class="edge"><title>flameo (fsl)&#45;&gt;report (mixedfx)</title>
<path fill="none" stroke="black" d="M273.459,-359.97C267.332,-320.151 256.451,-218.68 289.426,-144 294.38,-132.782 302.832,-122.582 311.5,-114.193"/>
<polygon fill="black" stroke="black" points="314.035,-116.619 319.089,-107.307 309.332,-111.435 314.035,-116.619"/>
</g>
<!-- flameo (fsl)&#45;&gt;outputnode (utility) -->
<g id="edge7" class="edge"><title>flameo (fsl)&#45;&gt;outputnode (utility)</title>
<path fill="none" stroke="black" d="M266.51,-360.162C252.192,-334.212 227.426,-282.464 227.426,-235 227.426,-235 227.426,-235 227.426,-161 227.426,-119.258 226.899,-100.469 257.426,-72 286.831,-44.5775 328.621,-30.9496 366.648,-24.3187"/>
<polygon fill="black" stroke="black" points="367.419,-27.7399 376.741,-22.7038 366.313,-20.8278 367.419,-27.7399"/>
</g>
<!-- flameo (fsl)&#45;&gt;smoothest (fsl) -->
<g id="edge5" class="edge"><title>flameo (fsl)&#45;&gt;smoothest (fsl)</title>
<path fill="none" stroke="black" d="M308.432,-363.17C333.178,-352.478 367.695,-337.563 394.943,-325.789"/>
<polygon fill="black" stroke="black" points="396.458,-328.947 404.25,-321.768 393.682,-322.521 396.458,-328.947"/>
</g>
<!-- flameo (fsl)&#45;&gt;cluster (fsl) -->
<g id="edge8" class="edge"><title>flameo (fsl)&#45;&gt;cluster (fsl)</title>
<path fill="none" stroke="black" d="M289.786,-360.255C305.43,-341.304 332.741,-310.192 360.426,-288 376.173,-275.378 395.216,-263.638 411.64,-254.431"/>
<polygon fill="black" stroke="black" points="413.377,-257.47 420.457,-249.588 410.007,-251.335 413.377,-257.47"/>
</g>
<!-- surfproj -->
<g id="node7" class="node"><title>surfproj</title>
<ellipse fill="none" stroke="black" cx="649.426" cy="-162" rx="41.7114" ry="18"/>
<text text-anchor="middle" x="649.426" y="-157.8" font-family="Times,serif" font-size="14.00">surfproj</text>
</g>
<!-- surfproj&#45;&gt;outputnode (utility) -->
<g id="edge9" class="edge"><title>surfproj&#45;&gt;outputnode (utility)</title>
<path fill="none" stroke="black" d="M642.635,-143.988C633.948,-124.202 617.138,-91.738 593.426,-72 573.53,-55.438 547.809,-43.5796 524.296,-35.3391"/>
<polygon fill="black" stroke="black" points="525.318,-31.9903 514.724,-32.1361 523.096,-38.6285 525.318,-31.9903"/>
</g>
<!-- inputnode (utility) -->
<g id="node8" class="node"><title>inputnode (utility)</title>
<ellipse fill="none" stroke="black" cx="284.426" cy="-594" rx="81.6611" ry="18"/>
<text text-anchor="middle" x="284.426" y="-589.8" font-family="Times,serif" font-size="14.00">inputnode (utility)</text>
</g>
<!-- inputnode (utility)&#45;&gt;saveparams (fileutils) -->
<g id="edge10" class="edge"><title>inputnode (utility)&#45;&gt;saveparams (fileutils)</title>
<path fill="none" stroke="black" d="M262.259,-576.433C228.313,-551.063 163.361,-502.52 124.975,-473.831"/>
<polygon fill="black" stroke="black" points="126.851,-470.864 116.746,-467.681 122.661,-476.471 126.851,-470.864"/>
</g>
<!-- merge (mixedfx) -->
<g id="node9" class="node"><title>merge (mixedfx)</title>
<ellipse fill="none" stroke="black" cx="382.426" cy="-522" rx="76.3843" ry="18"/>
<text text-anchor="middle" x="382.426" y="-517.8" font-family="Times,serif" font-size="14.00">merge (mixedfx)</text>
</g>
<!-- inputnode (utility)&#45;&gt;merge (mixedfx) -->
<g id="edge11" class="edge"><title>inputnode (utility)&#45;&gt;merge (mixedfx)</title>
<path fill="none" stroke="black" d="M307.651,-576.411C320.681,-567.103 337.112,-555.367 351.25,-545.268"/>
<polygon fill="black" stroke="black" points="353.603,-547.889 359.706,-539.228 349.535,-542.193 353.603,-547.889"/>
</g>
<!-- merge (mixedfx)&#45;&gt;report (mixedfx) -->
<g id="edge12" class="edge"><title>merge (mixedfx)&#45;&gt;report (mixedfx)</title>
<path fill="none" stroke="black" d="M379.737,-503.67C372.116,-453.645 350.413,-304.622 342.426,-180 341.1,-159.312 340.889,-135.865 340.989,-118.233"/>
<polygon fill="black" stroke="black" points="344.49,-118.114 341.084,-108.082 337.491,-118.049 344.49,-118.114"/>
</g>
<!-- merge (mixedfx)&#45;&gt;outputnode (utility) -->
<g id="edge13" class="edge"><title>merge (mixedfx)&#45;&gt;outputnode (utility)</title>
<path fill="none" stroke="black" d="M458.897,-520.882C558.326,-516.239 719.426,-491.375 719.426,-379 719.426,-379 719.426,-379 719.426,-161 719.426,-79.4103 619.381,-44.3872 543.649,-29.5636"/>
<polygon fill="black" stroke="black" points="544.079,-26.0835 533.607,-27.6867 542.793,-32.9643 544.079,-26.0835"/>
</g>
<!-- merge (mixedfx)&#45;&gt;smoothest (fsl) -->
<g id="edge14" class="edge"><title>merge (mixedfx)&#45;&gt;smoothest (fsl)</title>
<path fill="none" stroke="black" d="M386.979,-503.818C389.724,-493.447 393.285,-479.967 396.426,-468 408.749,-421.058 422.987,-366.387 431.319,-334.35"/>
<polygon fill="black" stroke="black" points="434.778,-334.956 433.907,-324.397 428.003,-333.194 434.778,-334.956"/>
</g>
<!-- merge (mixedfx)&#45;&gt;design (fsl) -->
<g id="edge15" class="edge"><title>merge (mixedfx)&#45;&gt;design (fsl)</title>
<path fill="none" stroke="black" d="M354.969,-505.116C337.592,-495.063 314.969,-481.975 296.323,-471.188"/>
<polygon fill="black" stroke="black" points="297.939,-468.079 287.53,-466.101 294.433,-474.139 297.939,-468.079"/>
</g>
<!-- merge (mixedfx)&#45;&gt;flameo (fsl) -->
<g id="edge16" class="edge"><title>merge (mixedfx)&#45;&gt;flameo (fsl)</title>
<path fill="none" stroke="black" d="M372.762,-504.004C362.044,-485.64 343.826,-455.811 325.426,-432 317.722,-422.03 308.51,-411.716 300.165,-402.866"/>
<polygon fill="black" stroke="black" points="302.56,-400.307 293.113,-395.511 297.507,-405.152 302.56,-400.307"/>
</g>
<!-- merge (mixedfx)&#45;&gt;surfproj -->
<g id="edge17" class="edge"><title>merge (mixedfx)&#45;&gt;surfproj</title>
<path fill="none" stroke="black" d="M436.779,-509.248C499.002,-492.223 592.426,-454.149 592.426,-379 592.426,-379 592.426,-379 592.426,-305 592.426,-261.562 615.681,-215.682 632.483,-188.201"/>
<polygon fill="black" stroke="black" points="635.522,-189.943 637.891,-179.616 629.6,-186.212 635.522,-189.943"/>
</g>
<!-- watershed (mixedfx) -->
<g id="node10" class="node"><title>watershed (mixedfx)</title>
<ellipse fill="none" stroke="black" cx="460.426" cy="-162" rx="91.4116" ry="18"/>
<text text-anchor="middle" x="460.426" y="-157.8" font-family="Times,serif" font-size="14.00">watershed (mixedfx)</text>
</g>
<!-- watershed (mixedfx)&#45;&gt;report (mixedfx) -->
<g id="edge18" class="edge"><title>watershed (mixedfx)&#45;&gt;report (mixedfx)</title>
<path fill="none" stroke="black" d="M432.826,-144.765C416.338,-135.066 395.21,-122.638 377.422,-112.174"/>
<polygon fill="black" stroke="black" points="378.86,-108.959 368.466,-106.906 375.311,-114.993 378.86,-108.959"/>
</g>
<!-- watershed (mixedfx)&#45;&gt;outputnode (utility) -->
<g id="edge19" class="edge"><title>watershed (mixedfx)&#45;&gt;outputnode (utility)</title>
<path fill="none" stroke="black" d="M460.426,-143.871C460.426,-119.67 460.426,-75.2108 460.426,-46.3932"/>
<polygon fill="black" stroke="black" points="463.926,-46.1892 460.426,-36.1893 456.926,-46.1893 463.926,-46.1892"/>
</g>
<!-- cluster (fsl)&#45;&gt;report (mixedfx) -->
<g id="edge21" class="edge"><title>cluster (fsl)&#45;&gt;report (mixedfx)</title>
<path fill="none" stroke="black" d="M414.097,-220.126C395.395,-211.542 373.629,-198.416 360.426,-180 347.515,-161.991 343.048,-137.001 341.648,-118.085"/>
<polygon fill="black" stroke="black" points="345.139,-117.829 341.144,-108.016 338.148,-118.178 345.139,-117.829"/>
</g>
<!-- cluster (fsl)&#45;&gt;outputnode (utility) -->
<g id="edge20" class="edge"><title>cluster (fsl)&#45;&gt;outputnode (utility)</title>
<path fill="none" stroke="black" d="M494.839,-223.575C518.744,-216.058 546.016,-202.849 560.426,-180 591.397,-130.891 532.167,-72.9928 492.366,-41.7515"/>
<polygon fill="black" stroke="black" points="494.274,-38.8044 484.207,-35.5023 490.017,-44.3616 494.274,-38.8044"/>
</g>
<!-- cluster (fsl)&#45;&gt;surfproj -->
<g id="edge23" class="edge"><title>cluster (fsl)&#45;&gt;surfproj</title>
<path fill="none" stroke="black" d="M485.645,-220.324C520.217,-208.223 572.245,-190.013 608.347,-177.378"/>
<polygon fill="black" stroke="black" points="609.798,-180.578 618.08,-173.971 607.485,-173.971 609.798,-180.578"/>
</g>
<!-- cluster (fsl)&#45;&gt;watershed (mixedfx) -->
<g id="edge22" class="edge"><title>cluster (fsl)&#45;&gt;watershed (mixedfx)</title>
<path fill="none" stroke="black" d="M452.145,-215.697C453.357,-207.983 454.814,-198.712 456.166,-190.112"/>
<polygon fill="black" stroke="black" points="459.643,-190.526 457.738,-180.104 452.728,-189.44 459.643,-190.526"/>
</g>
</g>
</svg>
